# MagicaVoxel @ Ephtracy

# group
g arrows

# material
mtllib arrows.mtl
usemtl palette

# normals
vn -1 0 0
vn 1 0 0
vn 0 0 1
vn 0 0 -1
vn 0 -1 0
vn 0 1 0

# texcoords
vt 0.970703 0.5
vt 0.974609 0.5

# verts
v -16 1 -0.5
v -16 1 -1.5
v -16 2 0.5
v -16 2 -0.5
v -16 5 0.5
v -16 5 -0.5
v -16 6 -0.5
v -16 6 -1.5
v -15 0 -0.5
v -15 0 -1.5
v -15 1 0.5
v -15 1 -0.5
v -15 1 -1.5
v -15 2 0.5
v -15 2 -0.5
v -15 5 0.5
v -15 5 -0.5
v -15 6 0.5
v -15 6 -0.5
v -15 6 -1.5
v -15 7 -0.5
v -15 7 -1.5
v -14 0 0.5
v -14 0 -0.5
v -14 1 0.5
v -14 1 -0.5
v -14 6 0.5
v -14 6 -0.5
v -14 7 0.5
v -14 7 -0.5
v -12 1 1.5
v -12 1 0.5
v -12 5 1.5
v -12 5 0.5
v -11 5 1.5
v -11 5 0.5
v -11 6 1.5
v -11 6 0.5
v -9 1 1.5
v -9 1 0.5
v -9 3 1.5
v -9 3 0.5
v -9 4 1.5
v -9 4 0.5
v -9 5 1.5
v -9 5 0.5
v -7 1 1.5
v -7 1 0.5
v -7 6 1.5
v -7 6 0.5
v -4 1 1.5
v -4 1 0.5
v -4 3 1.5
v -4 3 0.5
v -4 4 1.5
v -4 4 0.5
v -4 5 1.5
v -4 5 0.5
v -2 1 1.5
v -2 1 0.5
v -2 6 1.5
v -2 6 0.5
v 1 1 1.5
v 1 1 0.5
v 1 3 1.5
v 1 3 0.5
v 1 4 1.5
v 1 4 0.5
v 1 5 1.5
v 1 5 0.5
v 3 2 1.5
v 3 2 0.5
v 3 5 1.5
v 3 5 0.5
v 4 1 1.5
v 4 1 0.5
v 4 2 1.5
v 4 2 0.5
v 4 5 1.5
v 4 5 0.5
v 4 6 1.5
v 4 6 0.5
v 6 2 1.5
v 6 2 0.5
v 6 5 1.5
v 6 5 0.5
v 8 3 1.5
v 8 3 0.5
v 8 6 1.5
v 8 6 0.5
v 9 1 1.5
v 9 1 0.5
v 9 3 1.5
v 9 3 0.5
v 10 3 1.5
v 10 3 0.5
v 10 6 1.5
v 10 6 0.5
v 11 1 1.5
v 11 1 0.5
v 11 3 1.5
v 11 3 0.5
v 12 3 1.5
v 12 3 0.5
v 12 6 1.5
v 12 6 0.5
v -11 1 1.5
v -11 1 0.5
v -11 3 1.5
v -11 3 0.5
v -11 4 1.5
v -11 4 0.5
v -11 5 1.5
v -11 5 0.5
v -9 5 1.5
v -9 5 0.5
v -9 6 1.5
v -9 6 0.5
v -8 1 1.5
v -8 1 0.5
v -8 5 1.5
v -8 5 0.5
v -6 1 1.5
v -6 1 0.5
v -6 3 1.5
v -6 3 0.5
v -6 4 1.5
v -6 4 0.5
v -6 5 1.5
v -6 5 0.5
v -4 3 1.5
v -4 3 0.5
v -4 4 1.5
v -4 4 0.5
v -4 5 1.5
v -4 5 0.5
v -4 6 1.5
v -4 6 0.5
v -3 1 1.5
v -3 1 0.5
v -3 3 1.5
v -3 3 0.5
v -3 4 1.5
v -3 4 0.5
v -3 5 1.5
v -3 5 0.5
v -1 1 1.5
v -1 1 0.5
v -1 3 1.5
v -1 3 0.5
v -1 4 1.5
v -1 4 0.5
v -1 5 1.5
v -1 5 0.5
v 1 3 1.5
v 1 3 0.5
v 1 4 1.5
v 1 4 0.5
v 1 5 1.5
v 1 5 0.5
v 1 6 1.5
v 1 6 0.5
v 2 1 1.5
v 2 1 0.5
v 2 3 1.5
v 2 3 0.5
v 2 4 1.5
v 2 4 0.5
v 2 5 1.5
v 2 5 0.5
v 4 2 1.5
v 4 2 0.5
v 4 5 1.5
v 4 5 0.5
v 6 1 1.5
v 6 1 0.5
v 6 2 1.5
v 6 2 0.5
v 6 5 1.5
v 6 5 0.5
v 6 6 1.5
v 6 6 0.5
v 7 2 1.5
v 7 2 0.5
v 7 5 1.5
v 7 5 0.5
v 9 3 1.5
v 9 3 0.5
v 9 6 1.5
v 9 6 0.5
v 10 1 1.5
v 10 1 0.5
v 10 3 1.5
v 10 3 0.5
v 11 3 1.5
v 11 3 0.5
v 11 6 1.5
v 11 6 0.5
v 12 1 1.5
v 12 1 0.5
v 12 3 1.5
v 12 3 0.5
v 13 3 1.5
v 13 3 0.5
v 13 6 1.5
v 13 6 0.5
v 14 0 0.5
v 14 0 -0.5
v 14 1 0.5
v 14 1 -0.5
v 15 0 -0.5
v 15 0 -1.5
v 15 1 0.5
v 15 1 -0.5
v 15 1 -1.5
v 15 2 0.5
v 15 2 -0.5
v 15 5 0.5
v 15 5 -0.5
v 15 6 -0.5
v 15 6 -1.5
v 15 7 0.5
v 15 7 -1.5
v 16 1 -0.5
v 16 1 -1.5
v 16 2 0.5
v 16 2 -0.5
v 16 5 0.5
v 16 5 -0.5
v 16 6 -0.5
v 16 6 -1.5
v -12 1 1.5
v -12 5 1.5
v -11 1 1.5
v -11 3 1.5
v -11 4 1.5
v -11 5 1.5
v -11 6 1.5
v -9 1 1.5
v -9 3 1.5
v -9 4 1.5
v -9 5 1.5
v -9 6 1.5
v -8 1 1.5
v -8 5 1.5
v -7 1 1.5
v -7 6 1.5
v -6 1 1.5
v -6 3 1.5
v -6 4 1.5
v -6 5 1.5
v -4 1 1.5
v -4 3 1.5
v -4 4 1.5
v -4 5 1.5
v -4 6 1.5
v -3 1 1.5
v -3 3 1.5
v -3 4 1.5
v -3 5 1.5
v -2 1 1.5
v -2 6 1.5
v -1 1 1.5
v -1 3 1.5
v -1 4 1.5
v -1 5 1.5
v 1 1 1.5
v 1 3 1.5
v 1 4 1.5
v 1 5 1.5
v 1 6 1.5
v 2 1 1.5
v 2 3 1.5
v 2 4 1.5
v 2 5 1.5
v 3 2 1.5
v 3 5 1.5
v 4 1 1.5
v 4 2 1.5
v 4 5 1.5
v 4 6 1.5
v 6 1 1.5
v 6 2 1.5
v 6 5 1.5
v 6 6 1.5
v 7 2 1.5
v 7 5 1.5
v 8 3 1.5
v 8 6 1.5
v 9 1 1.5
v 9 3 1.5
v 9 6 1.5
v 10 1 1.5
v 10 3 1.5
v 10 6 1.5
v 11 1 1.5
v 11 3 1.5
v 11 6 1.5
v 12 1 1.5
v 12 3 1.5
v 12 6 1.5
v 13 3 1.5
v 13 6 1.5
v -16 2 0.5
v -16 5 0.5
v -15 1 0.5
v -15 2 0.5
v -15 5 0.5
v -15 6 0.5
v -14 0 0.5
v -14 1 0.5
v -14 6 0.5
v -14 7 0.5
v -12 1 0.5
v -12 5 0.5
v -11 1 0.5
v -11 3 0.5
v -11 4 0.5
v -11 5 0.5
v -11 6 0.5
v -9 1 0.5
v -9 3 0.5
v -9 4 0.5
v -9 5 0.5
v -9 6 0.5
v -8 1 0.5
v -8 5 0.5
v -7 1 0.5
v -7 6 0.5
v -6 1 0.5
v -6 3 0.5
v -6 4 0.5
v -6 5 0.5
v -4 1 0.5
v -4 3 0.5
v -4 4 0.5
v -4 5 0.5
v -4 6 0.5
v -3 1 0.5
v -3 3 0.5
v -3 4 0.5
v -3 5 0.5
v -2 1 0.5
v -2 6 0.5
v -1 1 0.5
v -1 3 0.5
v -1 4 0.5
v -1 5 0.5
v 1 1 0.5
v 1 3 0.5
v 1 4 0.5
v 1 5 0.5
v 1 6 0.5
v 2 1 0.5
v 2 3 0.5
v 2 4 0.5
v 2 5 0.5
v 3 2 0.5
v 3 5 0.5
v 4 1 0.5
v 4 2 0.5
v 4 5 0.5
v 4 6 0.5
v 6 1 0.5
v 6 2 0.5
v 6 5 0.5
v 6 6 0.5
v 7 2 0.5
v 7 5 0.5
v 8 3 0.5
v 8 6 0.5
v 9 1 0.5
v 9 3 0.5
v 9 6 0.5
v 10 1 0.5
v 10 3 0.5
v 10 6 0.5
v 11 1 0.5
v 11 3 0.5
v 11 6 0.5
v 12 1 0.5
v 12 3 0.5
v 12 6 0.5
v 13 3 0.5
v 13 6 0.5
v 14 0 0.5
v 14 1 0.5
v 15 1 0.5
v 15 2 0.5
v 15 5 0.5
v 15 7 0.5
v 16 2 0.5
v 16 5 0.5
v -16 1 -0.5
v -16 2 -0.5
v -16 5 -0.5
v -16 6 -0.5
v -15 0 -0.5
v -15 1 -0.5
v -15 2 -0.5
v -15 5 -0.5
v -15 6 -0.5
v -15 7 -0.5
v -14 0 -0.5
v -14 1 -0.5
v -14 6 -0.5
v -14 7 -0.5
v 14 0 -0.5
v 14 1 -0.5
v 15 0 -0.5
v 15 1 -0.5
v 15 2 -0.5
v 15 5 -0.5
v 15 6 -0.5
v 16 1 -0.5
v 16 2 -0.5
v 16 5 -0.5
v 16 6 -0.5
v -16 1 -1.5
v -16 6 -1.5
v -15 0 -1.5
v -15 1 -1.5
v -15 6 -1.5
v -15 7 -1.5
v 15 0 -1.5
v 15 1 -1.5
v 15 6 -1.5
v 15 7 -1.5
v 16 1 -1.5
v 16 6 -1.5
v -14 0 0.5
v 14 0 0.5
v -15 0 -0.5
v -14 0 -0.5
v 14 0 -0.5
v 15 0 -0.5
v -15 0 -1.5
v 15 0 -1.5
v -12 1 1.5
v -11 1 1.5
v -9 1 1.5
v -8 1 1.5
v -7 1 1.5
v -6 1 1.5
v -4 1 1.5
v -3 1 1.5
v -2 1 1.5
v -1 1 1.5
v 1 1 1.5
v 2 1 1.5
v 4 1 1.5
v 6 1 1.5
v 9 1 1.5
v 10 1 1.5
v 11 1 1.5
v 12 1 1.5
v -15 1 0.5
v -14 1 0.5
v -12 1 0.5
v -11 1 0.5
v -9 1 0.5
v -8 1 0.5
v -7 1 0.5
v -6 1 0.5
v -4 1 0.5
v -3 1 0.5
v -2 1 0.5
v -1 1 0.5
v 1 1 0.5
v 2 1 0.5
v 4 1 0.5
v 6 1 0.5
v 9 1 0.5
v 10 1 0.5
v 11 1 0.5
v 12 1 0.5
v 14 1 0.5
v 15 1 0.5
v -16 1 -0.5
v -15 1 -0.5
v -14 1 -0.5
v 14 1 -0.5
v 15 1 -0.5
v 16 1 -0.5
v -16 1 -1.5
v -15 1 -1.5
v 15 1 -1.5
v 16 1 -1.5
v 3 2 1.5
v 4 2 1.5
v 6 2 1.5
v 7 2 1.5
v -16 2 0.5
v -15 2 0.5
v 3 2 0.5
v 4 2 0.5
v 6 2 0.5
v 7 2 0.5
v 15 2 0.5
v 16 2 0.5
v -16 2 -0.5
v -15 2 -0.5
v 15 2 -0.5
v 16 2 -0.5
v -11 3 1.5
v -9 3 1.5
v -6 3 1.5
v -4 3 1.5
v -1 3 1.5
v 1 3 1.5
v 8 3 1.5
v 9 3 1.5
v 10 3 1.5
v 11 3 1.5
v 12 3 1.5
v 13 3 1.5
v -11 3 0.5
v -9 3 0.5
v -6 3 0.5
v -4 3 0.5
v -1 3 0.5
v 1 3 0.5
v 8 3 0.5
v 9 3 0.5
v 10 3 0.5
v 11 3 0.5
v 12 3 0.5
v 13 3 0.5
v -4 4 1.5
v -3 4 1.5
v 1 4 1.5
v 2 4 1.5
v -4 4 0.5
v -3 4 0.5
v 1 4 0.5
v 2 4 0.5
v -11 5 1.5
v -9 5 1.5
v -6 5 1.5
v -4 5 1.5
v -1 5 1.5
v 1 5 1.5
v 4 5 1.5
v 6 5 1.5
v -11 5 0.5
v -9 5 0.5
v -6 5 0.5
v -4 5 0.5
v -1 5 0.5
v 1 5 0.5
v 4 5 0.5
v 6 5 0.5
v 4 2 1.5
v 6 2 1.5
v 4 2 0.5
v 6 2 0.5
v -4 3 1.5
v -3 3 1.5
v 1 3 1.5
v 2 3 1.5
v 9 3 1.5
v 10 3 1.5
v 11 3 1.5
v 12 3 1.5
v -4 3 0.5
v -3 3 0.5
v 1 3 0.5
v 2 3 0.5
v 9 3 0.5
v 10 3 0.5
v 11 3 0.5
v 12 3 0.5
v -11 4 1.5
v -9 4 1.5
v -6 4 1.5
v -4 4 1.5
v -1 4 1.5
v 1 4 1.5
v -11 4 0.5
v -9 4 0.5
v -6 4 0.5
v -4 4 0.5
v -1 4 0.5
v 1 4 0.5
v -12 5 1.5
v -11 5 1.5
v -9 5 1.5
v -8 5 1.5
v -4 5 1.5
v -3 5 1.5
v 1 5 1.5
v 2 5 1.5
v 3 5 1.5
v 4 5 1.5
v 6 5 1.5
v 7 5 1.5
v -16 5 0.5
v -15 5 0.5
v -12 5 0.5
v -11 5 0.5
v -9 5 0.5
v -8 5 0.5
v -4 5 0.5
v -3 5 0.5
v 1 5 0.5
v 2 5 0.5
v 3 5 0.5
v 4 5 0.5
v 6 5 0.5
v 7 5 0.5
v 15 5 0.5
v 16 5 0.5
v -16 5 -0.5
v -15 5 -0.5
v 15 5 -0.5
v 16 5 -0.5
v -11 6 1.5
v -9 6 1.5
v -7 6 1.5
v -4 6 1.5
v -2 6 1.5
v 1 6 1.5
v 4 6 1.5
v 6 6 1.5
v 8 6 1.5
v 9 6 1.5
v 10 6 1.5
v 11 6 1.5
v 12 6 1.5
v 13 6 1.5
v -15 6 0.5
v -14 6 0.5
v -11 6 0.5
v -9 6 0.5
v -7 6 0.5
v -4 6 0.5
v -2 6 0.5
v 1 6 0.5
v 4 6 0.5
v 6 6 0.5
v 8 6 0.5
v 9 6 0.5
v 10 6 0.5
v 11 6 0.5
v 12 6 0.5
v 13 6 0.5
v -16 6 -0.5
v -15 6 -0.5
v -14 6 -0.5
v 15 6 -0.5
v 16 6 -0.5
v -16 6 -1.5
v -15 6 -1.5
v 15 6 -1.5
v 16 6 -1.5
v -14 7 0.5
v 15 7 0.5
v -15 7 -0.5
v -14 7 -0.5
v -15 7 -1.5
v 15 7 -1.5

# faces
f 4/2/1 2/2/1 1/2/1
f 5/2/1 4/2/1 3/2/1
f 6/2/1 2/2/1 4/2/1
f 6/2/1 4/2/1 5/2/1
f 7/2/1 2/2/1 6/2/1
f 8/2/1 2/2/1 7/2/1
f 12/2/1 10/2/1 9/2/1
f 13/2/1 10/2/1 12/2/1
f 14/2/1 12/2/1 11/2/1
f 15/2/1 12/2/1 14/2/1
f 18/2/1 17/2/1 16/2/1
f 19/2/1 17/2/1 18/2/1
f 21/2/1 20/2/1 19/2/1
f 22/2/1 20/2/1 21/2/1
f 25/2/1 24/2/1 23/2/1
f 26/2/1 24/2/1 25/2/1
f 29/2/1 28/2/1 27/2/1
f 30/2/1 28/2/1 29/2/1
f 33/1/1 32/1/1 31/1/1
f 34/1/1 32/1/1 33/1/1
f 37/1/1 36/1/1 35/1/1
f 38/1/1 36/1/1 37/1/1
f 41/1/1 40/1/1 39/1/1
f 42/1/1 40/1/1 41/1/1
f 45/1/1 44/1/1 43/1/1
f 46/1/1 44/1/1 45/1/1
f 49/1/1 48/1/1 47/1/1
f 50/1/1 48/1/1 49/1/1
f 53/1/1 52/1/1 51/1/1
f 54/1/1 52/1/1 53/1/1
f 57/1/1 56/1/1 55/1/1
f 58/1/1 56/1/1 57/1/1
f 61/1/1 60/1/1 59/1/1
f 62/1/1 60/1/1 61/1/1
f 65/1/1 64/1/1 63/1/1
f 66/1/1 64/1/1 65/1/1
f 69/1/1 68/1/1 67/1/1
f 70/1/1 68/1/1 69/1/1
f 73/1/1 72/1/1 71/1/1
f 74/1/1 72/1/1 73/1/1
f 77/1/1 76/1/1 75/1/1
f 78/1/1 76/1/1 77/1/1
f 81/1/1 80/1/1 79/1/1
f 82/1/1 80/1/1 81/1/1
f 85/1/1 84/1/1 83/1/1
f 86/1/1 84/1/1 85/1/1
f 89/1/1 88/1/1 87/1/1
f 90/1/1 88/1/1 89/1/1
f 93/1/1 92/1/1 91/1/1
f 94/1/1 92/1/1 93/1/1
f 97/1/1 96/1/1 95/1/1
f 98/1/1 96/1/1 97/1/1
f 101/1/1 100/1/1 99/1/1
f 102/1/1 100/1/1 101/1/1
f 105/1/1 104/1/1 103/1/1
f 106/1/1 104/1/1 105/1/1
f 107/1/2 108/1/2 109/1/2
f 109/1/2 108/1/2 110/1/2
f 111/1/2 112/1/2 113/1/2
f 113/1/2 112/1/2 114/1/2
f 115/1/2 116/1/2 117/1/2
f 117/1/2 116/1/2 118/1/2
f 119/1/2 120/1/2 121/1/2
f 121/1/2 120/1/2 122/1/2
f 123/1/2 124/1/2 125/1/2
f 125/1/2 124/1/2 126/1/2
f 127/1/2 128/1/2 129/1/2
f 129/1/2 128/1/2 130/1/2
f 131/1/2 132/1/2 133/1/2
f 133/1/2 132/1/2 134/1/2
f 135/1/2 136/1/2 137/1/2
f 137/1/2 136/1/2 138/1/2
f 139/1/2 140/1/2 141/1/2
f 141/1/2 140/1/2 142/1/2
f 143/1/2 144/1/2 145/1/2
f 145/1/2 144/1/2 146/1/2
f 147/1/2 148/1/2 149/1/2
f 149/1/2 148/1/2 150/1/2
f 151/1/2 152/1/2 153/1/2
f 153/1/2 152/1/2 154/1/2
f 155/1/2 156/1/2 157/1/2
f 157/1/2 156/1/2 158/1/2
f 159/1/2 160/1/2 161/1/2
f 161/1/2 160/1/2 162/1/2
f 163/1/2 164/1/2 165/1/2
f 165/1/2 164/1/2 166/1/2
f 167/1/2 168/1/2 169/1/2
f 169/1/2 168/1/2 170/1/2
f 171/1/2 172/1/2 173/1/2
f 173/1/2 172/1/2 174/1/2
f 175/1/2 176/1/2 177/1/2
f 177/1/2 176/1/2 178/1/2
f 179/1/2 180/1/2 181/1/2
f 181/1/2 180/1/2 182/1/2
f 183/1/2 184/1/2 185/1/2
f 185/1/2 184/1/2 186/1/2
f 187/1/2 188/1/2 189/1/2
f 189/1/2 188/1/2 190/1/2
f 191/1/2 192/1/2 193/1/2
f 193/1/2 192/1/2 194/1/2
f 195/1/2 196/1/2 197/1/2
f 197/1/2 196/1/2 198/1/2
f 199/1/2 200/1/2 201/1/2
f 201/1/2 200/1/2 202/1/2
f 203/1/2 204/1/2 205/1/2
f 205/1/2 204/1/2 206/1/2
f 207/2/2 208/2/2 209/2/2
f 209/2/2 208/2/2 210/2/2
f 211/2/2 212/2/2 214/2/2
f 214/2/2 212/2/2 215/2/2
f 213/2/2 214/2/2 216/2/2
f 216/2/2 214/2/2 217/2/2
f 218/2/2 219/2/2 220/2/2
f 218/2/2 220/2/2 222/2/2
f 220/2/2 221/2/2 222/2/2
f 222/2/2 221/2/2 223/2/2
f 224/2/2 225/2/2 227/2/2
f 226/2/2 227/2/2 228/2/2
f 227/2/2 225/2/2 229/2/2
f 228/2/2 227/2/2 229/2/2
f 229/2/2 225/2/2 230/2/2
f 230/2/2 225/2/2 231/2/2
f 234/1/3 233/1/3 232/1/3
f 235/1/3 233/1/3 234/1/3
f 236/1/3 233/1/3 235/1/3
f 237/1/3 233/1/3 236/1/3
f 240/1/3 236/1/3 235/1/3
f 241/1/3 236/1/3 240/1/3
f 242/1/3 238/1/3 237/1/3
f 243/1/3 238/1/3 242/1/3
f 244/1/3 241/1/3 240/1/3
f 244/1/3 240/1/3 239/1/3
f 244/1/3 242/1/3 241/1/3
f 245/1/3 242/1/3 244/1/3
f 248/1/3 247/1/3 246/1/3
f 249/1/3 247/1/3 248/1/3
f 250/1/3 247/1/3 249/1/3
f 251/1/3 247/1/3 250/1/3
f 253/1/3 250/1/3 249/1/3
f 254/1/3 250/1/3 253/1/3
f 255/1/3 247/1/3 251/1/3
f 256/1/3 247/1/3 255/1/3
f 257/1/3 253/1/3 252/1/3
f 258/1/3 253/1/3 257/1/3
f 259/1/3 255/1/3 254/1/3
f 260/1/3 255/1/3 259/1/3
f 263/1/3 262/1/3 261/1/3
f 264/1/3 262/1/3 263/1/3
f 265/1/3 262/1/3 264/1/3
f 266/1/3 262/1/3 265/1/3
f 268/1/3 265/1/3 264/1/3
f 269/1/3 265/1/3 268/1/3
f 270/1/3 262/1/3 266/1/3
f 271/1/3 262/1/3 270/1/3
f 272/1/3 268/1/3 267/1/3
f 273/1/3 268/1/3 272/1/3
f 274/1/3 270/1/3 269/1/3
f 275/1/3 270/1/3 274/1/3
f 279/1/3 277/1/3 276/1/3
f 280/1/3 277/1/3 279/1/3
f 282/1/3 279/1/3 278/1/3
f 283/1/3 279/1/3 282/1/3
f 284/1/3 281/1/3 280/1/3
f 285/1/3 281/1/3 284/1/3
f 286/1/3 284/1/3 283/1/3
f 287/1/3 284/1/3 286/1/3
f 291/1/3 289/1/3 288/1/3
f 292/1/3 289/1/3 291/1/3
f 293/1/3 291/1/3 290/1/3
f 294/1/3 291/1/3 293/1/3
f 297/1/3 295/1/3 294/1/3
f 298/1/3 295/1/3 297/1/3
f 299/1/3 297/1/3 296/1/3
f 300/1/3 297/1/3 299/1/3
f 302/1/3 301/1/3 300/1/3
f 303/1/3 301/1/3 302/1/3
f 307/2/3 305/2/3 304/2/3
f 308/2/3 305/2/3 307/2/3
f 311/2/3 307/2/3 306/2/3
f 311/2/3 309/2/3 308/2/3
f 311/2/3 308/2/3 307/2/3
f 312/2/3 309/2/3 311/2/3
f 314/2/3 311/2/3 310/2/3
f 314/2/3 313/2/3 312/2/3
f 314/2/3 312/2/3 311/2/3
f 315/2/3 313/2/3 314/2/3
f 316/2/3 314/2/3 310/2/3
f 319/2/3 313/2/3 315/2/3
f 320/2/3 313/2/3 319/2/3
f 321/2/3 317/2/3 316/2/3
f 321/2/3 316/2/3 310/2/3
f 322/2/3 317/2/3 321/2/3
f 323/2/3 319/2/3 318/2/3
f 324/2/3 319/2/3 323/2/3
f 325/2/3 313/2/3 320/2/3
f 326/2/3 321/2/3 310/2/3
f 327/2/3 325/2/3 324/2/3
f 328/2/3 326/2/3 310/2/3
f 328/2/3 327/2/3 326/2/3
f 329/2/3 325/2/3 327/2/3
f 329/2/3 327/2/3 328/2/3
f 329/2/3 313/2/3 325/2/3
f 330/2/3 328/2/3 310/2/3
f 334/2/3 330/2/3 310/2/3
f 334/2/3 331/2/3 330/2/3
f 335/2/3 331/2/3 334/2/3
f 336/2/3 333/2/3 332/2/3
f 337/2/3 333/2/3 336/2/3
f 338/2/3 313/2/3 329/2/3
f 339/2/3 334/2/3 310/2/3
f 340/2/3 336/2/3 335/2/3
f 341/2/3 336/2/3 340/2/3
f 342/2/3 338/2/3 337/2/3
f 343/2/3 341/2/3 340/2/3
f 343/2/3 342/2/3 341/2/3
f 343/2/3 339/2/3 310/2/3
f 343/2/3 340/2/3 339/2/3
f 344/2/3 338/2/3 342/2/3
f 344/2/3 342/2/3 343/2/3
f 344/2/3 313/2/3 338/2/3
f 345/2/3 343/2/3 310/2/3
f 349/2/3 345/2/3 310/2/3
f 349/2/3 346/2/3 345/2/3
f 350/2/3 346/2/3 349/2/3
f 351/2/3 348/2/3 347/2/3
f 352/2/3 348/2/3 351/2/3
f 353/2/3 313/2/3 344/2/3
f 354/2/3 349/2/3 310/2/3
f 355/2/3 351/2/3 350/2/3
f 356/2/3 351/2/3 355/2/3
f 357/2/3 353/2/3 352/2/3
f 358/2/3 356/2/3 355/2/3
f 358/2/3 357/2/3 356/2/3
f 358/2/3 355/2/3 354/2/3
f 359/2/3 353/2/3 357/2/3
f 359/2/3 357/2/3 358/2/3
f 360/2/3 358/2/3 354/2/3
f 360/2/3 354/2/3 310/2/3
f 361/2/3 358/2/3 360/2/3
f 362/2/3 353/2/3 359/2/3
f 363/2/3 313/2/3 353/2/3
f 363/2/3 353/2/3 362/2/3
f 364/2/3 360/2/3 310/2/3
f 365/2/3 362/2/3 361/2/3
f 366/2/3 362/2/3 365/2/3
f 367/2/3 313/2/3 363/2/3
f 368/2/3 365/2/3 364/2/3
f 369/2/3 367/2/3 366/2/3
f 370/2/3 369/2/3 368/2/3
f 371/2/3 313/2/3 367/2/3
f 371/2/3 369/2/3 370/2/3
f 371/2/3 367/2/3 369/2/3
f 372/2/3 368/2/3 364/2/3
f 372/2/3 364/2/3 310/2/3
f 372/2/3 370/2/3 368/2/3
f 373/2/3 370/2/3 372/2/3
f 374/2/3 313/2/3 371/2/3
f 375/2/3 372/2/3 310/2/3
f 376/2/3 374/2/3 373/2/3
f 377/2/3 313/2/3 374/2/3
f 377/2/3 374/2/3 376/2/3
f 378/2/3 375/2/3 310/2/3
f 378/2/3 376/2/3 375/2/3
f 379/2/3 376/2/3 378/2/3
f 380/2/3 313/2/3 377/2/3
f 381/2/3 378/2/3 310/2/3
f 382/2/3 380/2/3 379/2/3
f 383/2/3 313/2/3 380/2/3
f 383/2/3 380/2/3 382/2/3
f 384/2/3 382/2/3 381/2/3
f 385/2/3 313/2/3 383/2/3
f 386/2/3 381/2/3 310/2/3
f 386/2/3 385/2/3 384/2/3
f 386/2/3 384/2/3 381/2/3
f 387/2/3 385/2/3 386/2/3
f 388/2/3 385/2/3 387/2/3
f 389/2/3 385/2/3 388/2/3
f 390/2/3 385/2/3 389/2/3
f 391/2/3 313/2/3 385/2/3
f 391/2/3 385/2/3 390/2/3
f 392/2/3 390/2/3 389/2/3
f 393/2/3 390/2/3 392/2/3
f 399/2/3 395/2/3 394/2/3
f 400/2/3 395/2/3 399/2/3
f 401/2/3 397/2/3 396/2/3
f 402/2/3 397/2/3 401/2/3
f 404/2/3 399/2/3 398/2/3
f 405/2/3 399/2/3 404/2/3
f 406/2/3 403/2/3 402/2/3
f 407/2/3 403/2/3 406/2/3
f 410/2/3 409/2/3 408/2/3
f 411/2/3 409/2/3 410/2/3
f 415/2/3 412/2/3 411/2/3
f 416/2/3 412/2/3 415/2/3
f 417/2/3 414/2/3 413/2/3
f 418/2/3 414/2/3 417/2/3
f 419/2/4 420/2/4 422/2/4
f 422/2/4 420/2/4 423/2/4
f 421/2/4 422/2/4 425/2/4
f 423/2/4 424/2/4 425/2/4
f 422/2/4 423/2/4 425/2/4
f 425/2/4 424/2/4 426/2/4
f 426/2/4 424/2/4 427/2/4
f 427/2/4 424/2/4 428/2/4
f 426/2/4 427/2/4 429/2/4
f 429/2/4 427/2/4 430/2/4
f 434/2/5 432/2/5 431/2/5
f 435/2/5 432/2/5 434/2/5
f 437/2/5 434/2/5 433/2/5
f 437/2/5 436/2/5 435/2/5
f 437/2/5 435/2/5 434/2/5
f 438/2/5 436/2/5 437/2/5
f 459/1/5 440/1/5 439/1/5
f 460/1/5 440/1/5 459/1/5
f 461/1/5 442/1/5 441/1/5
f 462/1/5 442/1/5 461/1/5
f 463/1/5 444/1/5 443/1/5
f 464/1/5 444/1/5 463/1/5
f 465/1/5 446/1/5 445/1/5
f 466/1/5 446/1/5 465/1/5
f 467/1/5 448/1/5 447/1/5
f 468/1/5 448/1/5 467/1/5
f 469/1/5 450/1/5 449/1/5
f 470/1/5 450/1/5 469/1/5
f 471/1/5 452/1/5 451/1/5
f 472/1/5 452/1/5 471/1/5
f 473/1/5 454/1/5 453/1/5
f 474/1/5 454/1/5 473/1/5
f 475/1/5 456/1/5 455/1/5
f 476/1/5 456/1/5 475/1/5
f 480/2/5 458/2/5 457/2/5
f 481/2/5 458/2/5 480/2/5
f 482/2/5 478/2/5 477/2/5
f 483/2/5 478/2/5 482/2/5
f 485/2/5 480/2/5 479/2/5
f 486/2/5 480/2/5 485/2/5
f 487/2/5 484/2/5 483/2/5
f 488/2/5 484/2/5 487/2/5
f 495/1/5 490/1/5 489/1/5
f 496/1/5 490/1/5 495/1/5
f 497/1/5 492/1/5 491/1/5
f 498/1/5 492/1/5 497/1/5
f 501/2/5 494/2/5 493/2/5
f 502/2/5 494/2/5 501/2/5
f 503/2/5 500/2/5 499/2/5
f 504/2/5 500/2/5 503/2/5
f 517/1/5 506/1/5 505/1/5
f 518/1/5 506/1/5 517/1/5
f 519/1/5 508/1/5 507/1/5
f 520/1/5 508/1/5 519/1/5
f 521/1/5 510/1/5 509/1/5
f 522/1/5 510/1/5 521/1/5
f 523/1/5 512/1/5 511/1/5
f 524/1/5 512/1/5 523/1/5
f 525/1/5 514/1/5 513/1/5
f 526/1/5 514/1/5 525/1/5
f 527/1/5 516/1/5 515/1/5
f 528/1/5 516/1/5 527/1/5
f 533/1/5 530/1/5 529/1/5
f 534/1/5 530/1/5 533/1/5
f 535/1/5 532/1/5 531/1/5
f 536/1/5 532/1/5 535/1/5
f 545/1/5 538/1/5 537/1/5
f 546/1/5 538/1/5 545/1/5
f 547/1/5 540/1/5 539/1/5
f 548/1/5 540/1/5 547/1/5
f 549/1/5 542/1/5 541/1/5
f 550/1/5 542/1/5 549/1/5
f 551/1/5 544/1/5 543/1/5
f 552/1/5 544/1/5 551/1/5
f 553/1/6 554/1/6 555/1/6
f 555/1/6 554/1/6 556/1/6
f 557/1/6 558/1/6 565/1/6
f 565/1/6 558/1/6 566/1/6
f 559/1/6 560/1/6 567/1/6
f 567/1/6 560/1/6 568/1/6
f 561/1/6 562/1/6 569/1/6
f 569/1/6 562/1/6 570/1/6
f 563/1/6 564/1/6 571/1/6
f 571/1/6 564/1/6 572/1/6
f 573/1/6 574/1/6 579/1/6
f 579/1/6 574/1/6 580/1/6
f 575/1/6 576/1/6 581/1/6
f 581/1/6 576/1/6 582/1/6
f 577/1/6 578/1/6 583/1/6
f 583/1/6 578/1/6 584/1/6
f 585/1/6 586/1/6 599/1/6
f 599/1/6 586/1/6 600/1/6
f 587/1/6 588/1/6 601/1/6
f 601/1/6 588/1/6 602/1/6
f 589/1/6 590/1/6 603/1/6
f 603/1/6 590/1/6 604/1/6
f 591/1/6 592/1/6 605/1/6
f 605/1/6 592/1/6 606/1/6
f 593/1/6 594/1/6 607/1/6
f 607/1/6 594/1/6 608/1/6
f 595/1/6 596/1/6 609/1/6
f 609/1/6 596/1/6 610/1/6
f 597/2/6 598/2/6 613/2/6
f 613/2/6 598/2/6 614/2/6
f 611/2/6 612/2/6 615/2/6
f 615/2/6 612/2/6 616/2/6
f 617/1/6 618/1/6 633/1/6
f 633/1/6 618/1/6 634/1/6
f 619/1/6 620/1/6 635/1/6
f 635/1/6 620/1/6 636/1/6
f 621/1/6 622/1/6 637/1/6
f 637/1/6 622/1/6 638/1/6
f 623/1/6 624/1/6 639/1/6
f 639/1/6 624/1/6 640/1/6
f 625/1/6 626/1/6 641/1/6
f 641/1/6 626/1/6 642/1/6
f 627/1/6 628/1/6 643/1/6
f 643/1/6 628/1/6 644/1/6
f 629/1/6 630/1/6 645/1/6
f 645/1/6 630/1/6 646/1/6
f 631/2/6 632/2/6 648/2/6
f 648/2/6 632/2/6 649/2/6
f 647/2/6 648/2/6 652/2/6
f 652/2/6 648/2/6 653/2/6
f 650/2/6 651/2/6 654/2/6
f 654/2/6 651/2/6 655/2/6
f 656/2/6 657/2/6 659/2/6
f 658/2/6 659/2/6 660/2/6
f 659/2/6 657/2/6 661/2/6
f 660/2/6 659/2/6 661/2/6
