# MagicaVoxel @ Ephtracy

# group
g load

# material
mtllib load.mtl
usemtl palette

# normals
vn -1 0 0
vn 1 0 0
vn 0 0 1
vn 0 0 -1
vn 0 -1 0
vn 0 1 0

# texcoords
vt 0.970703 0.5
vt 0.974609 0.5

# verts
v -16 1 -0.5
v -16 1 -1.5
v -16 2 0.5
v -16 2 -0.5
v -16 5 0.5
v -16 5 -0.5
v -16 6 -0.5
v -16 6 -1.5
v -15 0 -0.5
v -15 0 -1.5
v -15 1 0.5
v -15 1 -0.5
v -15 1 -1.5
v -15 2 0.5
v -15 2 -0.5
v -15 5 0.5
v -15 5 -0.5
v -15 6 0.5
v -15 6 -0.5
v -15 6 -1.5
v -15 7 -0.5
v -15 7 -1.5
v -14 0 0.5
v -14 0 -0.5
v -14 1 0.5
v -14 1 -0.5
v -14 6 0.5
v -14 6 -0.5
v -14 7 0.5
v -14 7 -0.5
v -9 1 1.5
v -9 1 0.5
v -9 6 1.5
v -9 6 0.5
v -5 2 1.5
v -5 2 0.5
v -5 5 1.5
v -5 5 0.5
v -4 1 1.5
v -4 1 0.5
v -4 2 1.5
v -4 2 0.5
v -4 5 1.5
v -4 5 0.5
v -4 6 1.5
v -4 6 0.5
v -2 2 1.5
v -2 2 0.5
v -2 5 1.5
v -2 5 0.5
v 0 1 1.5
v 0 1 0.5
v 0 5 1.5
v 0 5 0.5
v 1 5 1.5
v 1 5 0.5
v 1 6 1.5
v 1 6 0.5
v 3 1 1.5
v 3 1 0.5
v 3 3 1.5
v 3 3 0.5
v 3 4 1.5
v 3 4 0.5
v 3 5 1.5
v 3 5 0.5
v 5 1 1.5
v 5 1 0.5
v 5 6 1.5
v 5 6 0.5
v 8 2 1.5
v 8 2 0.5
v 8 5 1.5
v 8 5 0.5
v -8 2 1.5
v -8 2 0.5
v -8 6 1.5
v -8 6 0.5
v -6 1 1.5
v -6 1 0.5
v -6 2 1.5
v -6 2 0.5
v -4 2 1.5
v -4 2 0.5
v -4 5 1.5
v -4 5 0.5
v -2 1 1.5
v -2 1 0.5
v -2 2 1.5
v -2 2 0.5
v -2 5 1.5
v -2 5 0.5
v -2 6 1.5
v -2 6 0.5
v -1 2 1.5
v -1 2 0.5
v -1 5 1.5
v -1 5 0.5
v 1 1 1.5
v 1 1 0.5
v 1 3 1.5
v 1 3 0.5
v 1 4 1.5
v 1 4 0.5
v 1 5 1.5
v 1 5 0.5
v 3 5 1.5
v 3 5 0.5
v 3 6 1.5
v 3 6 0.5
v 4 1 1.5
v 4 1 0.5
v 4 5 1.5
v 4 5 0.5
v 6 2 1.5
v 6 2 0.5
v 6 5 1.5
v 6 5 0.5
v 8 1 1.5
v 8 1 0.5
v 8 2 1.5
v 8 2 0.5
v 8 5 1.5
v 8 5 0.5
v 8 6 1.5
v 8 6 0.5
v 9 2 1.5
v 9 2 0.5
v 9 5 1.5
v 9 5 0.5
v 14 0 0.5
v 14 0 -0.5
v 14 1 0.5
v 14 1 -0.5
v 15 0 -0.5
v 15 0 -1.5
v 15 1 0.5
v 15 1 -0.5
v 15 1 -1.5
v 15 2 0.5
v 15 2 -0.5
v 15 5 0.5
v 15 5 -0.5
v 15 6 -0.5
v 15 6 -1.5
v 15 7 0.5
v 15 7 -1.5
v 16 1 -0.5
v 16 1 -1.5
v 16 2 0.5
v 16 2 -0.5
v 16 5 0.5
v 16 5 -0.5
v 16 6 -0.5
v 16 6 -1.5
v -9 1 1.5
v -9 6 1.5
v -8 2 1.5
v -8 6 1.5
v -6 1 1.5
v -6 2 1.5
v -5 2 1.5
v -5 5 1.5
v -4 1 1.5
v -4 2 1.5
v -4 5 1.5
v -4 6 1.5
v -2 1 1.5
v -2 2 1.5
v -2 5 1.5
v -2 6 1.5
v -1 2 1.5
v -1 5 1.5
v 0 1 1.5
v 0 5 1.5
v 1 1 1.5
v 1 3 1.5
v 1 4 1.5
v 1 5 1.5
v 1 6 1.5
v 3 1 1.5
v 3 3 1.5
v 3 4 1.5
v 3 5 1.5
v 3 6 1.5
v 4 1 1.5
v 4 5 1.5
v 5 1 1.5
v 5 6 1.5
v 6 2 1.5
v 6 5 1.5
v 8 1 1.5
v 8 2 1.5
v 8 5 1.5
v 8 6 1.5
v 9 2 1.5
v 9 5 1.5
v -16 2 0.5
v -16 5 0.5
v -15 1 0.5
v -15 2 0.5
v -15 5 0.5
v -15 6 0.5
v -14 0 0.5
v -14 1 0.5
v -14 6 0.5
v -14 7 0.5
v -9 1 0.5
v -9 6 0.5
v -8 2 0.5
v -8 6 0.5
v -6 1 0.5
v -6 2 0.5
v -5 2 0.5
v -5 5 0.5
v -4 1 0.5
v -4 2 0.5
v -4 5 0.5
v -4 6 0.5
v -2 1 0.5
v -2 2 0.5
v -2 5 0.5
v -2 6 0.5
v -1 2 0.5
v -1 5 0.5
v 0 1 0.5
v 0 5 0.5
v 1 1 0.5
v 1 3 0.5
v 1 4 0.5
v 1 5 0.5
v 1 6 0.5
v 3 1 0.5
v 3 3 0.5
v 3 4 0.5
v 3 5 0.5
v 3 6 0.5
v 4 1 0.5
v 4 5 0.5
v 5 1 0.5
v 5 6 0.5
v 6 2 0.5
v 6 5 0.5
v 8 1 0.5
v 8 2 0.5
v 8 5 0.5
v 8 6 0.5
v 9 2 0.5
v 9 5 0.5
v 14 0 0.5
v 14 1 0.5
v 15 1 0.5
v 15 2 0.5
v 15 5 0.5
v 15 7 0.5
v 16 2 0.5
v 16 5 0.5
v -16 1 -0.5
v -16 2 -0.5
v -16 5 -0.5
v -16 6 -0.5
v -15 0 -0.5
v -15 1 -0.5
v -15 2 -0.5
v -15 5 -0.5
v -15 6 -0.5
v -15 7 -0.5
v -14 0 -0.5
v -14 1 -0.5
v -14 6 -0.5
v -14 7 -0.5
v 14 0 -0.5
v 14 1 -0.5
v 15 0 -0.5
v 15 1 -0.5
v 15 2 -0.5
v 15 5 -0.5
v 15 6 -0.5
v 16 1 -0.5
v 16 2 -0.5
v 16 5 -0.5
v 16 6 -0.5
v -16 1 -1.5
v -16 6 -1.5
v -15 0 -1.5
v -15 1 -1.5
v -15 6 -1.5
v -15 7 -1.5
v 15 0 -1.5
v 15 1 -1.5
v 15 6 -1.5
v 15 7 -1.5
v 16 1 -1.5
v 16 6 -1.5
v -14 0 0.5
v 14 0 0.5
v -15 0 -0.5
v -14 0 -0.5
v 14 0 -0.5
v 15 0 -0.5
v -15 0 -1.5
v 15 0 -1.5
v -9 1 1.5
v -6 1 1.5
v -4 1 1.5
v -2 1 1.5
v 0 1 1.5
v 1 1 1.5
v 3 1 1.5
v 4 1 1.5
v 5 1 1.5
v 8 1 1.5
v -15 1 0.5
v -14 1 0.5
v -9 1 0.5
v -6 1 0.5
v -4 1 0.5
v -2 1 0.5
v 0 1 0.5
v 1 1 0.5
v 3 1 0.5
v 4 1 0.5
v 5 1 0.5
v 8 1 0.5
v 14 1 0.5
v 15 1 0.5
v -16 1 -0.5
v -15 1 -0.5
v -14 1 -0.5
v 14 1 -0.5
v 15 1 -0.5
v 16 1 -0.5
v -16 1 -1.5
v -15 1 -1.5
v 15 1 -1.5
v 16 1 -1.5
v -5 2 1.5
v -4 2 1.5
v -2 2 1.5
v -1 2 1.5
v 8 2 1.5
v 9 2 1.5
v -16 2 0.5
v -15 2 0.5
v -5 2 0.5
v -4 2 0.5
v -2 2 0.5
v -1 2 0.5
v 8 2 0.5
v 9 2 0.5
v 15 2 0.5
v 16 2 0.5
v -16 2 -0.5
v -15 2 -0.5
v 15 2 -0.5
v 16 2 -0.5
v 1 3 1.5
v 3 3 1.5
v 1 3 0.5
v 3 3 0.5
v -4 5 1.5
v -2 5 1.5
v 1 5 1.5
v 3 5 1.5
v 6 5 1.5
v 8 5 1.5
v -4 5 0.5
v -2 5 0.5
v 1 5 0.5
v 3 5 0.5
v 6 5 0.5
v 8 5 0.5
v -8 2 1.5
v -6 2 1.5
v -4 2 1.5
v -2 2 1.5
v 6 2 1.5
v 8 2 1.5
v -8 2 0.5
v -6 2 0.5
v -4 2 0.5
v -2 2 0.5
v 6 2 0.5
v 8 2 0.5
v 1 4 1.5
v 3 4 1.5
v 1 4 0.5
v 3 4 0.5
v -5 5 1.5
v -4 5 1.5
v -2 5 1.5
v -1 5 1.5
v 0 5 1.5
v 1 5 1.5
v 3 5 1.5
v 4 5 1.5
v 8 5 1.5
v 9 5 1.5
v -16 5 0.5
v -15 5 0.5
v -5 5 0.5
v -4 5 0.5
v -2 5 0.5
v -1 5 0.5
v 0 5 0.5
v 1 5 0.5
v 3 5 0.5
v 4 5 0.5
v 8 5 0.5
v 9 5 0.5
v 15 5 0.5
v 16 5 0.5
v -16 5 -0.5
v -15 5 -0.5
v 15 5 -0.5
v 16 5 -0.5
v -9 6 1.5
v -8 6 1.5
v -4 6 1.5
v -2 6 1.5
v 1 6 1.5
v 3 6 1.5
v 5 6 1.5
v 8 6 1.5
v -15 6 0.5
v -14 6 0.5
v -9 6 0.5
v -8 6 0.5
v -4 6 0.5
v -2 6 0.5
v 1 6 0.5
v 3 6 0.5
v 5 6 0.5
v 8 6 0.5
v -16 6 -0.5
v -15 6 -0.5
v -14 6 -0.5
v 15 6 -0.5
v 16 6 -0.5
v -16 6 -1.5
v -15 6 -1.5
v 15 6 -1.5
v 16 6 -1.5
v -14 7 0.5
v 15 7 0.5
v -15 7 -0.5
v -14 7 -0.5
v -15 7 -1.5
v 15 7 -1.5

# faces
f 4/2/1 2/2/1 1/2/1
f 5/2/1 4/2/1 3/2/1
f 6/2/1 2/2/1 4/2/1
f 6/2/1 4/2/1 5/2/1
f 7/2/1 2/2/1 6/2/1
f 8/2/1 2/2/1 7/2/1
f 12/2/1 10/2/1 9/2/1
f 13/2/1 10/2/1 12/2/1
f 14/2/1 12/2/1 11/2/1
f 15/2/1 12/2/1 14/2/1
f 18/2/1 17/2/1 16/2/1
f 19/2/1 17/2/1 18/2/1
f 21/2/1 20/2/1 19/2/1
f 22/2/1 20/2/1 21/2/1
f 25/2/1 24/2/1 23/2/1
f 26/2/1 24/2/1 25/2/1
f 29/2/1 28/2/1 27/2/1
f 30/2/1 28/2/1 29/2/1
f 33/1/1 32/1/1 31/1/1
f 34/1/1 32/1/1 33/1/1
f 37/1/1 36/1/1 35/1/1
f 38/1/1 36/1/1 37/1/1
f 41/1/1 40/1/1 39/1/1
f 42/1/1 40/1/1 41/1/1
f 45/1/1 44/1/1 43/1/1
f 46/1/1 44/1/1 45/1/1
f 49/1/1 48/1/1 47/1/1
f 50/1/1 48/1/1 49/1/1
f 53/1/1 52/1/1 51/1/1
f 54/1/1 52/1/1 53/1/1
f 57/1/1 56/1/1 55/1/1
f 58/1/1 56/1/1 57/1/1
f 61/1/1 60/1/1 59/1/1
f 62/1/1 60/1/1 61/1/1
f 65/1/1 64/1/1 63/1/1
f 66/1/1 64/1/1 65/1/1
f 69/1/1 68/1/1 67/1/1
f 70/1/1 68/1/1 69/1/1
f 73/1/1 72/1/1 71/1/1
f 74/1/1 72/1/1 73/1/1
f 75/1/2 76/1/2 77/1/2
f 77/1/2 76/1/2 78/1/2
f 79/1/2 80/1/2 81/1/2
f 81/1/2 80/1/2 82/1/2
f 83/1/2 84/1/2 85/1/2
f 85/1/2 84/1/2 86/1/2
f 87/1/2 88/1/2 89/1/2
f 89/1/2 88/1/2 90/1/2
f 91/1/2 92/1/2 93/1/2
f 93/1/2 92/1/2 94/1/2
f 95/1/2 96/1/2 97/1/2
f 97/1/2 96/1/2 98/1/2
f 99/1/2 100/1/2 101/1/2
f 101/1/2 100/1/2 102/1/2
f 103/1/2 104/1/2 105/1/2
f 105/1/2 104/1/2 106/1/2
f 107/1/2 108/1/2 109/1/2
f 109/1/2 108/1/2 110/1/2
f 111/1/2 112/1/2 113/1/2
f 113/1/2 112/1/2 114/1/2
f 115/1/2 116/1/2 117/1/2
f 117/1/2 116/1/2 118/1/2
f 119/1/2 120/1/2 121/1/2
f 121/1/2 120/1/2 122/1/2
f 123/1/2 124/1/2 125/1/2
f 125/1/2 124/1/2 126/1/2
f 127/1/2 128/1/2 129/1/2
f 129/1/2 128/1/2 130/1/2
f 131/2/2 132/2/2 133/2/2
f 133/2/2 132/2/2 134/2/2
f 135/2/2 136/2/2 138/2/2
f 138/2/2 136/2/2 139/2/2
f 137/2/2 138/2/2 140/2/2
f 140/2/2 138/2/2 141/2/2
f 142/2/2 143/2/2 144/2/2
f 142/2/2 144/2/2 146/2/2
f 144/2/2 145/2/2 146/2/2
f 146/2/2 145/2/2 147/2/2
f 148/2/2 149/2/2 151/2/2
f 150/2/2 151/2/2 152/2/2
f 151/2/2 149/2/2 153/2/2
f 152/2/2 151/2/2 153/2/2
f 153/2/2 149/2/2 154/2/2
f 154/2/2 149/2/2 155/2/2
f 158/1/3 157/1/3 156/1/3
f 159/1/3 157/1/3 158/1/3
f 160/1/3 158/1/3 156/1/3
f 161/1/3 158/1/3 160/1/3
f 165/1/3 163/1/3 162/1/3
f 166/1/3 163/1/3 165/1/3
f 168/1/3 165/1/3 164/1/3
f 169/1/3 165/1/3 168/1/3
f 170/1/3 167/1/3 166/1/3
f 171/1/3 167/1/3 170/1/3
f 172/1/3 170/1/3 169/1/3
f 173/1/3 170/1/3 172/1/3
f 176/1/3 175/1/3 174/1/3
f 177/1/3 175/1/3 176/1/3
f 178/1/3 175/1/3 177/1/3
f 179/1/3 175/1/3 178/1/3
f 182/1/3 178/1/3 177/1/3
f 183/1/3 178/1/3 182/1/3
f 184/1/3 180/1/3 179/1/3
f 185/1/3 180/1/3 184/1/3
f 186/1/3 183/1/3 182/1/3
f 186/1/3 182/1/3 181/1/3
f 186/1/3 184/1/3 183/1/3
f 187/1/3 184/1/3 186/1/3
f 190/1/3 189/1/3 188/1/3
f 191/1/3 189/1/3 190/1/3
f 192/1/3 190/1/3 188/1/3
f 193/1/3 190/1/3 192/1/3
f 194/1/3 189/1/3 191/1/3
f 195/1/3 189/1/3 194/1/3
f 196/1/3 194/1/3 193/1/3
f 197/1/3 194/1/3 196/1/3
f 201/2/3 199/2/3 198/2/3
f 202/2/3 199/2/3 201/2/3
f 205/2/3 201/2/3 200/2/3
f 205/2/3 203/2/3 202/2/3
f 205/2/3 202/2/3 201/2/3
f 206/2/3 203/2/3 205/2/3
f 208/2/3 205/2/3 204/2/3
f 208/2/3 207/2/3 206/2/3
f 208/2/3 206/2/3 205/2/3
f 209/2/3 207/2/3 208/2/3
f 211/2/3 207/2/3 209/2/3
f 212/2/3 208/2/3 204/2/3
f 213/2/3 211/2/3 210/2/3
f 214/2/3 211/2/3 213/2/3
f 214/2/3 213/2/3 212/2/3
f 215/2/3 211/2/3 214/2/3
f 216/2/3 212/2/3 204/2/3
f 216/2/3 214/2/3 212/2/3
f 217/2/3 214/2/3 216/2/3
f 218/2/3 211/2/3 215/2/3
f 219/2/3 207/2/3 211/2/3
f 219/2/3 211/2/3 218/2/3
f 220/2/3 216/2/3 204/2/3
f 221/2/3 218/2/3 217/2/3
f 222/2/3 218/2/3 221/2/3
f 223/2/3 207/2/3 219/2/3
f 224/2/3 221/2/3 220/2/3
f 225/2/3 223/2/3 222/2/3
f 226/2/3 224/2/3 220/2/3
f 226/2/3 225/2/3 224/2/3
f 226/2/3 220/2/3 204/2/3
f 227/2/3 223/2/3 225/2/3
f 227/2/3 225/2/3 226/2/3
f 228/2/3 226/2/3 204/2/3
f 231/2/3 223/2/3 227/2/3
f 232/2/3 207/2/3 223/2/3
f 232/2/3 223/2/3 231/2/3
f 233/2/3 229/2/3 228/2/3
f 233/2/3 228/2/3 204/2/3
f 234/2/3 229/2/3 233/2/3
f 235/2/3 231/2/3 230/2/3
f 236/2/3 231/2/3 235/2/3
f 237/2/3 207/2/3 232/2/3
f 238/2/3 233/2/3 204/2/3
f 239/2/3 237/2/3 236/2/3
f 240/2/3 238/2/3 204/2/3
f 240/2/3 239/2/3 238/2/3
f 241/2/3 237/2/3 239/2/3
f 241/2/3 239/2/3 240/2/3
f 241/2/3 207/2/3 237/2/3
f 244/2/3 240/2/3 204/2/3
f 245/2/3 243/2/3 242/2/3
f 246/2/3 243/2/3 245/2/3
f 247/2/3 207/2/3 241/2/3
f 248/2/3 245/2/3 244/2/3
f 249/2/3 247/2/3 246/2/3
f 250/2/3 244/2/3 204/2/3
f 250/2/3 249/2/3 248/2/3
f 250/2/3 248/2/3 244/2/3
f 251/2/3 249/2/3 250/2/3
f 252/2/3 249/2/3 251/2/3
f 253/2/3 249/2/3 252/2/3
f 254/2/3 247/2/3 249/2/3
f 254/2/3 249/2/3 253/2/3
f 255/2/3 207/2/3 247/2/3
f 255/2/3 247/2/3 254/2/3
f 256/2/3 254/2/3 253/2/3
f 257/2/3 254/2/3 256/2/3
f 263/2/3 259/2/3 258/2/3
f 264/2/3 259/2/3 263/2/3
f 265/2/3 261/2/3 260/2/3
f 266/2/3 261/2/3 265/2/3
f 268/2/3 263/2/3 262/2/3
f 269/2/3 263/2/3 268/2/3
f 270/2/3 267/2/3 266/2/3
f 271/2/3 267/2/3 270/2/3
f 274/2/3 273/2/3 272/2/3
f 275/2/3 273/2/3 274/2/3
f 279/2/3 276/2/3 275/2/3
f 280/2/3 276/2/3 279/2/3
f 281/2/3 278/2/3 277/2/3
f 282/2/3 278/2/3 281/2/3
f 283/2/4 284/2/4 286/2/4
f 286/2/4 284/2/4 287/2/4
f 285/2/4 286/2/4 289/2/4
f 287/2/4 288/2/4 289/2/4
f 286/2/4 287/2/4 289/2/4
f 289/2/4 288/2/4 290/2/4
f 290/2/4 288/2/4 291/2/4
f 291/2/4 288/2/4 292/2/4
f 290/2/4 291/2/4 293/2/4
f 293/2/4 291/2/4 294/2/4
f 298/2/5 296/2/5 295/2/5
f 299/2/5 296/2/5 298/2/5
f 301/2/5 298/2/5 297/2/5
f 301/2/5 300/2/5 299/2/5
f 301/2/5 299/2/5 298/2/5
f 302/2/5 300/2/5 301/2/5
f 315/1/5 304/1/5 303/1/5
f 316/1/5 304/1/5 315/1/5
f 317/1/5 306/1/5 305/1/5
f 318/1/5 306/1/5 317/1/5
f 319/1/5 308/1/5 307/1/5
f 320/1/5 308/1/5 319/1/5
f 321/1/5 310/1/5 309/1/5
f 322/1/5 310/1/5 321/1/5
f 323/1/5 312/1/5 311/1/5
f 324/1/5 312/1/5 323/1/5
f 328/2/5 314/2/5 313/2/5
f 329/2/5 314/2/5 328/2/5
f 330/2/5 326/2/5 325/2/5
f 331/2/5 326/2/5 330/2/5
f 333/2/5 328/2/5 327/2/5
f 334/2/5 328/2/5 333/2/5
f 335/2/5 332/2/5 331/2/5
f 336/2/5 332/2/5 335/2/5
f 345/1/5 338/1/5 337/1/5
f 346/1/5 338/1/5 345/1/5
f 347/1/5 340/1/5 339/1/5
f 348/1/5 340/1/5 347/1/5
f 349/1/5 342/1/5 341/1/5
f 350/1/5 342/1/5 349/1/5
f 353/2/5 344/2/5 343/2/5
f 354/2/5 344/2/5 353/2/5
f 355/2/5 352/2/5 351/2/5
f 356/2/5 352/2/5 355/2/5
f 359/1/5 358/1/5 357/1/5
f 360/1/5 358/1/5 359/1/5
f 367/1/5 362/1/5 361/1/5
f 368/1/5 362/1/5 367/1/5
f 369/1/5 364/1/5 363/1/5
f 370/1/5 364/1/5 369/1/5
f 371/1/5 366/1/5 365/1/5
f 372/1/5 366/1/5 371/1/5
f 373/1/6 374/1/6 379/1/6
f 379/1/6 374/1/6 380/1/6
f 375/1/6 376/1/6 381/1/6
f 381/1/6 376/1/6 382/1/6
f 377/1/6 378/1/6 383/1/6
f 383/1/6 378/1/6 384/1/6
f 385/1/6 386/1/6 387/1/6
f 387/1/6 386/1/6 388/1/6
f 389/1/6 390/1/6 401/1/6
f 401/1/6 390/1/6 402/1/6
f 391/1/6 392/1/6 403/1/6
f 403/1/6 392/1/6 404/1/6
f 393/1/6 394/1/6 405/1/6
f 405/1/6 394/1/6 406/1/6
f 395/1/6 396/1/6 407/1/6
f 407/1/6 396/1/6 408/1/6
f 397/1/6 398/1/6 409/1/6
f 409/1/6 398/1/6 410/1/6
f 399/2/6 400/2/6 413/2/6
f 413/2/6 400/2/6 414/2/6
f 411/2/6 412/2/6 415/2/6
f 415/2/6 412/2/6 416/2/6
f 417/1/6 418/1/6 427/1/6
f 427/1/6 418/1/6 428/1/6
f 419/1/6 420/1/6 429/1/6
f 429/1/6 420/1/6 430/1/6
f 421/1/6 422/1/6 431/1/6
f 431/1/6 422/1/6 432/1/6
f 423/1/6 424/1/6 433/1/6
f 433/1/6 424/1/6 434/1/6
f 425/2/6 426/2/6 436/2/6
f 436/2/6 426/2/6 437/2/6
f 435/2/6 436/2/6 440/2/6
f 440/2/6 436/2/6 441/2/6
f 438/2/6 439/2/6 442/2/6
f 442/2/6 439/2/6 443/2/6
f 444/2/6 445/2/6 447/2/6
f 446/2/6 447/2/6 448/2/6
f 447/2/6 445/2/6 449/2/6
f 448/2/6 447/2/6 449/2/6
