# MagicaVoxel @ Ephtracy

# group
g lvl1.1

# material
mtllib lvl1.1.mtl
usemtl palette

# normals
vn -1 0 0
vn 1 0 0
vn 0 0 1
vn 0 0 -1
vn 0 -1 0
vn 0 1 0

# texcoords
vt 0.970703 0.5
vt 0.974609 0.5

# verts
v -16 1 -0.5
v -16 1 -1.5
v -16 2 0.5
v -16 2 -0.5
v -16 5 0.5
v -16 5 -0.5
v -16 6 -0.5
v -16 6 -1.5
v -15 0 -0.5
v -15 0 -1.5
v -15 1 0.5
v -15 1 -0.5
v -15 1 -1.5
v -15 2 0.5
v -15 2 -0.5
v -15 5 0.5
v -15 5 -0.5
v -15 6 0.5
v -15 6 -0.5
v -15 6 -1.5
v -15 7 -0.5
v -15 7 -1.5
v -14 0 0.5
v -14 0 -0.5
v -14 1 0.5
v -14 1 -0.5
v -14 6 0.5
v -14 6 -0.5
v -14 7 0.5
v -14 7 -0.5
v -8 2 1.5
v -8 2 0.5
v -8 5 1.5
v -8 5 0.5
v -7 1 1.5
v -7 1 0.5
v -7 2 1.5
v -7 2 0.5
v -7 5 1.5
v -7 5 0.5
v -7 6 1.5
v -7 6 0.5
v -4 1 1.5
v -4 1 0.5
v -4 2 1.5
v -4 2 0.5
v -4 4 1.5
v -4 4 0.5
v -4 5 1.5
v -4 5 0.5
v -3 2 1.5
v -3 2 0.5
v -3 4 1.5
v -3 4 0.5
v -3 5 1.5
v -3 5 0.5
v -3 6 1.5
v -3 6 0.5
v 0 1 1.5
v 0 1 0.5
v 0 2 1.5
v 0 2 0.5
v 2 1 1.5
v 2 1 0.5
v 2 2 1.5
v 2 2 0.5
v 2 4 1.5
v 2 4 0.5
v 2 5 1.5
v 2 5 0.5
v 3 2 1.5
v 3 2 0.5
v 3 4 1.5
v 3 4 0.5
v 3 5 1.5
v 3 5 0.5
v 3 6 1.5
v 3 6 0.5
v 7 1 1.5
v 7 1 0.5
v 7 2 1.5
v 7 2 0.5
v 7 5 1.5
v 7 5 0.5
v 7 6 1.5
v 7 6 0.5
v 8 2 1.5
v 8 2 0.5
v 8 5 1.5
v 8 5 0.5
v -7 2 1.5
v -7 2 0.5
v -7 5 1.5
v -7 5 0.5
v -6 1 1.5
v -6 1 0.5
v -6 2 1.5
v -6 2 0.5
v -6 5 1.5
v -6 5 0.5
v -6 6 1.5
v -6 6 0.5
v -2 2 1.5
v -2 2 0.5
v -2 6 1.5
v -2 6 0.5
v -1 1 1.5
v -1 1 0.5
v -1 2 1.5
v -1 2 0.5
v 1 1 1.5
v 1 1 0.5
v 1 2 1.5
v 1 2 0.5
v 4 2 1.5
v 4 2 0.5
v 4 6 1.5
v 4 6 0.5
v 5 1 1.5
v 5 1 0.5
v 5 2 1.5
v 5 2 0.5
v 8 1 1.5
v 8 1 0.5
v 8 2 1.5
v 8 2 0.5
v 8 5 1.5
v 8 5 0.5
v 8 6 1.5
v 8 6 0.5
v 9 2 1.5
v 9 2 0.5
v 9 5 1.5
v 9 5 0.5
v 14 0 0.5
v 14 0 -0.5
v 14 1 0.5
v 14 1 -0.5
v 14 6 0.5
v 14 6 -0.5
v 14 7 0.5
v 14 7 -0.5
v 15 0 -0.5
v 15 0 -1.5
v 15 1 0.5
v 15 1 -0.5
v 15 1 -1.5
v 15 2 0.5
v 15 2 -0.5
v 15 5 0.5
v 15 5 -0.5
v 15 6 0.5
v 15 6 -0.5
v 15 6 -1.5
v 15 7 -0.5
v 15 7 -1.5
v 16 1 -0.5
v 16 1 -1.5
v 16 2 0.5
v 16 2 -0.5
v 16 5 0.5
v 16 5 -0.5
v 16 6 -0.5
v 16 6 -1.5
v -8 2 1.5
v -8 5 1.5
v -7 1 1.5
v -7 2 1.5
v -7 5 1.5
v -7 6 1.5
v -6 1 1.5
v -6 2 1.5
v -6 5 1.5
v -6 6 1.5
v -4 1 1.5
v -4 2 1.5
v -4 4 1.5
v -4 5 1.5
v -3 2 1.5
v -3 4 1.5
v -3 5 1.5
v -3 6 1.5
v -2 2 1.5
v -2 6 1.5
v -1 1 1.5
v -1 2 1.5
v 0 1 1.5
v 0 2 1.5
v 1 1 1.5
v 1 2 1.5
v 2 1 1.5
v 2 2 1.5
v 2 4 1.5
v 2 5 1.5
v 3 2 1.5
v 3 4 1.5
v 3 5 1.5
v 3 6 1.5
v 4 2 1.5
v 4 6 1.5
v 5 1 1.5
v 5 2 1.5
v 7 1 1.5
v 7 2 1.5
v 7 5 1.5
v 7 6 1.5
v 8 1 1.5
v 8 2 1.5
v 8 5 1.5
v 8 6 1.5
v 9 2 1.5
v 9 5 1.5
v -16 2 0.5
v -16 5 0.5
v -15 1 0.5
v -15 2 0.5
v -15 5 0.5
v -15 6 0.5
v -14 0 0.5
v -14 1 0.5
v -14 6 0.5
v -14 7 0.5
v -8 2 0.5
v -8 5 0.5
v -7 1 0.5
v -7 2 0.5
v -7 5 0.5
v -7 6 0.5
v -6 1 0.5
v -6 2 0.5
v -6 5 0.5
v -6 6 0.5
v -4 1 0.5
v -4 2 0.5
v -4 4 0.5
v -4 5 0.5
v -3 2 0.5
v -3 4 0.5
v -3 5 0.5
v -3 6 0.5
v -2 2 0.5
v -2 6 0.5
v -1 1 0.5
v -1 2 0.5
v 0 1 0.5
v 0 2 0.5
v 1 1 0.5
v 1 2 0.5
v 2 1 0.5
v 2 2 0.5
v 2 4 0.5
v 2 5 0.5
v 3 2 0.5
v 3 4 0.5
v 3 5 0.5
v 3 6 0.5
v 4 2 0.5
v 4 6 0.5
v 5 1 0.5
v 5 2 0.5
v 7 1 0.5
v 7 2 0.5
v 7 5 0.5
v 7 6 0.5
v 8 1 0.5
v 8 2 0.5
v 8 5 0.5
v 8 6 0.5
v 9 2 0.5
v 9 5 0.5
v 14 0 0.5
v 14 1 0.5
v 14 6 0.5
v 14 7 0.5
v 15 1 0.5
v 15 2 0.5
v 15 5 0.5
v 15 6 0.5
v 16 2 0.5
v 16 5 0.5
v -16 1 -0.5
v -16 2 -0.5
v -16 5 -0.5
v -16 6 -0.5
v -15 0 -0.5
v -15 1 -0.5
v -15 2 -0.5
v -15 5 -0.5
v -15 6 -0.5
v -15 7 -0.5
v -14 0 -0.5
v -14 1 -0.5
v -14 6 -0.5
v -14 7 -0.5
v 14 0 -0.5
v 14 1 -0.5
v 14 6 -0.5
v 14 7 -0.5
v 15 0 -0.5
v 15 1 -0.5
v 15 2 -0.5
v 15 5 -0.5
v 15 6 -0.5
v 15 7 -0.5
v 16 1 -0.5
v 16 2 -0.5
v 16 5 -0.5
v 16 6 -0.5
v -16 1 -1.5
v -16 6 -1.5
v -15 0 -1.5
v -15 1 -1.5
v -15 6 -1.5
v -15 7 -1.5
v 15 0 -1.5
v 15 1 -1.5
v 15 6 -1.5
v 15 7 -1.5
v 16 1 -1.5
v 16 6 -1.5
v -14 0 0.5
v 14 0 0.5
v -15 0 -0.5
v -14 0 -0.5
v 14 0 -0.5
v 15 0 -0.5
v -15 0 -1.5
v 15 0 -1.5
v -7 1 1.5
v -6 1 1.5
v -4 1 1.5
v -1 1 1.5
v 0 1 1.5
v 1 1 1.5
v 2 1 1.5
v 5 1 1.5
v 7 1 1.5
v 8 1 1.5
v -15 1 0.5
v -14 1 0.5
v -7 1 0.5
v -6 1 0.5
v -4 1 0.5
v -1 1 0.5
v 0 1 0.5
v 1 1 0.5
v 2 1 0.5
v 5 1 0.5
v 7 1 0.5
v 8 1 0.5
v 14 1 0.5
v 15 1 0.5
v -16 1 -0.5
v -15 1 -0.5
v -14 1 -0.5
v 14 1 -0.5
v 15 1 -0.5
v 16 1 -0.5
v -16 1 -1.5
v -15 1 -1.5
v 15 1 -1.5
v 16 1 -1.5
v -8 2 1.5
v -7 2 1.5
v 8 2 1.5
v 9 2 1.5
v -16 2 0.5
v -15 2 0.5
v -8 2 0.5
v -7 2 0.5
v 8 2 0.5
v 9 2 0.5
v 15 2 0.5
v 16 2 0.5
v -16 2 -0.5
v -15 2 -0.5
v 15 2 -0.5
v 16 2 -0.5
v -4 4 1.5
v -3 4 1.5
v 2 4 1.5
v 3 4 1.5
v -4 4 0.5
v -3 4 0.5
v 2 4 0.5
v 3 4 0.5
v -7 5 1.5
v -6 5 1.5
v 7 5 1.5
v 8 5 1.5
v -7 5 0.5
v -6 5 0.5
v 7 5 0.5
v 8 5 0.5
v -7 2 1.5
v -6 2 1.5
v -4 2 1.5
v -3 2 1.5
v -2 2 1.5
v -1 2 1.5
v 0 2 1.5
v 1 2 1.5
v 2 2 1.5
v 3 2 1.5
v 4 2 1.5
v 5 2 1.5
v 7 2 1.5
v 8 2 1.5
v -7 2 0.5
v -6 2 0.5
v -4 2 0.5
v -3 2 0.5
v -2 2 0.5
v -1 2 0.5
v 0 2 0.5
v 1 2 0.5
v 2 2 0.5
v 3 2 0.5
v 4 2 0.5
v 5 2 0.5
v 7 2 0.5
v 8 2 0.5
v -8 5 1.5
v -7 5 1.5
v -4 5 1.5
v -3 5 1.5
v 2 5 1.5
v 3 5 1.5
v 8 5 1.5
v 9 5 1.5
v -16 5 0.5
v -15 5 0.5
v -8 5 0.5
v -7 5 0.5
v -4 5 0.5
v -3 5 0.5
v 2 5 0.5
v 3 5 0.5
v 8 5 0.5
v 9 5 0.5
v 15 5 0.5
v 16 5 0.5
v -16 5 -0.5
v -15 5 -0.5
v 15 5 -0.5
v 16 5 -0.5
v -7 6 1.5
v -6 6 1.5
v -3 6 1.5
v -2 6 1.5
v 3 6 1.5
v 4 6 1.5
v 7 6 1.5
v 8 6 1.5
v -15 6 0.5
v -14 6 0.5
v -7 6 0.5
v -6 6 0.5
v -3 6 0.5
v -2 6 0.5
v 3 6 0.5
v 4 6 0.5
v 7 6 0.5
v 8 6 0.5
v 14 6 0.5
v 15 6 0.5
v -16 6 -0.5
v -15 6 -0.5
v -14 6 -0.5
v 14 6 -0.5
v 15 6 -0.5
v 16 6 -0.5
v -16 6 -1.5
v -15 6 -1.5
v 15 6 -1.5
v 16 6 -1.5
v -14 7 0.5
v 14 7 0.5
v -15 7 -0.5
v -14 7 -0.5
v 14 7 -0.5
v 15 7 -0.5
v -15 7 -1.5
v 15 7 -1.5

# faces
f 4/2/1 2/2/1 1/2/1
f 5/2/1 4/2/1 3/2/1
f 6/2/1 2/2/1 4/2/1
f 6/2/1 4/2/1 5/2/1
f 7/2/1 2/2/1 6/2/1
f 8/2/1 2/2/1 7/2/1
f 12/2/1 10/2/1 9/2/1
f 13/2/1 10/2/1 12/2/1
f 14/2/1 12/2/1 11/2/1
f 15/2/1 12/2/1 14/2/1
f 18/2/1 17/2/1 16/2/1
f 19/2/1 17/2/1 18/2/1
f 21/2/1 20/2/1 19/2/1
f 22/2/1 20/2/1 21/2/1
f 25/2/1 24/2/1 23/2/1
f 26/2/1 24/2/1 25/2/1
f 29/2/1 28/2/1 27/2/1
f 30/2/1 28/2/1 29/2/1
f 33/1/1 32/1/1 31/1/1
f 34/1/1 32/1/1 33/1/1
f 37/1/1 36/1/1 35/1/1
f 38/1/1 36/1/1 37/1/1
f 41/1/1 40/1/1 39/1/1
f 42/1/1 40/1/1 41/1/1
f 45/1/1 44/1/1 43/1/1
f 46/1/1 44/1/1 45/1/1
f 49/1/1 48/1/1 47/1/1
f 50/1/1 48/1/1 49/1/1
f 53/1/1 52/1/1 51/1/1
f 54/1/1 52/1/1 53/1/1
f 57/1/1 56/1/1 55/1/1
f 58/1/1 56/1/1 57/1/1
f 61/1/1 60/1/1 59/1/1
f 62/1/1 60/1/1 61/1/1
f 65/1/1 64/1/1 63/1/1
f 66/1/1 64/1/1 65/1/1
f 69/1/1 68/1/1 67/1/1
f 70/1/1 68/1/1 69/1/1
f 73/1/1 72/1/1 71/1/1
f 74/1/1 72/1/1 73/1/1
f 77/1/1 76/1/1 75/1/1
f 78/1/1 76/1/1 77/1/1
f 81/1/1 80/1/1 79/1/1
f 82/1/1 80/1/1 81/1/1
f 85/1/1 84/1/1 83/1/1
f 86/1/1 84/1/1 85/1/1
f 89/1/1 88/1/1 87/1/1
f 90/1/1 88/1/1 89/1/1
f 91/1/2 92/1/2 93/1/2
f 93/1/2 92/1/2 94/1/2
f 95/1/2 96/1/2 97/1/2
f 97/1/2 96/1/2 98/1/2
f 99/1/2 100/1/2 101/1/2
f 101/1/2 100/1/2 102/1/2
f 103/1/2 104/1/2 105/1/2
f 105/1/2 104/1/2 106/1/2
f 107/1/2 108/1/2 109/1/2
f 109/1/2 108/1/2 110/1/2
f 111/1/2 112/1/2 113/1/2
f 113/1/2 112/1/2 114/1/2
f 115/1/2 116/1/2 117/1/2
f 117/1/2 116/1/2 118/1/2
f 119/1/2 120/1/2 121/1/2
f 121/1/2 120/1/2 122/1/2
f 123/1/2 124/1/2 125/1/2
f 125/1/2 124/1/2 126/1/2
f 127/1/2 128/1/2 129/1/2
f 129/1/2 128/1/2 130/1/2
f 131/1/2 132/1/2 133/1/2
f 133/1/2 132/1/2 134/1/2
f 135/2/2 136/2/2 137/2/2
f 137/2/2 136/2/2 138/2/2
f 139/2/2 140/2/2 141/2/2
f 141/2/2 140/2/2 142/2/2
f 143/2/2 144/2/2 146/2/2
f 146/2/2 144/2/2 147/2/2
f 145/2/2 146/2/2 148/2/2
f 148/2/2 146/2/2 149/2/2
f 150/2/2 151/2/2 152/2/2
f 152/2/2 151/2/2 153/2/2
f 153/2/2 154/2/2 155/2/2
f 155/2/2 154/2/2 156/2/2
f 157/2/2 158/2/2 160/2/2
f 159/2/2 160/2/2 161/2/2
f 160/2/2 158/2/2 162/2/2
f 161/2/2 160/2/2 162/2/2
f 162/2/2 158/2/2 163/2/2
f 163/2/2 158/2/2 164/2/2
f 168/1/3 166/1/3 165/1/3
f 169/1/3 166/1/3 168/1/3
f 171/1/3 168/1/3 167/1/3
f 172/1/3 168/1/3 171/1/3
f 173/1/3 170/1/3 169/1/3
f 174/1/3 170/1/3 173/1/3
f 179/1/3 176/1/3 175/1/3
f 180/1/3 178/1/3 177/1/3
f 181/1/3 178/1/3 180/1/3
f 183/1/3 179/1/3 175/1/3
f 183/1/3 182/1/3 181/1/3
f 183/1/3 181/1/3 180/1/3
f 183/1/3 180/1/3 179/1/3
f 184/1/3 182/1/3 183/1/3
f 185/1/3 183/1/3 175/1/3
f 186/1/3 183/1/3 185/1/3
f 189/1/3 188/1/3 187/1/3
f 190/1/3 188/1/3 189/1/3
f 195/1/3 192/1/3 191/1/3
f 196/1/3 194/1/3 193/1/3
f 197/1/3 194/1/3 196/1/3
f 199/1/3 195/1/3 191/1/3
f 199/1/3 198/1/3 197/1/3
f 199/1/3 197/1/3 196/1/3
f 199/1/3 196/1/3 195/1/3
f 200/1/3 198/1/3 199/1/3
f 201/1/3 199/1/3 191/1/3
f 202/1/3 199/1/3 201/1/3
f 207/1/3 204/1/3 203/1/3
f 208/1/3 204/1/3 207/1/3
f 209/1/3 206/1/3 205/1/3
f 210/1/3 206/1/3 209/1/3
f 211/1/3 209/1/3 208/1/3
f 212/1/3 209/1/3 211/1/3
f 216/2/3 214/2/3 213/2/3
f 217/2/3 214/2/3 216/2/3
f 220/2/3 216/2/3 215/2/3
f 220/2/3 218/2/3 217/2/3
f 220/2/3 217/2/3 216/2/3
f 221/2/3 218/2/3 220/2/3
f 223/2/3 220/2/3 219/2/3
f 223/2/3 222/2/3 221/2/3
f 223/2/3 221/2/3 220/2/3
f 224/2/3 222/2/3 223/2/3
f 225/2/3 223/2/3 219/2/3
f 226/2/3 223/2/3 225/2/3
f 227/2/3 222/2/3 224/2/3
f 228/2/3 222/2/3 227/2/3
f 229/2/3 225/2/3 219/2/3
f 230/2/3 227/2/3 226/2/3
f 231/2/3 227/2/3 230/2/3
f 232/2/3 222/2/3 228/2/3
f 233/2/3 231/2/3 230/2/3
f 233/2/3 232/2/3 231/2/3
f 233/2/3 229/2/3 219/2/3
f 233/2/3 230/2/3 229/2/3
f 234/2/3 232/2/3 233/2/3
f 235/2/3 232/2/3 234/2/3
f 236/2/3 232/2/3 235/2/3
f 237/2/3 235/2/3 234/2/3
f 238/2/3 235/2/3 237/2/3
f 239/2/3 232/2/3 236/2/3
f 240/2/3 222/2/3 232/2/3
f 240/2/3 232/2/3 239/2/3
f 242/2/3 222/2/3 240/2/3
f 243/2/3 233/2/3 219/2/3
f 244/2/3 242/2/3 241/2/3
f 245/2/3 243/2/3 219/2/3
f 245/2/3 244/2/3 243/2/3
f 246/2/3 242/2/3 244/2/3
f 246/2/3 244/2/3 245/2/3
f 247/2/3 245/2/3 219/2/3
f 248/2/3 242/2/3 246/2/3
f 249/2/3 247/2/3 219/2/3
f 249/2/3 248/2/3 247/2/3
f 250/2/3 242/2/3 248/2/3
f 250/2/3 248/2/3 249/2/3
f 251/2/3 242/2/3 250/2/3
f 252/2/3 242/2/3 251/2/3
f 253/2/3 251/2/3 250/2/3
f 254/2/3 251/2/3 253/2/3
f 255/2/3 242/2/3 252/2/3
f 256/2/3 222/2/3 242/2/3
f 256/2/3 242/2/3 255/2/3
f 258/2/3 222/2/3 256/2/3
f 259/2/3 249/2/3 219/2/3
f 260/2/3 258/2/3 257/2/3
f 261/2/3 259/2/3 219/2/3
f 261/2/3 260/2/3 259/2/3
f 262/2/3 258/2/3 260/2/3
f 262/2/3 260/2/3 261/2/3
f 263/2/3 258/2/3 262/2/3
f 264/2/3 222/2/3 258/2/3
f 264/2/3 258/2/3 263/2/3
f 265/2/3 261/2/3 219/2/3
f 266/2/3 263/2/3 262/2/3
f 267/2/3 263/2/3 266/2/3
f 268/2/3 222/2/3 264/2/3
f 269/2/3 266/2/3 265/2/3
f 270/2/3 268/2/3 267/2/3
f 271/2/3 269/2/3 265/2/3
f 271/2/3 270/2/3 269/2/3
f 271/2/3 265/2/3 219/2/3
f 272/2/3 270/2/3 271/2/3
f 273/2/3 268/2/3 270/2/3
f 273/2/3 270/2/3 272/2/3
f 273/2/3 222/2/3 268/2/3
f 274/2/3 222/2/3 273/2/3
f 275/2/3 273/2/3 272/2/3
f 276/2/3 273/2/3 275/2/3
f 277/2/3 273/2/3 276/2/3
f 278/2/3 273/2/3 277/2/3
f 279/2/3 277/2/3 276/2/3
f 280/2/3 277/2/3 279/2/3
f 286/2/3 282/2/3 281/2/3
f 287/2/3 282/2/3 286/2/3
f 288/2/3 284/2/3 283/2/3
f 289/2/3 284/2/3 288/2/3
f 291/2/3 286/2/3 285/2/3
f 292/2/3 286/2/3 291/2/3
f 293/2/3 290/2/3 289/2/3
f 294/2/3 290/2/3 293/2/3
f 299/2/3 296/2/3 295/2/3
f 300/2/3 296/2/3 299/2/3
f 303/2/3 298/2/3 297/2/3
f 304/2/3 298/2/3 303/2/3
f 305/2/3 301/2/3 300/2/3
f 306/2/3 301/2/3 305/2/3
f 307/2/3 303/2/3 302/2/3
f 308/2/3 303/2/3 307/2/3
f 309/2/4 310/2/4 312/2/4
f 312/2/4 310/2/4 313/2/4
f 311/2/4 312/2/4 315/2/4
f 313/2/4 314/2/4 315/2/4
f 312/2/4 313/2/4 315/2/4
f 315/2/4 314/2/4 316/2/4
f 316/2/4 314/2/4 317/2/4
f 317/2/4 314/2/4 318/2/4
f 316/2/4 317/2/4 319/2/4
f 319/2/4 317/2/4 320/2/4
f 324/2/5 322/2/5 321/2/5
f 325/2/5 322/2/5 324/2/5
f 327/2/5 324/2/5 323/2/5
f 327/2/5 326/2/5 325/2/5
f 327/2/5 325/2/5 324/2/5
f 328/2/5 326/2/5 327/2/5
f 341/1/5 330/1/5 329/1/5
f 342/1/5 330/1/5 341/1/5
f 343/1/5 332/1/5 331/1/5
f 344/1/5 332/1/5 343/1/5
f 345/1/5 334/1/5 333/1/5
f 346/1/5 334/1/5 345/1/5
f 347/1/5 336/1/5 335/1/5
f 348/1/5 336/1/5 347/1/5
f 349/1/5 338/1/5 337/1/5
f 350/1/5 338/1/5 349/1/5
f 354/2/5 340/2/5 339/2/5
f 355/2/5 340/2/5 354/2/5
f 356/2/5 352/2/5 351/2/5
f 357/2/5 352/2/5 356/2/5
f 359/2/5 354/2/5 353/2/5
f 360/2/5 354/2/5 359/2/5
f 361/2/5 358/2/5 357/2/5
f 362/2/5 358/2/5 361/2/5
f 369/1/5 364/1/5 363/1/5
f 370/1/5 364/1/5 369/1/5
f 371/1/5 366/1/5 365/1/5
f 372/1/5 366/1/5 371/1/5
f 375/2/5 368/2/5 367/2/5
f 376/2/5 368/2/5 375/2/5
f 377/2/5 374/2/5 373/2/5
f 378/2/5 374/2/5 377/2/5
f 383/1/5 380/1/5 379/1/5
f 384/1/5 380/1/5 383/1/5
f 385/1/5 382/1/5 381/1/5
f 386/1/5 382/1/5 385/1/5
f 391/1/5 388/1/5 387/1/5
f 392/1/5 388/1/5 391/1/5
f 393/1/5 390/1/5 389/1/5
f 394/1/5 390/1/5 393/1/5
f 395/1/6 396/1/6 409/1/6
f 409/1/6 396/1/6 410/1/6
f 397/1/6 398/1/6 411/1/6
f 411/1/6 398/1/6 412/1/6
f 399/1/6 400/1/6 413/1/6
f 413/1/6 400/1/6 414/1/6
f 401/1/6 402/1/6 415/1/6
f 415/1/6 402/1/6 416/1/6
f 403/1/6 404/1/6 417/1/6
f 417/1/6 404/1/6 418/1/6
f 405/1/6 406/1/6 419/1/6
f 419/1/6 406/1/6 420/1/6
f 407/1/6 408/1/6 421/1/6
f 421/1/6 408/1/6 422/1/6
f 423/1/6 424/1/6 433/1/6
f 433/1/6 424/1/6 434/1/6
f 425/1/6 426/1/6 435/1/6
f 435/1/6 426/1/6 436/1/6
f 427/1/6 428/1/6 437/1/6
f 437/1/6 428/1/6 438/1/6
f 429/1/6 430/1/6 439/1/6
f 439/1/6 430/1/6 440/1/6
f 431/2/6 432/2/6 443/2/6
f 443/2/6 432/2/6 444/2/6
f 441/2/6 442/2/6 445/2/6
f 445/2/6 442/2/6 446/2/6
f 447/1/6 448/1/6 457/1/6
f 457/1/6 448/1/6 458/1/6
f 449/1/6 450/1/6 459/1/6
f 459/1/6 450/1/6 460/1/6
f 451/1/6 452/1/6 461/1/6
f 461/1/6 452/1/6 462/1/6
f 453/1/6 454/1/6 463/1/6
f 463/1/6 454/1/6 464/1/6
f 455/2/6 456/2/6 468/2/6
f 468/2/6 456/2/6 469/2/6
f 465/2/6 466/2/6 470/2/6
f 470/2/6 466/2/6 471/2/6
f 467/2/6 468/2/6 473/2/6
f 473/2/6 468/2/6 474/2/6
f 471/2/6 472/2/6 475/2/6
f 475/2/6 472/2/6 476/2/6
f 477/2/6 478/2/6 480/2/6
f 480/2/6 478/2/6 481/2/6
f 479/2/6 480/2/6 483/2/6
f 481/2/6 482/2/6 483/2/6
f 480/2/6 481/2/6 483/2/6
f 483/2/6 482/2/6 484/2/6
