# MagicaVoxel @ Ephtracy

# group
g name_input

# material
mtllib name_input.mtl
usemtl palette

# normals
vn -1 0 0
vn 1 0 0
vn 0 0 1
vn 0 0 -1
vn 0 -1 0
vn 0 1 0

# texcoords
vt 0.970703 0.5
vt 0.974609 0.5

# verts
v -16 1 -0.5
v -16 1 -1.5
v -16 2 0.5
v -16 2 -0.5
v -16 5 0.5
v -16 5 -0.5
v -16 6 -0.5
v -16 6 -1.5
v -15 0 -0.5
v -15 0 -1.5
v -15 1 0.5
v -15 1 -0.5
v -15 1 -1.5
v -15 2 0.5
v -15 2 -0.5
v -15 5 0.5
v -15 5 -0.5
v -15 6 0.5
v -15 6 -0.5
v -15 6 -1.5
v -15 7 -0.5
v -15 7 -1.5
v -14 0 0.5
v -14 0 -0.5
v -14 1 0.5
v -14 1 -0.5
v -14 6 0.5
v -14 6 -0.5
v -14 7 0.5
v -14 7 -0.5
v -13 2 1.5
v -13 2 0.5
v -13 5 1.5
v -13 5 0.5
v -12 1 1.5
v -12 1 0.5
v -12 2 1.5
v -12 2 0.5
v -12 5 1.5
v -12 5 0.5
v -12 6 1.5
v -12 6 0.5
v 11 1 1.5
v 11 1 0.5
v 11 2 1.5
v 11 2 0.5
v 11 5 1.5
v 11 5 0.5
v 11 6 1.5
v 11 6 0.5
v 12 2 1.5
v 12 2 0.5
v 12 5 1.5
v 12 5 0.5
v -12 2 1.5
v -12 2 0.5
v -12 5 1.5
v -12 5 0.5
v -11 1 1.5
v -11 1 0.5
v -11 2 1.5
v -11 2 0.5
v -11 5 1.5
v -11 5 0.5
v -11 6 1.5
v -11 6 0.5
v 12 1 1.5
v 12 1 0.5
v 12 2 1.5
v 12 2 0.5
v 12 5 1.5
v 12 5 0.5
v 12 6 1.5
v 12 6 0.5
v 13 2 1.5
v 13 2 0.5
v 13 5 1.5
v 13 5 0.5
v 14 0 0.5
v 14 0 -0.5
v 14 1 0.5
v 14 1 -0.5
v 14 6 0.5
v 14 6 -0.5
v 14 7 0.5
v 14 7 -0.5
v 15 0 -0.5
v 15 0 -1.5
v 15 1 0.5
v 15 1 -0.5
v 15 1 -1.5
v 15 2 0.5
v 15 2 -0.5
v 15 5 0.5
v 15 5 -0.5
v 15 6 0.5
v 15 6 -0.5
v 15 6 -1.5
v 15 7 -0.5
v 15 7 -1.5
v 16 1 -0.5
v 16 1 -1.5
v 16 2 0.5
v 16 2 -0.5
v 16 5 0.5
v 16 5 -0.5
v 16 6 -0.5
v 16 6 -1.5
v -13 2 1.5
v -13 5 1.5
v -12 1 1.5
v -12 2 1.5
v -12 5 1.5
v -12 6 1.5
v -11 1 1.5
v -11 2 1.5
v -11 5 1.5
v -11 6 1.5
v 11 1 1.5
v 11 2 1.5
v 11 5 1.5
v 11 6 1.5
v 12 1 1.5
v 12 2 1.5
v 12 5 1.5
v 12 6 1.5
v 13 2 1.5
v 13 5 1.5
v -16 2 0.5
v -16 5 0.5
v -15 1 0.5
v -15 2 0.5
v -15 5 0.5
v -15 6 0.5
v -14 0 0.5
v -14 1 0.5
v -14 6 0.5
v -14 7 0.5
v -13 2 0.5
v -13 5 0.5
v -12 1 0.5
v -12 2 0.5
v -12 5 0.5
v -12 6 0.5
v -11 1 0.5
v -11 2 0.5
v -11 5 0.5
v -11 6 0.5
v 11 1 0.5
v 11 2 0.5
v 11 5 0.5
v 11 6 0.5
v 12 1 0.5
v 12 2 0.5
v 12 5 0.5
v 12 6 0.5
v 13 2 0.5
v 13 5 0.5
v 14 0 0.5
v 14 1 0.5
v 14 6 0.5
v 14 7 0.5
v 15 1 0.5
v 15 2 0.5
v 15 5 0.5
v 15 6 0.5
v 16 2 0.5
v 16 5 0.5
v -16 1 -0.5
v -16 2 -0.5
v -16 5 -0.5
v -16 6 -0.5
v -15 0 -0.5
v -15 1 -0.5
v -15 2 -0.5
v -15 5 -0.5
v -15 6 -0.5
v -15 7 -0.5
v -14 0 -0.5
v -14 1 -0.5
v -14 6 -0.5
v -14 7 -0.5
v 14 0 -0.5
v 14 1 -0.5
v 14 6 -0.5
v 14 7 -0.5
v 15 0 -0.5
v 15 1 -0.5
v 15 2 -0.5
v 15 5 -0.5
v 15 6 -0.5
v 15 7 -0.5
v 16 1 -0.5
v 16 2 -0.5
v 16 5 -0.5
v 16 6 -0.5
v -16 1 -1.5
v -16 6 -1.5
v -15 0 -1.5
v -15 1 -1.5
v -15 6 -1.5
v -15 7 -1.5
v 15 0 -1.5
v 15 1 -1.5
v 15 6 -1.5
v 15 7 -1.5
v 16 1 -1.5
v 16 6 -1.5
v -14 0 0.5
v 14 0 0.5
v -15 0 -0.5
v -14 0 -0.5
v 14 0 -0.5
v 15 0 -0.5
v -15 0 -1.5
v 15 0 -1.5
v -12 1 1.5
v -11 1 1.5
v 11 1 1.5
v 12 1 1.5
v -15 1 0.5
v -14 1 0.5
v -12 1 0.5
v -11 1 0.5
v 11 1 0.5
v 12 1 0.5
v 14 1 0.5
v 15 1 0.5
v -16 1 -0.5
v -15 1 -0.5
v -14 1 -0.5
v 14 1 -0.5
v 15 1 -0.5
v 16 1 -0.5
v -16 1 -1.5
v -15 1 -1.5
v 15 1 -1.5
v 16 1 -1.5
v -13 2 1.5
v -12 2 1.5
v 12 2 1.5
v 13 2 1.5
v -16 2 0.5
v -15 2 0.5
v -13 2 0.5
v -12 2 0.5
v 12 2 0.5
v 13 2 0.5
v 15 2 0.5
v 16 2 0.5
v -16 2 -0.5
v -15 2 -0.5
v 15 2 -0.5
v 16 2 -0.5
v -12 5 1.5
v -11 5 1.5
v 11 5 1.5
v 12 5 1.5
v -12 5 0.5
v -11 5 0.5
v 11 5 0.5
v 12 5 0.5
v -12 2 1.5
v -11 2 1.5
v 11 2 1.5
v 12 2 1.5
v -12 2 0.5
v -11 2 0.5
v 11 2 0.5
v 12 2 0.5
v -13 5 1.5
v -12 5 1.5
v 12 5 1.5
v 13 5 1.5
v -16 5 0.5
v -15 5 0.5
v -13 5 0.5
v -12 5 0.5
v 12 5 0.5
v 13 5 0.5
v 15 5 0.5
v 16 5 0.5
v -16 5 -0.5
v -15 5 -0.5
v 15 5 -0.5
v 16 5 -0.5
v -12 6 1.5
v -11 6 1.5
v 11 6 1.5
v 12 6 1.5
v -15 6 0.5
v -14 6 0.5
v -12 6 0.5
v -11 6 0.5
v 11 6 0.5
v 12 6 0.5
v 14 6 0.5
v 15 6 0.5
v -16 6 -0.5
v -15 6 -0.5
v -14 6 -0.5
v 14 6 -0.5
v 15 6 -0.5
v 16 6 -0.5
v -16 6 -1.5
v -15 6 -1.5
v 15 6 -1.5
v 16 6 -1.5
v -14 7 0.5
v 14 7 0.5
v -15 7 -0.5
v -14 7 -0.5
v 14 7 -0.5
v 15 7 -0.5
v -15 7 -1.5
v 15 7 -1.5

# faces
f 4/2/1 2/2/1 1/2/1
f 5/2/1 4/2/1 3/2/1
f 6/2/1 2/2/1 4/2/1
f 6/2/1 4/2/1 5/2/1
f 7/2/1 2/2/1 6/2/1
f 8/2/1 2/2/1 7/2/1
f 12/2/1 10/2/1 9/2/1
f 13/2/1 10/2/1 12/2/1
f 14/2/1 12/2/1 11/2/1
f 15/2/1 12/2/1 14/2/1
f 18/2/1 17/2/1 16/2/1
f 19/2/1 17/2/1 18/2/1
f 21/2/1 20/2/1 19/2/1
f 22/2/1 20/2/1 21/2/1
f 25/2/1 24/2/1 23/2/1
f 26/2/1 24/2/1 25/2/1
f 29/2/1 28/2/1 27/2/1
f 30/2/1 28/2/1 29/2/1
f 33/1/1 32/1/1 31/1/1
f 34/1/1 32/1/1 33/1/1
f 37/1/1 36/1/1 35/1/1
f 38/1/1 36/1/1 37/1/1
f 41/1/1 40/1/1 39/1/1
f 42/1/1 40/1/1 41/1/1
f 45/1/1 44/1/1 43/1/1
f 46/1/1 44/1/1 45/1/1
f 49/1/1 48/1/1 47/1/1
f 50/1/1 48/1/1 49/1/1
f 53/1/1 52/1/1 51/1/1
f 54/1/1 52/1/1 53/1/1
f 55/1/2 56/1/2 57/1/2
f 57/1/2 56/1/2 58/1/2
f 59/1/2 60/1/2 61/1/2
f 61/1/2 60/1/2 62/1/2
f 63/1/2 64/1/2 65/1/2
f 65/1/2 64/1/2 66/1/2
f 67/1/2 68/1/2 69/1/2
f 69/1/2 68/1/2 70/1/2
f 71/1/2 72/1/2 73/1/2
f 73/1/2 72/1/2 74/1/2
f 75/1/2 76/1/2 77/1/2
f 77/1/2 76/1/2 78/1/2
f 79/2/2 80/2/2 81/2/2
f 81/2/2 80/2/2 82/2/2
f 83/2/2 84/2/2 85/2/2
f 85/2/2 84/2/2 86/2/2
f 87/2/2 88/2/2 90/2/2
f 90/2/2 88/2/2 91/2/2
f 89/2/2 90/2/2 92/2/2
f 92/2/2 90/2/2 93/2/2
f 94/2/2 95/2/2 96/2/2
f 96/2/2 95/2/2 97/2/2
f 97/2/2 98/2/2 99/2/2
f 99/2/2 98/2/2 100/2/2
f 101/2/2 102/2/2 104/2/2
f 103/2/2 104/2/2 105/2/2
f 104/2/2 102/2/2 106/2/2
f 105/2/2 104/2/2 106/2/2
f 106/2/2 102/2/2 107/2/2
f 107/2/2 102/2/2 108/2/2
f 112/1/3 110/1/3 109/1/3
f 113/1/3 110/1/3 112/1/3
f 115/1/3 112/1/3 111/1/3
f 116/1/3 112/1/3 115/1/3
f 117/1/3 114/1/3 113/1/3
f 118/1/3 114/1/3 117/1/3
f 123/1/3 120/1/3 119/1/3
f 124/1/3 120/1/3 123/1/3
f 125/1/3 122/1/3 121/1/3
f 126/1/3 122/1/3 125/1/3
f 127/1/3 125/1/3 124/1/3
f 128/1/3 125/1/3 127/1/3
f 132/2/3 130/2/3 129/2/3
f 133/2/3 130/2/3 132/2/3
f 136/2/3 132/2/3 131/2/3
f 136/2/3 134/2/3 133/2/3
f 136/2/3 133/2/3 132/2/3
f 137/2/3 134/2/3 136/2/3
f 139/2/3 136/2/3 135/2/3
f 139/2/3 138/2/3 137/2/3
f 139/2/3 137/2/3 136/2/3
f 140/2/3 138/2/3 139/2/3
f 141/2/3 139/2/3 135/2/3
f 142/2/3 139/2/3 141/2/3
f 143/2/3 138/2/3 140/2/3
f 144/2/3 138/2/3 143/2/3
f 145/2/3 141/2/3 135/2/3
f 146/2/3 143/2/3 142/2/3
f 147/2/3 143/2/3 146/2/3
f 148/2/3 138/2/3 144/2/3
f 149/2/3 147/2/3 146/2/3
f 149/2/3 148/2/3 147/2/3
f 149/2/3 145/2/3 135/2/3
f 149/2/3 146/2/3 145/2/3
f 150/2/3 148/2/3 149/2/3
f 151/2/3 148/2/3 150/2/3
f 152/2/3 138/2/3 148/2/3
f 152/2/3 148/2/3 151/2/3
f 153/2/3 149/2/3 135/2/3
f 154/2/3 151/2/3 150/2/3
f 155/2/3 151/2/3 154/2/3
f 156/2/3 138/2/3 152/2/3
f 157/2/3 154/2/3 153/2/3
f 158/2/3 156/2/3 155/2/3
f 159/2/3 153/2/3 135/2/3
f 159/2/3 158/2/3 157/2/3
f 159/2/3 157/2/3 153/2/3
f 160/2/3 158/2/3 159/2/3
f 161/2/3 156/2/3 158/2/3
f 161/2/3 158/2/3 160/2/3
f 161/2/3 138/2/3 156/2/3
f 162/2/3 138/2/3 161/2/3
f 163/2/3 161/2/3 160/2/3
f 164/2/3 161/2/3 163/2/3
f 165/2/3 161/2/3 164/2/3
f 166/2/3 161/2/3 165/2/3
f 167/2/3 165/2/3 164/2/3
f 168/2/3 165/2/3 167/2/3
f 174/2/3 170/2/3 169/2/3
f 175/2/3 170/2/3 174/2/3
f 176/2/3 172/2/3 171/2/3
f 177/2/3 172/2/3 176/2/3
f 179/2/3 174/2/3 173/2/3
f 180/2/3 174/2/3 179/2/3
f 181/2/3 178/2/3 177/2/3
f 182/2/3 178/2/3 181/2/3
f 187/2/3 184/2/3 183/2/3
f 188/2/3 184/2/3 187/2/3
f 191/2/3 186/2/3 185/2/3
f 192/2/3 186/2/3 191/2/3
f 193/2/3 189/2/3 188/2/3
f 194/2/3 189/2/3 193/2/3
f 195/2/3 191/2/3 190/2/3
f 196/2/3 191/2/3 195/2/3
f 197/2/4 198/2/4 200/2/4
f 200/2/4 198/2/4 201/2/4
f 199/2/4 200/2/4 203/2/4
f 201/2/4 202/2/4 203/2/4
f 200/2/4 201/2/4 203/2/4
f 203/2/4 202/2/4 204/2/4
f 204/2/4 202/2/4 205/2/4
f 205/2/4 202/2/4 206/2/4
f 204/2/4 205/2/4 207/2/4
f 207/2/4 205/2/4 208/2/4
f 212/2/5 210/2/5 209/2/5
f 213/2/5 210/2/5 212/2/5
f 215/2/5 212/2/5 211/2/5
f 215/2/5 214/2/5 213/2/5
f 215/2/5 213/2/5 212/2/5
f 216/2/5 214/2/5 215/2/5
f 223/1/5 218/1/5 217/1/5
f 224/1/5 218/1/5 223/1/5
f 225/1/5 220/1/5 219/1/5
f 226/1/5 220/1/5 225/1/5
f 230/2/5 222/2/5 221/2/5
f 231/2/5 222/2/5 230/2/5
f 232/2/5 228/2/5 227/2/5
f 233/2/5 228/2/5 232/2/5
f 235/2/5 230/2/5 229/2/5
f 236/2/5 230/2/5 235/2/5
f 237/2/5 234/2/5 233/2/5
f 238/2/5 234/2/5 237/2/5
f 245/1/5 240/1/5 239/1/5
f 246/1/5 240/1/5 245/1/5
f 247/1/5 242/1/5 241/1/5
f 248/1/5 242/1/5 247/1/5
f 251/2/5 244/2/5 243/2/5
f 252/2/5 244/2/5 251/2/5
f 253/2/5 250/2/5 249/2/5
f 254/2/5 250/2/5 253/2/5
f 259/1/5 256/1/5 255/1/5
f 260/1/5 256/1/5 259/1/5
f 261/1/5 258/1/5 257/1/5
f 262/1/5 258/1/5 261/1/5
f 263/1/6 264/1/6 267/1/6
f 267/1/6 264/1/6 268/1/6
f 265/1/6 266/1/6 269/1/6
f 269/1/6 266/1/6 270/1/6
f 271/1/6 272/1/6 277/1/6
f 277/1/6 272/1/6 278/1/6
f 273/1/6 274/1/6 279/1/6
f 279/1/6 274/1/6 280/1/6
f 275/2/6 276/2/6 283/2/6
f 283/2/6 276/2/6 284/2/6
f 281/2/6 282/2/6 285/2/6
f 285/2/6 282/2/6 286/2/6
f 287/1/6 288/1/6 293/1/6
f 293/1/6 288/1/6 294/1/6
f 289/1/6 290/1/6 295/1/6
f 295/1/6 290/1/6 296/1/6
f 291/2/6 292/2/6 300/2/6
f 300/2/6 292/2/6 301/2/6
f 297/2/6 298/2/6 302/2/6
f 302/2/6 298/2/6 303/2/6
f 299/2/6 300/2/6 305/2/6
f 305/2/6 300/2/6 306/2/6
f 303/2/6 304/2/6 307/2/6
f 307/2/6 304/2/6 308/2/6
f 309/2/6 310/2/6 312/2/6
f 312/2/6 310/2/6 313/2/6
f 311/2/6 312/2/6 315/2/6
f 313/2/6 314/2/6 315/2/6
f 312/2/6 313/2/6 315/2/6
f 315/2/6 314/2/6 316/2/6
