# MagicaVoxel @ Ephtracy

# group
g off

# material
mtllib off.mtl
usemtl palette

# normals
vn -1 0 0
vn 1 0 0
vn 0 0 1
vn 0 0 -1
vn 0 -1 0
vn 0 1 0

# texcoords
vt 0.970703 0.5
vt 0.974609 0.5

# verts
v -10 1 -0.5
v -10 1 -1.5
v -10 2 0.5
v -10 2 -0.5
v -10 5 0.5
v -10 5 -0.5
v -10 6 -0.5
v -10 6 -1.5
v -9 0 -0.5
v -9 0 -1.5
v -9 1 0.5
v -9 1 -0.5
v -9 1 -1.5
v -9 2 0.5
v -9 2 -0.5
v -9 5 0.5
v -9 5 -0.5
v -9 6 0.5
v -9 6 -0.5
v -9 6 -1.5
v -9 7 -0.5
v -9 7 -1.5
v -8 0 0.5
v -8 0 -0.5
v -8 1 0.5
v -8 1 -0.5
v -8 6 0.5
v -8 6 -0.5
v -8 7 0.5
v -8 7 -0.5
v -6 2 1.5
v -6 2 0.5
v -6 5 1.5
v -6 5 0.5
v -5 1 1.5
v -5 1 0.5
v -5 2 1.5
v -5 2 0.5
v -5 5 1.5
v -5 5 0.5
v -5 6 1.5
v -5 6 0.5
v -3 2 1.5
v -3 2 0.5
v -3 5 1.5
v -3 5 0.5
v -1 1 1.5
v -1 1 0.5
v -1 6 1.5
v -1 6 0.5
v 3 1 1.5
v 3 1 0.5
v 3 6 1.5
v 3 6 0.5
v -5 2 1.5
v -5 2 0.5
v -5 5 1.5
v -5 5 0.5
v -3 1 1.5
v -3 1 0.5
v -3 2 1.5
v -3 2 0.5
v -3 5 1.5
v -3 5 0.5
v -3 6 1.5
v -3 6 0.5
v -2 2 1.5
v -2 2 0.5
v -2 5 1.5
v -2 5 0.5
v 0 1 1.5
v 0 1 0.5
v 0 3 1.5
v 0 3 0.5
v 0 4 1.5
v 0 4 0.5
v 0 5 1.5
v 0 5 0.5
v 2 3 1.5
v 2 3 0.5
v 2 4 1.5
v 2 4 0.5
v 2 5 1.5
v 2 5 0.5
v 2 6 1.5
v 2 6 0.5
v 4 1 1.5
v 4 1 0.5
v 4 3 1.5
v 4 3 0.5
v 4 4 1.5
v 4 4 0.5
v 4 5 1.5
v 4 5 0.5
v 6 3 1.5
v 6 3 0.5
v 6 4 1.5
v 6 4 0.5
v 6 5 1.5
v 6 5 0.5
v 6 6 1.5
v 6 6 0.5
v 8 0 0.5
v 8 0 -0.5
v 8 1 0.5
v 8 1 -0.5
v 8 6 0.5
v 8 6 -0.5
v 8 7 0.5
v 8 7 -0.5
v 9 0 -0.5
v 9 0 -1.5
v 9 1 0.5
v 9 1 -0.5
v 9 1 -1.5
v 9 2 0.5
v 9 2 -0.5
v 9 5 0.5
v 9 5 -0.5
v 9 6 0.5
v 9 6 -0.5
v 9 6 -1.5
v 9 7 -0.5
v 9 7 -1.5
v 10 1 -0.5
v 10 1 -1.5
v 10 2 0.5
v 10 2 -0.5
v 10 5 0.5
v 10 5 -0.5
v 10 6 -0.5
v 10 6 -1.5
v -6 2 1.5
v -6 5 1.5
v -5 1 1.5
v -5 2 1.5
v -5 5 1.5
v -5 6 1.5
v -3 1 1.5
v -3 2 1.5
v -3 5 1.5
v -3 6 1.5
v -2 2 1.5
v -2 5 1.5
v -1 1 1.5
v -1 6 1.5
v 0 1 1.5
v 0 3 1.5
v 0 4 1.5
v 0 5 1.5
v 2 3 1.5
v 2 4 1.5
v 2 5 1.5
v 2 6 1.5
v 3 1 1.5
v 3 6 1.5
v 4 1 1.5
v 4 3 1.5
v 4 4 1.5
v 4 5 1.5
v 6 3 1.5
v 6 4 1.5
v 6 5 1.5
v 6 6 1.5
v -10 2 0.5
v -10 5 0.5
v -9 1 0.5
v -9 2 0.5
v -9 5 0.5
v -9 6 0.5
v -8 0 0.5
v -8 1 0.5
v -8 6 0.5
v -8 7 0.5
v -6 2 0.5
v -6 5 0.5
v -5 1 0.5
v -5 2 0.5
v -5 5 0.5
v -5 6 0.5
v -3 1 0.5
v -3 2 0.5
v -3 5 0.5
v -3 6 0.5
v -2 2 0.5
v -2 5 0.5
v -1 1 0.5
v -1 6 0.5
v 0 1 0.5
v 0 3 0.5
v 0 4 0.5
v 0 5 0.5
v 2 3 0.5
v 2 4 0.5
v 2 5 0.5
v 2 6 0.5
v 3 1 0.5
v 3 6 0.5
v 4 1 0.5
v 4 3 0.5
v 4 4 0.5
v 4 5 0.5
v 6 3 0.5
v 6 4 0.5
v 6 5 0.5
v 6 6 0.5
v 8 0 0.5
v 8 1 0.5
v 8 6 0.5
v 8 7 0.5
v 9 1 0.5
v 9 2 0.5
v 9 5 0.5
v 9 6 0.5
v 10 2 0.5
v 10 5 0.5
v -10 1 -0.5
v -10 2 -0.5
v -10 5 -0.5
v -10 6 -0.5
v -9 0 -0.5
v -9 1 -0.5
v -9 2 -0.5
v -9 5 -0.5
v -9 6 -0.5
v -9 7 -0.5
v -8 0 -0.5
v -8 1 -0.5
v -8 6 -0.5
v -8 7 -0.5
v 8 0 -0.5
v 8 1 -0.5
v 8 6 -0.5
v 8 7 -0.5
v 9 0 -0.5
v 9 1 -0.5
v 9 2 -0.5
v 9 5 -0.5
v 9 6 -0.5
v 9 7 -0.5
v 10 1 -0.5
v 10 2 -0.5
v 10 5 -0.5
v 10 6 -0.5
v -10 1 -1.5
v -10 6 -1.5
v -9 0 -1.5
v -9 1 -1.5
v -9 6 -1.5
v -9 7 -1.5
v 9 0 -1.5
v 9 1 -1.5
v 9 6 -1.5
v 9 7 -1.5
v 10 1 -1.5
v 10 6 -1.5
v -8 0 0.5
v 8 0 0.5
v -9 0 -0.5
v -8 0 -0.5
v 8 0 -0.5
v 9 0 -0.5
v -9 0 -1.5
v 9 0 -1.5
v -5 1 1.5
v -3 1 1.5
v -1 1 1.5
v 0 1 1.5
v 3 1 1.5
v 4 1 1.5
v -9 1 0.5
v -8 1 0.5
v -5 1 0.5
v -3 1 0.5
v -1 1 0.5
v 0 1 0.5
v 3 1 0.5
v 4 1 0.5
v 8 1 0.5
v 9 1 0.5
v -10 1 -0.5
v -9 1 -0.5
v -8 1 -0.5
v 8 1 -0.5
v 9 1 -0.5
v 10 1 -0.5
v -10 1 -1.5
v -9 1 -1.5
v 9 1 -1.5
v 10 1 -1.5
v -6 2 1.5
v -5 2 1.5
v -3 2 1.5
v -2 2 1.5
v -10 2 0.5
v -9 2 0.5
v -6 2 0.5
v -5 2 0.5
v -3 2 0.5
v -2 2 0.5
v 9 2 0.5
v 10 2 0.5
v -10 2 -0.5
v -9 2 -0.5
v 9 2 -0.5
v 10 2 -0.5
v 0 3 1.5
v 2 3 1.5
v 4 3 1.5
v 6 3 1.5
v 0 3 0.5
v 2 3 0.5
v 4 3 0.5
v 6 3 0.5
v -5 5 1.5
v -3 5 1.5
v 0 5 1.5
v 2 5 1.5
v 4 5 1.5
v 6 5 1.5
v -5 5 0.5
v -3 5 0.5
v 0 5 0.5
v 2 5 0.5
v 4 5 0.5
v 6 5 0.5
v -5 2 1.5
v -3 2 1.5
v -5 2 0.5
v -3 2 0.5
v 0 4 1.5
v 2 4 1.5
v 4 4 1.5
v 6 4 1.5
v 0 4 0.5
v 2 4 0.5
v 4 4 0.5
v 6 4 0.5
v -6 5 1.5
v -5 5 1.5
v -3 5 1.5
v -2 5 1.5
v -10 5 0.5
v -9 5 0.5
v -6 5 0.5
v -5 5 0.5
v -3 5 0.5
v -2 5 0.5
v 9 5 0.5
v 10 5 0.5
v -10 5 -0.5
v -9 5 -0.5
v 9 5 -0.5
v 10 5 -0.5
v -5 6 1.5
v -3 6 1.5
v -1 6 1.5
v 2 6 1.5
v 3 6 1.5
v 6 6 1.5
v -9 6 0.5
v -8 6 0.5
v -5 6 0.5
v -3 6 0.5
v -1 6 0.5
v 2 6 0.5
v 3 6 0.5
v 6 6 0.5
v 8 6 0.5
v 9 6 0.5
v -10 6 -0.5
v -9 6 -0.5
v -8 6 -0.5
v 8 6 -0.5
v 9 6 -0.5
v 10 6 -0.5
v -10 6 -1.5
v -9 6 -1.5
v 9 6 -1.5
v 10 6 -1.5
v -8 7 0.5
v 8 7 0.5
v -9 7 -0.5
v -8 7 -0.5
v 8 7 -0.5
v 9 7 -0.5
v -9 7 -1.5
v 9 7 -1.5

# faces
f 4/2/1 2/2/1 1/2/1
f 5/2/1 4/2/1 3/2/1
f 6/2/1 2/2/1 4/2/1
f 6/2/1 4/2/1 5/2/1
f 7/2/1 2/2/1 6/2/1
f 8/2/1 2/2/1 7/2/1
f 12/2/1 10/2/1 9/2/1
f 13/2/1 10/2/1 12/2/1
f 14/2/1 12/2/1 11/2/1
f 15/2/1 12/2/1 14/2/1
f 18/2/1 17/2/1 16/2/1
f 19/2/1 17/2/1 18/2/1
f 21/2/1 20/2/1 19/2/1
f 22/2/1 20/2/1 21/2/1
f 25/2/1 24/2/1 23/2/1
f 26/2/1 24/2/1 25/2/1
f 29/2/1 28/2/1 27/2/1
f 30/2/1 28/2/1 29/2/1
f 33/1/1 32/1/1 31/1/1
f 34/1/1 32/1/1 33/1/1
f 37/1/1 36/1/1 35/1/1
f 38/1/1 36/1/1 37/1/1
f 41/1/1 40/1/1 39/1/1
f 42/1/1 40/1/1 41/1/1
f 45/1/1 44/1/1 43/1/1
f 46/1/1 44/1/1 45/1/1
f 49/1/1 48/1/1 47/1/1
f 50/1/1 48/1/1 49/1/1
f 53/1/1 52/1/1 51/1/1
f 54/1/1 52/1/1 53/1/1
f 55/1/2 56/1/2 57/1/2
f 57/1/2 56/1/2 58/1/2
f 59/1/2 60/1/2 61/1/2
f 61/1/2 60/1/2 62/1/2
f 63/1/2 64/1/2 65/1/2
f 65/1/2 64/1/2 66/1/2
f 67/1/2 68/1/2 69/1/2
f 69/1/2 68/1/2 70/1/2
f 71/1/2 72/1/2 73/1/2
f 73/1/2 72/1/2 74/1/2
f 75/1/2 76/1/2 77/1/2
f 77/1/2 76/1/2 78/1/2
f 79/1/2 80/1/2 81/1/2
f 81/1/2 80/1/2 82/1/2
f 83/1/2 84/1/2 85/1/2
f 85/1/2 84/1/2 86/1/2
f 87/1/2 88/1/2 89/1/2
f 89/1/2 88/1/2 90/1/2
f 91/1/2 92/1/2 93/1/2
f 93/1/2 92/1/2 94/1/2
f 95/1/2 96/1/2 97/1/2
f 97/1/2 96/1/2 98/1/2
f 99/1/2 100/1/2 101/1/2
f 101/1/2 100/1/2 102/1/2
f 103/2/2 104/2/2 105/2/2
f 105/2/2 104/2/2 106/2/2
f 107/2/2 108/2/2 109/2/2
f 109/2/2 108/2/2 110/2/2
f 111/2/2 112/2/2 114/2/2
f 114/2/2 112/2/2 115/2/2
f 113/2/2 114/2/2 116/2/2
f 116/2/2 114/2/2 117/2/2
f 118/2/2 119/2/2 120/2/2
f 120/2/2 119/2/2 121/2/2
f 121/2/2 122/2/2 123/2/2
f 123/2/2 122/2/2 124/2/2
f 125/2/2 126/2/2 128/2/2
f 127/2/2 128/2/2 129/2/2
f 128/2/2 126/2/2 130/2/2
f 129/2/2 128/2/2 130/2/2
f 130/2/2 126/2/2 131/2/2
f 131/2/2 126/2/2 132/2/2
f 136/1/3 134/1/3 133/1/3
f 137/1/3 134/1/3 136/1/3
f 139/1/3 136/1/3 135/1/3
f 140/1/3 136/1/3 139/1/3
f 141/1/3 138/1/3 137/1/3
f 142/1/3 138/1/3 141/1/3
f 143/1/3 141/1/3 140/1/3
f 144/1/3 141/1/3 143/1/3
f 147/1/3 146/1/3 145/1/3
f 148/1/3 146/1/3 147/1/3
f 149/1/3 146/1/3 148/1/3
f 150/1/3 146/1/3 149/1/3
f 151/1/3 149/1/3 148/1/3
f 152/1/3 149/1/3 151/1/3
f 153/1/3 146/1/3 150/1/3
f 154/1/3 146/1/3 153/1/3
f 157/1/3 156/1/3 155/1/3
f 158/1/3 156/1/3 157/1/3
f 159/1/3 156/1/3 158/1/3
f 160/1/3 156/1/3 159/1/3
f 161/1/3 159/1/3 158/1/3
f 162/1/3 159/1/3 161/1/3
f 163/1/3 156/1/3 160/1/3
f 164/1/3 156/1/3 163/1/3
f 168/2/3 166/2/3 165/2/3
f 169/2/3 166/2/3 168/2/3
f 172/2/3 168/2/3 167/2/3
f 172/2/3 170/2/3 169/2/3
f 172/2/3 169/2/3 168/2/3
f 173/2/3 170/2/3 172/2/3
f 175/2/3 172/2/3 171/2/3
f 175/2/3 174/2/3 173/2/3
f 175/2/3 173/2/3 172/2/3
f 176/2/3 174/2/3 175/2/3
f 177/2/3 175/2/3 171/2/3
f 178/2/3 175/2/3 177/2/3
f 179/2/3 174/2/3 176/2/3
f 180/2/3 174/2/3 179/2/3
f 181/2/3 177/2/3 171/2/3
f 182/2/3 179/2/3 178/2/3
f 183/2/3 179/2/3 182/2/3
f 184/2/3 174/2/3 180/2/3
f 185/2/3 182/2/3 181/2/3
f 186/2/3 184/2/3 183/2/3
f 187/2/3 185/2/3 181/2/3
f 187/2/3 186/2/3 185/2/3
f 187/2/3 181/2/3 171/2/3
f 188/2/3 184/2/3 186/2/3
f 188/2/3 186/2/3 187/2/3
f 188/2/3 174/2/3 184/2/3
f 189/2/3 187/2/3 171/2/3
f 193/2/3 190/2/3 189/2/3
f 194/2/3 192/2/3 191/2/3
f 195/2/3 192/2/3 194/2/3
f 196/2/3 174/2/3 188/2/3
f 197/2/3 195/2/3 194/2/3
f 197/2/3 196/2/3 195/2/3
f 197/2/3 189/2/3 171/2/3
f 197/2/3 193/2/3 189/2/3
f 197/2/3 194/2/3 193/2/3
f 198/2/3 174/2/3 196/2/3
f 198/2/3 196/2/3 197/2/3
f 199/2/3 197/2/3 171/2/3
f 203/2/3 200/2/3 199/2/3
f 204/2/3 202/2/3 201/2/3
f 205/2/3 202/2/3 204/2/3
f 206/2/3 174/2/3 198/2/3
f 207/2/3 205/2/3 204/2/3
f 207/2/3 206/2/3 205/2/3
f 207/2/3 199/2/3 171/2/3
f 207/2/3 203/2/3 199/2/3
f 207/2/3 204/2/3 203/2/3
f 208/2/3 206/2/3 207/2/3
f 209/2/3 174/2/3 206/2/3
f 209/2/3 206/2/3 208/2/3
f 210/2/3 174/2/3 209/2/3
f 211/2/3 209/2/3 208/2/3
f 212/2/3 209/2/3 211/2/3
f 213/2/3 209/2/3 212/2/3
f 214/2/3 209/2/3 213/2/3
f 215/2/3 213/2/3 212/2/3
f 216/2/3 213/2/3 215/2/3
f 222/2/3 218/2/3 217/2/3
f 223/2/3 218/2/3 222/2/3
f 224/2/3 220/2/3 219/2/3
f 225/2/3 220/2/3 224/2/3
f 227/2/3 222/2/3 221/2/3
f 228/2/3 222/2/3 227/2/3
f 229/2/3 226/2/3 225/2/3
f 230/2/3 226/2/3 229/2/3
f 235/2/3 232/2/3 231/2/3
f 236/2/3 232/2/3 235/2/3
f 239/2/3 234/2/3 233/2/3
f 240/2/3 234/2/3 239/2/3
f 241/2/3 237/2/3 236/2/3
f 242/2/3 237/2/3 241/2/3
f 243/2/3 239/2/3 238/2/3
f 244/2/3 239/2/3 243/2/3
f 245/2/4 246/2/4 248/2/4
f 248/2/4 246/2/4 249/2/4
f 247/2/4 248/2/4 251/2/4
f 249/2/4 250/2/4 251/2/4
f 248/2/4 249/2/4 251/2/4
f 251/2/4 250/2/4 252/2/4
f 252/2/4 250/2/4 253/2/4
f 253/2/4 250/2/4 254/2/4
f 252/2/4 253/2/4 255/2/4
f 255/2/4 253/2/4 256/2/4
f 260/2/5 258/2/5 257/2/5
f 261/2/5 258/2/5 260/2/5
f 263/2/5 260/2/5 259/2/5
f 263/2/5 262/2/5 261/2/5
f 263/2/5 261/2/5 260/2/5
f 264/2/5 262/2/5 263/2/5
f 273/1/5 266/1/5 265/1/5
f 274/1/5 266/1/5 273/1/5
f 275/1/5 268/1/5 267/1/5
f 276/1/5 268/1/5 275/1/5
f 277/1/5 270/1/5 269/1/5
f 278/1/5 270/1/5 277/1/5
f 282/2/5 272/2/5 271/2/5
f 283/2/5 272/2/5 282/2/5
f 284/2/5 280/2/5 279/2/5
f 285/2/5 280/2/5 284/2/5
f 287/2/5 282/2/5 281/2/5
f 288/2/5 282/2/5 287/2/5
f 289/2/5 286/2/5 285/2/5
f 290/2/5 286/2/5 289/2/5
f 297/1/5 292/1/5 291/1/5
f 298/1/5 292/1/5 297/1/5
f 299/1/5 294/1/5 293/1/5
f 300/1/5 294/1/5 299/1/5
f 303/2/5 296/2/5 295/2/5
f 304/2/5 296/2/5 303/2/5
f 305/2/5 302/2/5 301/2/5
f 306/2/5 302/2/5 305/2/5
f 311/1/5 308/1/5 307/1/5
f 312/1/5 308/1/5 311/1/5
f 313/1/5 310/1/5 309/1/5
f 314/1/5 310/1/5 313/1/5
f 321/1/5 316/1/5 315/1/5
f 322/1/5 316/1/5 321/1/5
f 323/1/5 318/1/5 317/1/5
f 324/1/5 318/1/5 323/1/5
f 325/1/5 320/1/5 319/1/5
f 326/1/5 320/1/5 325/1/5
f 327/1/6 328/1/6 329/1/6
f 329/1/6 328/1/6 330/1/6
f 331/1/6 332/1/6 335/1/6
f 335/1/6 332/1/6 336/1/6
f 333/1/6 334/1/6 337/1/6
f 337/1/6 334/1/6 338/1/6
f 339/1/6 340/1/6 345/1/6
f 345/1/6 340/1/6 346/1/6
f 341/1/6 342/1/6 347/1/6
f 347/1/6 342/1/6 348/1/6
f 343/2/6 344/2/6 351/2/6
f 351/2/6 344/2/6 352/2/6
f 349/2/6 350/2/6 353/2/6
f 353/2/6 350/2/6 354/2/6
f 355/1/6 356/1/6 363/1/6
f 363/1/6 356/1/6 364/1/6
f 357/1/6 358/1/6 365/1/6
f 365/1/6 358/1/6 366/1/6
f 359/1/6 360/1/6 367/1/6
f 367/1/6 360/1/6 368/1/6
f 361/2/6 362/2/6 372/2/6
f 372/2/6 362/2/6 373/2/6
f 369/2/6 370/2/6 374/2/6
f 374/2/6 370/2/6 375/2/6
f 371/2/6 372/2/6 377/2/6
f 377/2/6 372/2/6 378/2/6
f 375/2/6 376/2/6 379/2/6
f 379/2/6 376/2/6 380/2/6
f 381/2/6 382/2/6 384/2/6
f 384/2/6 382/2/6 385/2/6
f 383/2/6 384/2/6 387/2/6
f 385/2/6 386/2/6 387/2/6
f 384/2/6 385/2/6 387/2/6
f 387/2/6 386/2/6 388/2/6
