# MagicaVoxel @ Ephtracy

# group
g on

# material
mtllib on.mtl
usemtl palette

# normals
vn -1 0 0
vn 1 0 0
vn 0 0 1
vn 0 0 -1
vn 0 -1 0
vn 0 1 0

# texcoords
vt 0.970703 0.5
vt 0.974609 0.5

# verts
v -10 1 -0.5
v -10 1 -1.5
v -10 2 0.5
v -10 2 -0.5
v -10 5 0.5
v -10 5 -0.5
v -10 6 -0.5
v -10 6 -1.5
v -9 0 -0.5
v -9 0 -1.5
v -9 1 0.5
v -9 1 -0.5
v -9 1 -1.5
v -9 2 0.5
v -9 2 -0.5
v -9 5 0.5
v -9 5 -0.5
v -9 6 0.5
v -9 6 -0.5
v -9 6 -1.5
v -9 7 -0.5
v -9 7 -1.5
v -8 0 0.5
v -8 0 -0.5
v -8 1 0.5
v -8 1 -0.5
v -8 6 0.5
v -8 6 -0.5
v -8 7 0.5
v -8 7 -0.5
v -5 2 1.5
v -5 2 0.5
v -5 5 1.5
v -5 5 0.5
v -4 1 1.5
v -4 1 0.5
v -4 2 1.5
v -4 2 0.5
v -4 5 1.5
v -4 5 0.5
v -4 6 1.5
v -4 6 0.5
v -2 2 1.5
v -2 2 0.5
v -2 5 1.5
v -2 5 0.5
v 0 1 1.5
v 0 1 0.5
v 0 6 1.5
v 0 6 0.5
v 2 3 1.5
v 2 3 0.5
v 2 4 1.5
v 2 4 0.5
v 3 1 1.5
v 3 1 0.5
v 3 3 1.5
v 3 3 0.5
v 3 4 1.5
v 3 4 0.5
v 3 6 1.5
v 3 6 0.5
v -4 2 1.5
v -4 2 0.5
v -4 5 1.5
v -4 5 0.5
v -2 1 1.5
v -2 1 0.5
v -2 2 1.5
v -2 2 0.5
v -2 5 1.5
v -2 5 0.5
v -2 6 1.5
v -2 6 0.5
v -1 2 1.5
v -1 2 0.5
v -1 5 1.5
v -1 5 0.5
v 1 1 1.5
v 1 1 0.5
v 1 4 1.5
v 1 4 0.5
v 1 5 1.5
v 1 5 0.5
v 1 6 1.5
v 1 6 0.5
v 2 4 1.5
v 2 4 0.5
v 2 5 1.5
v 2 5 0.5
v 4 1 1.5
v 4 1 0.5
v 4 6 1.5
v 4 6 0.5
v 8 0 0.5
v 8 0 -0.5
v 8 1 0.5
v 8 1 -0.5
v 8 6 0.5
v 8 6 -0.5
v 8 7 0.5
v 8 7 -0.5
v 9 0 -0.5
v 9 0 -1.5
v 9 1 0.5
v 9 1 -0.5
v 9 1 -1.5
v 9 2 0.5
v 9 2 -0.5
v 9 5 0.5
v 9 5 -0.5
v 9 6 0.5
v 9 6 -0.5
v 9 6 -1.5
v 9 7 -0.5
v 9 7 -1.5
v 10 1 -0.5
v 10 1 -1.5
v 10 2 0.5
v 10 2 -0.5
v 10 5 0.5
v 10 5 -0.5
v 10 6 -0.5
v 10 6 -1.5
v -5 2 1.5
v -5 5 1.5
v -4 1 1.5
v -4 2 1.5
v -4 5 1.5
v -4 6 1.5
v -2 1 1.5
v -2 2 1.5
v -2 5 1.5
v -2 6 1.5
v -1 2 1.5
v -1 5 1.5
v 0 1 1.5
v 0 6 1.5
v 1 1 1.5
v 1 4 1.5
v 1 5 1.5
v 1 6 1.5
v 2 3 1.5
v 2 4 1.5
v 2 5 1.5
v 3 1 1.5
v 3 3 1.5
v 3 4 1.5
v 3 6 1.5
v 4 1 1.5
v 4 6 1.5
v -10 2 0.5
v -10 5 0.5
v -9 1 0.5
v -9 2 0.5
v -9 5 0.5
v -9 6 0.5
v -8 0 0.5
v -8 1 0.5
v -8 6 0.5
v -8 7 0.5
v -5 2 0.5
v -5 5 0.5
v -4 1 0.5
v -4 2 0.5
v -4 5 0.5
v -4 6 0.5
v -2 1 0.5
v -2 2 0.5
v -2 5 0.5
v -2 6 0.5
v -1 2 0.5
v -1 5 0.5
v 0 1 0.5
v 0 6 0.5
v 1 1 0.5
v 1 4 0.5
v 1 5 0.5
v 1 6 0.5
v 2 3 0.5
v 2 4 0.5
v 2 5 0.5
v 3 1 0.5
v 3 3 0.5
v 3 4 0.5
v 3 6 0.5
v 4 1 0.5
v 4 6 0.5
v 8 0 0.5
v 8 1 0.5
v 8 6 0.5
v 8 7 0.5
v 9 1 0.5
v 9 2 0.5
v 9 5 0.5
v 9 6 0.5
v 10 2 0.5
v 10 5 0.5
v -10 1 -0.5
v -10 2 -0.5
v -10 5 -0.5
v -10 6 -0.5
v -9 0 -0.5
v -9 1 -0.5
v -9 2 -0.5
v -9 5 -0.5
v -9 6 -0.5
v -9 7 -0.5
v -8 0 -0.5
v -8 1 -0.5
v -8 6 -0.5
v -8 7 -0.5
v 8 0 -0.5
v 8 1 -0.5
v 8 6 -0.5
v 8 7 -0.5
v 9 0 -0.5
v 9 1 -0.5
v 9 2 -0.5
v 9 5 -0.5
v 9 6 -0.5
v 9 7 -0.5
v 10 1 -0.5
v 10 2 -0.5
v 10 5 -0.5
v 10 6 -0.5
v -10 1 -1.5
v -10 6 -1.5
v -9 0 -1.5
v -9 1 -1.5
v -9 6 -1.5
v -9 7 -1.5
v 9 0 -1.5
v 9 1 -1.5
v 9 6 -1.5
v 9 7 -1.5
v 10 1 -1.5
v 10 6 -1.5
v -8 0 0.5
v 8 0 0.5
v -9 0 -0.5
v -8 0 -0.5
v 8 0 -0.5
v 9 0 -0.5
v -9 0 -1.5
v 9 0 -1.5
v -4 1 1.5
v -2 1 1.5
v 0 1 1.5
v 1 1 1.5
v 3 1 1.5
v 4 1 1.5
v -9 1 0.5
v -8 1 0.5
v -4 1 0.5
v -2 1 0.5
v 0 1 0.5
v 1 1 0.5
v 3 1 0.5
v 4 1 0.5
v 8 1 0.5
v 9 1 0.5
v -10 1 -0.5
v -9 1 -0.5
v -8 1 -0.5
v 8 1 -0.5
v 9 1 -0.5
v 10 1 -0.5
v -10 1 -1.5
v -9 1 -1.5
v 9 1 -1.5
v 10 1 -1.5
v -5 2 1.5
v -4 2 1.5
v -2 2 1.5
v -1 2 1.5
v -10 2 0.5
v -9 2 0.5
v -5 2 0.5
v -4 2 0.5
v -2 2 0.5
v -1 2 0.5
v 9 2 0.5
v 10 2 0.5
v -10 2 -0.5
v -9 2 -0.5
v 9 2 -0.5
v 10 2 -0.5
v 2 3 1.5
v 3 3 1.5
v 2 3 0.5
v 3 3 0.5
v 1 4 1.5
v 2 4 1.5
v 1 4 0.5
v 2 4 0.5
v -4 5 1.5
v -2 5 1.5
v -4 5 0.5
v -2 5 0.5
v -4 2 1.5
v -2 2 1.5
v -4 2 0.5
v -2 2 0.5
v 2 4 1.5
v 3 4 1.5
v 2 4 0.5
v 3 4 0.5
v -5 5 1.5
v -4 5 1.5
v -2 5 1.5
v -1 5 1.5
v 1 5 1.5
v 2 5 1.5
v -10 5 0.5
v -9 5 0.5
v -5 5 0.5
v -4 5 0.5
v -2 5 0.5
v -1 5 0.5
v 1 5 0.5
v 2 5 0.5
v 9 5 0.5
v 10 5 0.5
v -10 5 -0.5
v -9 5 -0.5
v 9 5 -0.5
v 10 5 -0.5
v -4 6 1.5
v -2 6 1.5
v 0 6 1.5
v 1 6 1.5
v 3 6 1.5
v 4 6 1.5
v -9 6 0.5
v -8 6 0.5
v -4 6 0.5
v -2 6 0.5
v 0 6 0.5
v 1 6 0.5
v 3 6 0.5
v 4 6 0.5
v 8 6 0.5
v 9 6 0.5
v -10 6 -0.5
v -9 6 -0.5
v -8 6 -0.5
v 8 6 -0.5
v 9 6 -0.5
v 10 6 -0.5
v -10 6 -1.5
v -9 6 -1.5
v 9 6 -1.5
v 10 6 -1.5
v -8 7 0.5
v 8 7 0.5
v -9 7 -0.5
v -8 7 -0.5
v 8 7 -0.5
v 9 7 -0.5
v -9 7 -1.5
v 9 7 -1.5

# faces
f 4/2/1 2/2/1 1/2/1
f 5/2/1 4/2/1 3/2/1
f 6/2/1 2/2/1 4/2/1
f 6/2/1 4/2/1 5/2/1
f 7/2/1 2/2/1 6/2/1
f 8/2/1 2/2/1 7/2/1
f 12/2/1 10/2/1 9/2/1
f 13/2/1 10/2/1 12/2/1
f 14/2/1 12/2/1 11/2/1
f 15/2/1 12/2/1 14/2/1
f 18/2/1 17/2/1 16/2/1
f 19/2/1 17/2/1 18/2/1
f 21/2/1 20/2/1 19/2/1
f 22/2/1 20/2/1 21/2/1
f 25/2/1 24/2/1 23/2/1
f 26/2/1 24/2/1 25/2/1
f 29/2/1 28/2/1 27/2/1
f 30/2/1 28/2/1 29/2/1
f 33/1/1 32/1/1 31/1/1
f 34/1/1 32/1/1 33/1/1
f 37/1/1 36/1/1 35/1/1
f 38/1/1 36/1/1 37/1/1
f 41/1/1 40/1/1 39/1/1
f 42/1/1 40/1/1 41/1/1
f 45/1/1 44/1/1 43/1/1
f 46/1/1 44/1/1 45/1/1
f 49/1/1 48/1/1 47/1/1
f 50/1/1 48/1/1 49/1/1
f 53/1/1 52/1/1 51/1/1
f 54/1/1 52/1/1 53/1/1
f 57/1/1 56/1/1 55/1/1
f 58/1/1 56/1/1 57/1/1
f 61/1/1 60/1/1 59/1/1
f 62/1/1 60/1/1 61/1/1
f 63/1/2 64/1/2 65/1/2
f 65/1/2 64/1/2 66/1/2
f 67/1/2 68/1/2 69/1/2
f 69/1/2 68/1/2 70/1/2
f 71/1/2 72/1/2 73/1/2
f 73/1/2 72/1/2 74/1/2
f 75/1/2 76/1/2 77/1/2
f 77/1/2 76/1/2 78/1/2
f 79/1/2 80/1/2 81/1/2
f 81/1/2 80/1/2 82/1/2
f 83/1/2 84/1/2 85/1/2
f 85/1/2 84/1/2 86/1/2
f 87/1/2 88/1/2 89/1/2
f 89/1/2 88/1/2 90/1/2
f 91/1/2 92/1/2 93/1/2
f 93/1/2 92/1/2 94/1/2
f 95/2/2 96/2/2 97/2/2
f 97/2/2 96/2/2 98/2/2
f 99/2/2 100/2/2 101/2/2
f 101/2/2 100/2/2 102/2/2
f 103/2/2 104/2/2 106/2/2
f 106/2/2 104/2/2 107/2/2
f 105/2/2 106/2/2 108/2/2
f 108/2/2 106/2/2 109/2/2
f 110/2/2 111/2/2 112/2/2
f 112/2/2 111/2/2 113/2/2
f 113/2/2 114/2/2 115/2/2
f 115/2/2 114/2/2 116/2/2
f 117/2/2 118/2/2 120/2/2
f 119/2/2 120/2/2 121/2/2
f 120/2/2 118/2/2 122/2/2
f 121/2/2 120/2/2 122/2/2
f 122/2/2 118/2/2 123/2/2
f 123/2/2 118/2/2 124/2/2
f 128/1/3 126/1/3 125/1/3
f 129/1/3 126/1/3 128/1/3
f 131/1/3 128/1/3 127/1/3
f 132/1/3 128/1/3 131/1/3
f 133/1/3 130/1/3 129/1/3
f 134/1/3 130/1/3 133/1/3
f 135/1/3 133/1/3 132/1/3
f 136/1/3 133/1/3 135/1/3
f 139/1/3 138/1/3 137/1/3
f 140/1/3 138/1/3 139/1/3
f 141/1/3 138/1/3 140/1/3
f 142/1/3 138/1/3 141/1/3
f 144/1/3 141/1/3 140/1/3
f 145/1/3 141/1/3 144/1/3
f 147/1/3 144/1/3 143/1/3
f 148/1/3 144/1/3 147/1/3
f 150/1/3 148/1/3 147/1/3
f 150/1/3 149/1/3 148/1/3
f 150/1/3 147/1/3 146/1/3
f 151/1/3 149/1/3 150/1/3
f 155/2/3 153/2/3 152/2/3
f 156/2/3 153/2/3 155/2/3
f 159/2/3 155/2/3 154/2/3
f 159/2/3 157/2/3 156/2/3
f 159/2/3 156/2/3 155/2/3
f 160/2/3 157/2/3 159/2/3
f 162/2/3 159/2/3 158/2/3
f 162/2/3 161/2/3 160/2/3
f 162/2/3 160/2/3 159/2/3
f 163/2/3 161/2/3 162/2/3
f 164/2/3 162/2/3 158/2/3
f 165/2/3 162/2/3 164/2/3
f 166/2/3 161/2/3 163/2/3
f 167/2/3 161/2/3 166/2/3
f 168/2/3 164/2/3 158/2/3
f 169/2/3 166/2/3 165/2/3
f 170/2/3 166/2/3 169/2/3
f 171/2/3 161/2/3 167/2/3
f 172/2/3 169/2/3 168/2/3
f 173/2/3 171/2/3 170/2/3
f 174/2/3 172/2/3 168/2/3
f 174/2/3 173/2/3 172/2/3
f 174/2/3 168/2/3 158/2/3
f 175/2/3 171/2/3 173/2/3
f 175/2/3 173/2/3 174/2/3
f 175/2/3 161/2/3 171/2/3
f 176/2/3 174/2/3 158/2/3
f 179/2/3 161/2/3 175/2/3
f 180/2/3 177/2/3 176/2/3
f 181/2/3 177/2/3 180/2/3
f 182/2/3 179/2/3 178/2/3
f 183/2/3 176/2/3 158/2/3
f 183/2/3 180/2/3 176/2/3
f 184/2/3 180/2/3 183/2/3
f 185/2/3 182/2/3 181/2/3
f 186/2/3 179/2/3 182/2/3
f 186/2/3 182/2/3 185/2/3
f 186/2/3 161/2/3 179/2/3
f 187/2/3 183/2/3 158/2/3
f 188/2/3 161/2/3 186/2/3
f 189/2/3 187/2/3 158/2/3
f 189/2/3 188/2/3 187/2/3
f 190/2/3 188/2/3 189/2/3
f 191/2/3 161/2/3 188/2/3
f 191/2/3 188/2/3 190/2/3
f 192/2/3 161/2/3 191/2/3
f 193/2/3 191/2/3 190/2/3
f 194/2/3 191/2/3 193/2/3
f 195/2/3 191/2/3 194/2/3
f 196/2/3 191/2/3 195/2/3
f 197/2/3 195/2/3 194/2/3
f 198/2/3 195/2/3 197/2/3
f 204/2/3 200/2/3 199/2/3
f 205/2/3 200/2/3 204/2/3
f 206/2/3 202/2/3 201/2/3
f 207/2/3 202/2/3 206/2/3
f 209/2/3 204/2/3 203/2/3
f 210/2/3 204/2/3 209/2/3
f 211/2/3 208/2/3 207/2/3
f 212/2/3 208/2/3 211/2/3
f 217/2/3 214/2/3 213/2/3
f 218/2/3 214/2/3 217/2/3
f 221/2/3 216/2/3 215/2/3
f 222/2/3 216/2/3 221/2/3
f 223/2/3 219/2/3 218/2/3
f 224/2/3 219/2/3 223/2/3
f 225/2/3 221/2/3 220/2/3
f 226/2/3 221/2/3 225/2/3
f 227/2/4 228/2/4 230/2/4
f 230/2/4 228/2/4 231/2/4
f 229/2/4 230/2/4 233/2/4
f 231/2/4 232/2/4 233/2/4
f 230/2/4 231/2/4 233/2/4
f 233/2/4 232/2/4 234/2/4
f 234/2/4 232/2/4 235/2/4
f 235/2/4 232/2/4 236/2/4
f 234/2/4 235/2/4 237/2/4
f 237/2/4 235/2/4 238/2/4
f 242/2/5 240/2/5 239/2/5
f 243/2/5 240/2/5 242/2/5
f 245/2/5 242/2/5 241/2/5
f 245/2/5 244/2/5 243/2/5
f 245/2/5 243/2/5 242/2/5
f 246/2/5 244/2/5 245/2/5
f 255/1/5 248/1/5 247/1/5
f 256/1/5 248/1/5 255/1/5
f 257/1/5 250/1/5 249/1/5
f 258/1/5 250/1/5 257/1/5
f 259/1/5 252/1/5 251/1/5
f 260/1/5 252/1/5 259/1/5
f 264/2/5 254/2/5 253/2/5
f 265/2/5 254/2/5 264/2/5
f 266/2/5 262/2/5 261/2/5
f 267/2/5 262/2/5 266/2/5
f 269/2/5 264/2/5 263/2/5
f 270/2/5 264/2/5 269/2/5
f 271/2/5 268/2/5 267/2/5
f 272/2/5 268/2/5 271/2/5
f 279/1/5 274/1/5 273/1/5
f 280/1/5 274/1/5 279/1/5
f 281/1/5 276/1/5 275/1/5
f 282/1/5 276/1/5 281/1/5
f 285/2/5 278/2/5 277/2/5
f 286/2/5 278/2/5 285/2/5
f 287/2/5 284/2/5 283/2/5
f 288/2/5 284/2/5 287/2/5
f 291/1/5 290/1/5 289/1/5
f 292/1/5 290/1/5 291/1/5
f 295/1/5 294/1/5 293/1/5
f 296/1/5 294/1/5 295/1/5
f 299/1/5 298/1/5 297/1/5
f 300/1/5 298/1/5 299/1/5
f 301/1/6 302/1/6 303/1/6
f 303/1/6 302/1/6 304/1/6
f 305/1/6 306/1/6 307/1/6
f 307/1/6 306/1/6 308/1/6
f 309/1/6 310/1/6 317/1/6
f 317/1/6 310/1/6 318/1/6
f 311/1/6 312/1/6 319/1/6
f 319/1/6 312/1/6 320/1/6
f 313/1/6 314/1/6 321/1/6
f 321/1/6 314/1/6 322/1/6
f 315/2/6 316/2/6 325/2/6
f 325/2/6 316/2/6 326/2/6
f 323/2/6 324/2/6 327/2/6
f 327/2/6 324/2/6 328/2/6
f 329/1/6 330/1/6 337/1/6
f 337/1/6 330/1/6 338/1/6
f 331/1/6 332/1/6 339/1/6
f 339/1/6 332/1/6 340/1/6
f 333/1/6 334/1/6 341/1/6
f 341/1/6 334/1/6 342/1/6
f 335/2/6 336/2/6 346/2/6
f 346/2/6 336/2/6 347/2/6
f 343/2/6 344/2/6 348/2/6
f 348/2/6 344/2/6 349/2/6
f 345/2/6 346/2/6 351/2/6
f 351/2/6 346/2/6 352/2/6
f 349/2/6 350/2/6 353/2/6
f 353/2/6 350/2/6 354/2/6
f 355/2/6 356/2/6 358/2/6
f 358/2/6 356/2/6 359/2/6
f 357/2/6 358/2/6 361/2/6
f 359/2/6 360/2/6 361/2/6
f 358/2/6 359/2/6 361/2/6
f 361/2/6 360/2/6 362/2/6
