# MagicaVoxel @ Ephtracy

# group
g score_board

# material
mtllib score_board.mtl
usemtl palette

# normals
vn -1 0 0
vn 1 0 0
vn 0 0 1
vn 0 0 -1
vn 0 -1 0
vn 0 1 0

# texcoords
vt 0.970703 0.5
vt 0.974609 0.5

# verts
v -16 1 -0.5
v -16 1 -1.5
v -16 2 0.5
v -16 2 -0.5
v -16 5 0.5
v -16 5 -0.5
v -16 6 -0.5
v -16 6 -1.5
v -15 0 -0.5
v -15 0 -1.5
v -15 1 0.5
v -15 1 -0.5
v -15 1 -1.5
v -15 2 0.5
v -15 2 -0.5
v -15 5 0.5
v -15 5 -0.5
v -15 6 0.5
v -15 6 -0.5
v -15 6 -1.5
v -15 7 -0.5
v -15 7 -1.5
v -14 0 0.5
v -14 0 -0.5
v -14 1 0.5
v -14 1 -0.5
v -14 6 0.5
v -14 6 -0.5
v -14 7 0.5
v -14 7 -0.5
v -12 1 1.5
v -12 1 0.5
v -12 2 1.5
v -12 2 0.5
v -12 4 1.5
v -12 4 0.5
v -12 5 1.5
v -12 5 0.5
v -11 3 1.5
v -11 3 0.5
v -11 4 1.5
v -11 4 0.5
v -11 5 1.5
v -11 5 0.5
v -11 6 1.5
v -11 6 0.5
v -9 2 1.5
v -9 2 0.5
v -9 3 1.5
v -9 3 0.5
v -7 2 1.5
v -7 2 0.5
v -7 5 1.5
v -7 5 0.5
v -6 1 1.5
v -6 1 0.5
v -6 2 1.5
v -6 2 0.5
v -6 5 1.5
v -6 5 0.5
v -6 6 1.5
v -6 6 0.5
v -2 2 1.5
v -2 2 0.5
v -2 5 1.5
v -2 5 0.5
v -1 1 1.5
v -1 1 0.5
v -1 2 1.5
v -1 2 0.5
v -1 5 1.5
v -1 5 0.5
v -1 6 1.5
v -1 6 0.5
v 1 2 1.5
v 1 2 0.5
v 1 5 1.5
v 1 5 0.5
v 3 1 1.5
v 3 1 0.5
v 3 6 1.5
v 3 6 0.5
v 6 1 1.5
v 6 1 0.5
v 6 3 1.5
v 6 3 0.5
v 6 4 1.5
v 6 4 0.5
v 6 5 1.5
v 6 5 0.5
v 8 1 1.5
v 8 1 0.5
v 8 6 1.5
v 8 6 0.5
v -11 4 1.5
v -11 4 0.5
v -11 5 1.5
v -11 5 0.5
v -9 1 1.5
v -9 1 0.5
v -9 2 1.5
v -9 2 0.5
v -9 3 1.5
v -9 3 0.5
v -9 4 1.5
v -9 4 0.5
v -8 2 1.5
v -8 2 0.5
v -8 3 1.5
v -8 3 0.5
v -8 5 1.5
v -8 5 0.5
v -8 6 1.5
v -8 6 0.5
v -6 2 1.5
v -6 2 0.5
v -6 5 1.5
v -6 5 0.5
v -3 1 1.5
v -3 1 0.5
v -3 2 1.5
v -3 2 0.5
v -3 5 1.5
v -3 5 0.5
v -3 6 1.5
v -3 6 0.5
v -1 2 1.5
v -1 2 0.5
v -1 5 1.5
v -1 5 0.5
v 1 1 1.5
v 1 1 0.5
v 1 2 1.5
v 1 2 0.5
v 1 5 1.5
v 1 5 0.5
v 1 6 1.5
v 1 6 0.5
v 2 2 1.5
v 2 2 0.5
v 2 5 1.5
v 2 5 0.5
v 4 1 1.5
v 4 1 0.5
v 4 3 1.5
v 4 3 0.5
v 4 4 1.5
v 4 4 0.5
v 4 5 1.5
v 4 5 0.5
v 6 3 1.5
v 6 3 0.5
v 6 4 1.5
v 6 4 0.5
v 6 5 1.5
v 6 5 0.5
v 6 6 1.5
v 6 6 0.5
v 7 1 1.5
v 7 1 0.5
v 7 3 1.5
v 7 3 0.5
v 7 4 1.5
v 7 4 0.5
v 7 5 1.5
v 7 5 0.5
v 9 2 1.5
v 9 2 0.5
v 9 3 1.5
v 9 3 0.5
v 9 4 1.5
v 9 4 0.5
v 9 5 1.5
v 9 5 0.5
v 11 1 1.5
v 11 1 0.5
v 11 2 1.5
v 11 2 0.5
v 11 3 1.5
v 11 3 0.5
v 11 4 1.5
v 11 4 0.5
v 11 5 1.5
v 11 5 0.5
v 11 6 1.5
v 11 6 0.5
v 14 0 0.5
v 14 0 -0.5
v 14 1 0.5
v 14 1 -0.5
v 15 0 -0.5
v 15 0 -1.5
v 15 1 0.5
v 15 1 -0.5
v 15 1 -1.5
v 15 2 0.5
v 15 2 -0.5
v 15 5 0.5
v 15 5 -0.5
v 15 6 -0.5
v 15 6 -1.5
v 15 7 0.5
v 15 7 -1.5
v 16 1 -0.5
v 16 1 -1.5
v 16 2 0.5
v 16 2 -0.5
v 16 5 0.5
v 16 5 -0.5
v 16 6 -0.5
v 16 6 -1.5
v -12 1 1.5
v -12 2 1.5
v -12 4 1.5
v -12 5 1.5
v -11 3 1.5
v -11 4 1.5
v -11 5 1.5
v -11 6 1.5
v -9 1 1.5
v -9 2 1.5
v -9 3 1.5
v -9 4 1.5
v -8 2 1.5
v -8 3 1.5
v -8 5 1.5
v -8 6 1.5
v -7 2 1.5
v -7 5 1.5
v -6 1 1.5
v -6 2 1.5
v -6 5 1.5
v -6 6 1.5
v -3 1 1.5
v -3 2 1.5
v -3 5 1.5
v -3 6 1.5
v -2 2 1.5
v -2 5 1.5
v -1 1 1.5
v -1 2 1.5
v -1 5 1.5
v -1 6 1.5
v 1 1 1.5
v 1 2 1.5
v 1 5 1.5
v 1 6 1.5
v 2 2 1.5
v 2 5 1.5
v 3 1 1.5
v 3 6 1.5
v 4 1 1.5
v 4 3 1.5
v 4 4 1.5
v 4 5 1.5
v 6 1 1.5
v 6 3 1.5
v 6 4 1.5
v 6 5 1.5
v 6 6 1.5
v 7 1 1.5
v 7 3 1.5
v 7 4 1.5
v 7 5 1.5
v 8 1 1.5
v 8 6 1.5
v 9 2 1.5
v 9 3 1.5
v 9 4 1.5
v 9 5 1.5
v 11 1 1.5
v 11 2 1.5
v 11 3 1.5
v 11 4 1.5
v 11 5 1.5
v 11 6 1.5
v -16 2 0.5
v -16 5 0.5
v -15 1 0.5
v -15 2 0.5
v -15 5 0.5
v -15 6 0.5
v -14 0 0.5
v -14 1 0.5
v -14 6 0.5
v -14 7 0.5
v -12 1 0.5
v -12 2 0.5
v -12 4 0.5
v -12 5 0.5
v -11 3 0.5
v -11 4 0.5
v -11 5 0.5
v -11 6 0.5
v -9 1 0.5
v -9 2 0.5
v -9 3 0.5
v -9 4 0.5
v -8 2 0.5
v -8 3 0.5
v -8 5 0.5
v -8 6 0.5
v -7 2 0.5
v -7 5 0.5
v -6 1 0.5
v -6 2 0.5
v -6 5 0.5
v -6 6 0.5
v -3 1 0.5
v -3 2 0.5
v -3 5 0.5
v -3 6 0.5
v -2 2 0.5
v -2 5 0.5
v -1 1 0.5
v -1 2 0.5
v -1 5 0.5
v -1 6 0.5
v 1 1 0.5
v 1 2 0.5
v 1 5 0.5
v 1 6 0.5
v 2 2 0.5
v 2 5 0.5
v 3 1 0.5
v 3 6 0.5
v 4 1 0.5
v 4 3 0.5
v 4 4 0.5
v 4 5 0.5
v 6 1 0.5
v 6 3 0.5
v 6 4 0.5
v 6 5 0.5
v 6 6 0.5
v 7 1 0.5
v 7 3 0.5
v 7 4 0.5
v 7 5 0.5
v 8 1 0.5
v 8 6 0.5
v 9 2 0.5
v 9 3 0.5
v 9 4 0.5
v 9 5 0.5
v 11 1 0.5
v 11 2 0.5
v 11 3 0.5
v 11 4 0.5
v 11 5 0.5
v 11 6 0.5
v 14 0 0.5
v 14 1 0.5
v 15 1 0.5
v 15 2 0.5
v 15 5 0.5
v 15 7 0.5
v 16 2 0.5
v 16 5 0.5
v -16 1 -0.5
v -16 2 -0.5
v -16 5 -0.5
v -16 6 -0.5
v -15 0 -0.5
v -15 1 -0.5
v -15 2 -0.5
v -15 5 -0.5
v -15 6 -0.5
v -15 7 -0.5
v -14 0 -0.5
v -14 1 -0.5
v -14 6 -0.5
v -14 7 -0.5
v 14 0 -0.5
v 14 1 -0.5
v 15 0 -0.5
v 15 1 -0.5
v 15 2 -0.5
v 15 5 -0.5
v 15 6 -0.5
v 16 1 -0.5
v 16 2 -0.5
v 16 5 -0.5
v 16 6 -0.5
v -16 1 -1.5
v -16 6 -1.5
v -15 0 -1.5
v -15 1 -1.5
v -15 6 -1.5
v -15 7 -1.5
v 15 0 -1.5
v 15 1 -1.5
v 15 6 -1.5
v 15 7 -1.5
v 16 1 -1.5
v 16 6 -1.5
v -14 0 0.5
v 14 0 0.5
v -15 0 -0.5
v -14 0 -0.5
v 14 0 -0.5
v 15 0 -0.5
v -15 0 -1.5
v 15 0 -1.5
v -12 1 1.5
v -9 1 1.5
v -6 1 1.5
v -3 1 1.5
v -1 1 1.5
v 1 1 1.5
v 3 1 1.5
v 4 1 1.5
v 6 1 1.5
v 7 1 1.5
v 8 1 1.5
v 11 1 1.5
v -15 1 0.5
v -14 1 0.5
v -12 1 0.5
v -9 1 0.5
v -6 1 0.5
v -3 1 0.5
v -1 1 0.5
v 1 1 0.5
v 3 1 0.5
v 4 1 0.5
v 6 1 0.5
v 7 1 0.5
v 8 1 0.5
v 11 1 0.5
v 14 1 0.5
v 15 1 0.5
v -16 1 -0.5
v -15 1 -0.5
v -14 1 -0.5
v 14 1 -0.5
v 15 1 -0.5
v 16 1 -0.5
v -16 1 -1.5
v -15 1 -1.5
v 15 1 -1.5
v 16 1 -1.5
v -9 2 1.5
v -8 2 1.5
v -7 2 1.5
v -6 2 1.5
v -2 2 1.5
v -1 2 1.5
v 1 2 1.5
v 2 2 1.5
v -16 2 0.5
v -15 2 0.5
v -9 2 0.5
v -8 2 0.5
v -7 2 0.5
v -6 2 0.5
v -2 2 0.5
v -1 2 0.5
v 1 2 0.5
v 2 2 0.5
v 15 2 0.5
v 16 2 0.5
v -16 2 -0.5
v -15 2 -0.5
v 15 2 -0.5
v 16 2 -0.5
v -11 3 1.5
v -9 3 1.5
v 4 3 1.5
v 6 3 1.5
v 9 3 1.5
v 11 3 1.5
v -11 3 0.5
v -9 3 0.5
v 4 3 0.5
v 6 3 0.5
v 9 3 0.5
v 11 3 0.5
v -12 4 1.5
v -11 4 1.5
v 6 4 1.5
v 7 4 1.5
v -12 4 0.5
v -11 4 0.5
v 6 4 0.5
v 7 4 0.5
v -11 5 1.5
v -8 5 1.5
v -6 5 1.5
v -3 5 1.5
v -1 5 1.5
v 1 5 1.5
v 4 5 1.5
v 6 5 1.5
v 9 5 1.5
v 11 5 1.5
v -11 5 0.5
v -8 5 0.5
v -6 5 0.5
v -3 5 0.5
v -1 5 0.5
v 1 5 0.5
v 4 5 0.5
v 6 5 0.5
v 9 5 0.5
v 11 5 0.5
v -12 2 1.5
v -9 2 1.5
v -6 2 1.5
v -3 2 1.5
v -1 2 1.5
v 1 2 1.5
v 9 2 1.5
v 11 2 1.5
v -12 2 0.5
v -9 2 0.5
v -6 2 0.5
v -3 2 0.5
v -1 2 0.5
v 1 2 0.5
v 9 2 0.5
v 11 2 0.5
v -9 3 1.5
v -8 3 1.5
v 6 3 1.5
v 7 3 1.5
v -9 3 0.5
v -8 3 0.5
v 6 3 0.5
v 7 3 0.5
v -11 4 1.5
v -9 4 1.5
v 4 4 1.5
v 6 4 1.5
v 9 4 1.5
v 11 4 1.5
v -11 4 0.5
v -9 4 0.5
v 4 4 0.5
v 6 4 0.5
v 9 4 0.5
v 11 4 0.5
v -12 5 1.5
v -11 5 1.5
v -7 5 1.5
v -6 5 1.5
v -2 5 1.5
v -1 5 1.5
v 1 5 1.5
v 2 5 1.5
v 6 5 1.5
v 7 5 1.5
v -16 5 0.5
v -15 5 0.5
v -12 5 0.5
v -11 5 0.5
v -7 5 0.5
v -6 5 0.5
v -2 5 0.5
v -1 5 0.5
v 1 5 0.5
v 2 5 0.5
v 6 5 0.5
v 7 5 0.5
v 15 5 0.5
v 16 5 0.5
v -16 5 -0.5
v -15 5 -0.5
v 15 5 -0.5
v 16 5 -0.5
v -11 6 1.5
v -8 6 1.5
v -6 6 1.5
v -3 6 1.5
v -1 6 1.5
v 1 6 1.5
v 3 6 1.5
v 6 6 1.5
v 8 6 1.5
v 11 6 1.5
v -15 6 0.5
v -14 6 0.5
v -11 6 0.5
v -8 6 0.5
v -6 6 0.5
v -3 6 0.5
v -1 6 0.5
v 1 6 0.5
v 3 6 0.5
v 6 6 0.5
v 8 6 0.5
v 11 6 0.5
v -16 6 -0.5
v -15 6 -0.5
v -14 6 -0.5
v 15 6 -0.5
v 16 6 -0.5
v -16 6 -1.5
v -15 6 -1.5
v 15 6 -1.5
v 16 6 -1.5
v -14 7 0.5
v 15 7 0.5
v -15 7 -0.5
v -14 7 -0.5
v -15 7 -1.5
v 15 7 -1.5

# faces
f 4/2/1 2/2/1 1/2/1
f 5/2/1 4/2/1 3/2/1
f 6/2/1 2/2/1 4/2/1
f 6/2/1 4/2/1 5/2/1
f 7/2/1 2/2/1 6/2/1
f 8/2/1 2/2/1 7/2/1
f 12/2/1 10/2/1 9/2/1
f 13/2/1 10/2/1 12/2/1
f 14/2/1 12/2/1 11/2/1
f 15/2/1 12/2/1 14/2/1
f 18/2/1 17/2/1 16/2/1
f 19/2/1 17/2/1 18/2/1
f 21/2/1 20/2/1 19/2/1
f 22/2/1 20/2/1 21/2/1
f 25/2/1 24/2/1 23/2/1
f 26/2/1 24/2/1 25/2/1
f 29/2/1 28/2/1 27/2/1
f 30/2/1 28/2/1 29/2/1
f 33/1/1 32/1/1 31/1/1
f 34/1/1 32/1/1 33/1/1
f 37/1/1 36/1/1 35/1/1
f 38/1/1 36/1/1 37/1/1
f 41/1/1 40/1/1 39/1/1
f 42/1/1 40/1/1 41/1/1
f 45/1/1 44/1/1 43/1/1
f 46/1/1 44/1/1 45/1/1
f 49/1/1 48/1/1 47/1/1
f 50/1/1 48/1/1 49/1/1
f 53/1/1 52/1/1 51/1/1
f 54/1/1 52/1/1 53/1/1
f 57/1/1 56/1/1 55/1/1
f 58/1/1 56/1/1 57/1/1
f 61/1/1 60/1/1 59/1/1
f 62/1/1 60/1/1 61/1/1
f 65/1/1 64/1/1 63/1/1
f 66/1/1 64/1/1 65/1/1
f 69/1/1 68/1/1 67/1/1
f 70/1/1 68/1/1 69/1/1
f 73/1/1 72/1/1 71/1/1
f 74/1/1 72/1/1 73/1/1
f 77/1/1 76/1/1 75/1/1
f 78/1/1 76/1/1 77/1/1
f 81/1/1 80/1/1 79/1/1
f 82/1/1 80/1/1 81/1/1
f 85/1/1 84/1/1 83/1/1
f 86/1/1 84/1/1 85/1/1
f 89/1/1 88/1/1 87/1/1
f 90/1/1 88/1/1 89/1/1
f 93/1/1 92/1/1 91/1/1
f 94/1/1 92/1/1 93/1/1
f 95/1/2 96/1/2 97/1/2
f 97/1/2 96/1/2 98/1/2
f 99/1/2 100/1/2 101/1/2
f 101/1/2 100/1/2 102/1/2
f 103/1/2 104/1/2 105/1/2
f 105/1/2 104/1/2 106/1/2
f 107/1/2 108/1/2 109/1/2
f 109/1/2 108/1/2 110/1/2
f 111/1/2 112/1/2 113/1/2
f 113/1/2 112/1/2 114/1/2
f 115/1/2 116/1/2 117/1/2
f 117/1/2 116/1/2 118/1/2
f 119/1/2 120/1/2 121/1/2
f 121/1/2 120/1/2 122/1/2
f 123/1/2 124/1/2 125/1/2
f 125/1/2 124/1/2 126/1/2
f 127/1/2 128/1/2 129/1/2
f 129/1/2 128/1/2 130/1/2
f 131/1/2 132/1/2 133/1/2
f 133/1/2 132/1/2 134/1/2
f 135/1/2 136/1/2 137/1/2
f 137/1/2 136/1/2 138/1/2
f 139/1/2 140/1/2 141/1/2
f 141/1/2 140/1/2 142/1/2
f 143/1/2 144/1/2 145/1/2
f 145/1/2 144/1/2 146/1/2
f 147/1/2 148/1/2 149/1/2
f 149/1/2 148/1/2 150/1/2
f 151/1/2 152/1/2 153/1/2
f 153/1/2 152/1/2 154/1/2
f 155/1/2 156/1/2 157/1/2
f 157/1/2 156/1/2 158/1/2
f 159/1/2 160/1/2 161/1/2
f 161/1/2 160/1/2 162/1/2
f 163/1/2 164/1/2 165/1/2
f 165/1/2 164/1/2 166/1/2
f 167/1/2 168/1/2 169/1/2
f 169/1/2 168/1/2 170/1/2
f 171/1/2 172/1/2 173/1/2
f 173/1/2 172/1/2 174/1/2
f 175/1/2 176/1/2 177/1/2
f 177/1/2 176/1/2 178/1/2
f 179/1/2 180/1/2 181/1/2
f 181/1/2 180/1/2 182/1/2
f 183/1/2 184/1/2 185/1/2
f 185/1/2 184/1/2 186/1/2
f 187/2/2 188/2/2 189/2/2
f 189/2/2 188/2/2 190/2/2
f 191/2/2 192/2/2 194/2/2
f 194/2/2 192/2/2 195/2/2
f 193/2/2 194/2/2 196/2/2
f 196/2/2 194/2/2 197/2/2
f 198/2/2 199/2/2 200/2/2
f 198/2/2 200/2/2 202/2/2
f 200/2/2 201/2/2 202/2/2
f 202/2/2 201/2/2 203/2/2
f 204/2/2 205/2/2 207/2/2
f 206/2/2 207/2/2 208/2/2
f 207/2/2 205/2/2 209/2/2
f 208/2/2 207/2/2 209/2/2
f 209/2/2 205/2/2 210/2/2
f 210/2/2 205/2/2 211/2/2
f 217/1/3 215/1/3 214/1/3
f 218/1/3 215/1/3 217/1/3
f 220/1/3 213/1/3 212/1/3
f 221/1/3 213/1/3 220/1/3
f 222/1/3 217/1/3 216/1/3
f 223/1/3 217/1/3 222/1/3
f 224/1/3 222/1/3 221/1/3
f 225/1/3 222/1/3 224/1/3
f 226/1/3 219/1/3 218/1/3
f 227/1/3 219/1/3 226/1/3
f 231/1/3 229/1/3 228/1/3
f 232/1/3 229/1/3 231/1/3
f 234/1/3 231/1/3 230/1/3
f 235/1/3 231/1/3 234/1/3
f 236/1/3 233/1/3 232/1/3
f 237/1/3 233/1/3 236/1/3
f 241/1/3 239/1/3 238/1/3
f 242/1/3 239/1/3 241/1/3
f 244/1/3 241/1/3 240/1/3
f 245/1/3 241/1/3 244/1/3
f 246/1/3 243/1/3 242/1/3
f 247/1/3 243/1/3 246/1/3
f 248/1/3 246/1/3 245/1/3
f 249/1/3 246/1/3 248/1/3
f 252/1/3 251/1/3 250/1/3
f 253/1/3 251/1/3 252/1/3
f 254/1/3 251/1/3 253/1/3
f 255/1/3 251/1/3 254/1/3
f 257/1/3 254/1/3 253/1/3
f 258/1/3 254/1/3 257/1/3
f 259/1/3 251/1/3 255/1/3
f 260/1/3 251/1/3 259/1/3
f 261/1/3 257/1/3 256/1/3
f 262/1/3 257/1/3 261/1/3
f 263/1/3 259/1/3 258/1/3
f 264/1/3 259/1/3 263/1/3
f 267/1/3 266/1/3 265/1/3
f 268/1/3 266/1/3 267/1/3
f 269/1/3 266/1/3 268/1/3
f 270/1/3 266/1/3 269/1/3
f 271/1/3 267/1/3 265/1/3
f 272/1/3 267/1/3 271/1/3
f 273/1/3 269/1/3 268/1/3
f 274/1/3 269/1/3 273/1/3
f 275/1/3 266/1/3 270/1/3
f 276/1/3 266/1/3 275/1/3
f 280/2/3 278/2/3 277/2/3
f 281/2/3 278/2/3 280/2/3
f 284/2/3 280/2/3 279/2/3
f 284/2/3 282/2/3 281/2/3
f 284/2/3 281/2/3 280/2/3
f 285/2/3 282/2/3 284/2/3
f 287/2/3 284/2/3 283/2/3
f 287/2/3 286/2/3 285/2/3
f 287/2/3 285/2/3 284/2/3
f 288/2/3 286/2/3 287/2/3
f 289/2/3 286/2/3 288/2/3
f 290/2/3 286/2/3 289/2/3
f 291/2/3 289/2/3 288/2/3
f 292/2/3 289/2/3 291/2/3
f 293/2/3 286/2/3 290/2/3
f 294/2/3 286/2/3 293/2/3
f 295/2/3 287/2/3 283/2/3
f 296/2/3 291/2/3 288/2/3
f 297/2/3 291/2/3 296/2/3
f 298/2/3 293/2/3 292/2/3
f 299/2/3 296/2/3 295/2/3
f 300/2/3 298/2/3 297/2/3
f 301/2/3 293/2/3 298/2/3
f 301/2/3 298/2/3 300/2/3
f 302/2/3 286/2/3 294/2/3
f 303/2/3 301/2/3 300/2/3
f 303/2/3 302/2/3 301/2/3
f 303/2/3 299/2/3 295/2/3
f 303/2/3 300/2/3 299/2/3
f 304/2/3 302/2/3 303/2/3
f 305/2/3 295/2/3 283/2/3
f 305/2/3 303/2/3 295/2/3
f 306/2/3 303/2/3 305/2/3
f 307/2/3 302/2/3 304/2/3
f 308/2/3 286/2/3 302/2/3
f 308/2/3 302/2/3 307/2/3
f 309/2/3 305/2/3 283/2/3
f 310/2/3 307/2/3 306/2/3
f 311/2/3 307/2/3 310/2/3
f 312/2/3 286/2/3 308/2/3
f 313/2/3 311/2/3 310/2/3
f 313/2/3 312/2/3 311/2/3
f 313/2/3 310/2/3 309/2/3
f 314/2/3 312/2/3 313/2/3
f 315/2/3 309/2/3 283/2/3
f 315/2/3 313/2/3 309/2/3
f 316/2/3 313/2/3 315/2/3
f 317/2/3 312/2/3 314/2/3
f 318/2/3 286/2/3 312/2/3
f 318/2/3 312/2/3 317/2/3
f 319/2/3 315/2/3 283/2/3
f 320/2/3 317/2/3 316/2/3
f 321/2/3 317/2/3 320/2/3
f 322/2/3 286/2/3 318/2/3
f 323/2/3 320/2/3 319/2/3
f 324/2/3 322/2/3 321/2/3
f 325/2/3 323/2/3 319/2/3
f 325/2/3 324/2/3 323/2/3
f 325/2/3 319/2/3 283/2/3
f 326/2/3 322/2/3 324/2/3
f 326/2/3 324/2/3 325/2/3
f 326/2/3 286/2/3 322/2/3
f 327/2/3 325/2/3 283/2/3
f 331/2/3 327/2/3 283/2/3
f 331/2/3 328/2/3 327/2/3
f 332/2/3 328/2/3 331/2/3
f 333/2/3 330/2/3 329/2/3
f 334/2/3 330/2/3 333/2/3
f 335/2/3 286/2/3 326/2/3
f 336/2/3 331/2/3 283/2/3
f 337/2/3 333/2/3 332/2/3
f 338/2/3 333/2/3 337/2/3
f 339/2/3 335/2/3 334/2/3
f 340/2/3 338/2/3 337/2/3
f 340/2/3 339/2/3 338/2/3
f 340/2/3 336/2/3 283/2/3
f 340/2/3 337/2/3 336/2/3
f 341/2/3 335/2/3 339/2/3
f 341/2/3 339/2/3 340/2/3
f 341/2/3 286/2/3 335/2/3
f 346/2/3 340/2/3 283/2/3
f 347/2/3 343/2/3 342/2/3
f 348/2/3 343/2/3 347/2/3
f 349/2/3 345/2/3 344/2/3
f 350/2/3 345/2/3 349/2/3
f 351/2/3 286/2/3 341/2/3
f 352/2/3 348/2/3 347/2/3
f 352/2/3 351/2/3 350/2/3
f 352/2/3 350/2/3 349/2/3
f 352/2/3 346/2/3 283/2/3
f 352/2/3 349/2/3 348/2/3
f 352/2/3 347/2/3 346/2/3
f 353/2/3 351/2/3 352/2/3
f 354/2/3 351/2/3 353/2/3
f 355/2/3 351/2/3 354/2/3
f 356/2/3 351/2/3 355/2/3
f 357/2/3 286/2/3 351/2/3
f 357/2/3 351/2/3 356/2/3
f 358/2/3 356/2/3 355/2/3
f 359/2/3 356/2/3 358/2/3
f 365/2/3 361/2/3 360/2/3
f 366/2/3 361/2/3 365/2/3
f 367/2/3 363/2/3 362/2/3
f 368/2/3 363/2/3 367/2/3
f 370/2/3 365/2/3 364/2/3
f 371/2/3 365/2/3 370/2/3
f 372/2/3 369/2/3 368/2/3
f 373/2/3 369/2/3 372/2/3
f 376/2/3 375/2/3 374/2/3
f 377/2/3 375/2/3 376/2/3
f 381/2/3 378/2/3 377/2/3
f 382/2/3 378/2/3 381/2/3
f 383/2/3 380/2/3 379/2/3
f 384/2/3 380/2/3 383/2/3
f 385/2/4 386/2/4 388/2/4
f 388/2/4 386/2/4 389/2/4
f 387/2/4 388/2/4 391/2/4
f 389/2/4 390/2/4 391/2/4
f 388/2/4 389/2/4 391/2/4
f 391/2/4 390/2/4 392/2/4
f 392/2/4 390/2/4 393/2/4
f 393/2/4 390/2/4 394/2/4
f 392/2/4 393/2/4 395/2/4
f 395/2/4 393/2/4 396/2/4
f 400/2/5 398/2/5 397/2/5
f 401/2/5 398/2/5 400/2/5
f 403/2/5 400/2/5 399/2/5
f 403/2/5 402/2/5 401/2/5
f 403/2/5 401/2/5 400/2/5
f 404/2/5 402/2/5 403/2/5
f 419/1/5 406/1/5 405/1/5
f 420/1/5 406/1/5 419/1/5
f 421/1/5 408/1/5 407/1/5
f 422/1/5 408/1/5 421/1/5
f 423/1/5 410/1/5 409/1/5
f 424/1/5 410/1/5 423/1/5
f 425/1/5 412/1/5 411/1/5
f 426/1/5 412/1/5 425/1/5
f 427/1/5 414/1/5 413/1/5
f 428/1/5 414/1/5 427/1/5
f 429/1/5 416/1/5 415/1/5
f 430/1/5 416/1/5 429/1/5
f 434/2/5 418/2/5 417/2/5
f 435/2/5 418/2/5 434/2/5
f 436/2/5 432/2/5 431/2/5
f 437/2/5 432/2/5 436/2/5
f 439/2/5 434/2/5 433/2/5
f 440/2/5 434/2/5 439/2/5
f 441/2/5 438/2/5 437/2/5
f 442/2/5 438/2/5 441/2/5
f 453/1/5 444/1/5 443/1/5
f 454/1/5 444/1/5 453/1/5
f 455/1/5 446/1/5 445/1/5
f 456/1/5 446/1/5 455/1/5
f 457/1/5 448/1/5 447/1/5
f 458/1/5 448/1/5 457/1/5
f 459/1/5 450/1/5 449/1/5
f 460/1/5 450/1/5 459/1/5
f 463/2/5 452/2/5 451/2/5
f 464/2/5 452/2/5 463/2/5
f 465/2/5 462/2/5 461/2/5
f 466/2/5 462/2/5 465/2/5
f 473/1/5 468/1/5 467/1/5
f 474/1/5 468/1/5 473/1/5
f 475/1/5 470/1/5 469/1/5
f 476/1/5 470/1/5 475/1/5
f 477/1/5 472/1/5 471/1/5
f 478/1/5 472/1/5 477/1/5
f 483/1/5 480/1/5 479/1/5
f 484/1/5 480/1/5 483/1/5
f 485/1/5 482/1/5 481/1/5
f 486/1/5 482/1/5 485/1/5
f 497/1/5 488/1/5 487/1/5
f 498/1/5 488/1/5 497/1/5
f 499/1/5 490/1/5 489/1/5
f 500/1/5 490/1/5 499/1/5
f 501/1/5 492/1/5 491/1/5
f 502/1/5 492/1/5 501/1/5
f 503/1/5 494/1/5 493/1/5
f 504/1/5 494/1/5 503/1/5
f 505/1/5 496/1/5 495/1/5
f 506/1/5 496/1/5 505/1/5
f 507/1/6 508/1/6 515/1/6
f 515/1/6 508/1/6 516/1/6
f 509/1/6 510/1/6 517/1/6
f 517/1/6 510/1/6 518/1/6
f 511/1/6 512/1/6 519/1/6
f 519/1/6 512/1/6 520/1/6
f 513/1/6 514/1/6 521/1/6
f 521/1/6 514/1/6 522/1/6
f 523/1/6 524/1/6 527/1/6
f 527/1/6 524/1/6 528/1/6
f 525/1/6 526/1/6 529/1/6
f 529/1/6 526/1/6 530/1/6
f 531/1/6 532/1/6 537/1/6
f 537/1/6 532/1/6 538/1/6
f 533/1/6 534/1/6 539/1/6
f 539/1/6 534/1/6 540/1/6
f 535/1/6 536/1/6 541/1/6
f 541/1/6 536/1/6 542/1/6
f 543/1/6 544/1/6 555/1/6
f 555/1/6 544/1/6 556/1/6
f 545/1/6 546/1/6 557/1/6
f 557/1/6 546/1/6 558/1/6
f 547/1/6 548/1/6 559/1/6
f 559/1/6 548/1/6 560/1/6
f 549/1/6 550/1/6 561/1/6
f 561/1/6 550/1/6 562/1/6
f 551/1/6 552/1/6 563/1/6
f 563/1/6 552/1/6 564/1/6
f 553/2/6 554/2/6 567/2/6
f 567/2/6 554/2/6 568/2/6
f 565/2/6 566/2/6 569/2/6
f 569/2/6 566/2/6 570/2/6
f 571/1/6 572/1/6 583/1/6
f 583/1/6 572/1/6 584/1/6
f 573/1/6 574/1/6 585/1/6
f 585/1/6 574/1/6 586/1/6
f 575/1/6 576/1/6 587/1/6
f 587/1/6 576/1/6 588/1/6
f 577/1/6 578/1/6 589/1/6
f 589/1/6 578/1/6 590/1/6
f 579/1/6 580/1/6 591/1/6
f 591/1/6 580/1/6 592/1/6
f 581/2/6 582/2/6 594/2/6
f 594/2/6 582/2/6 595/2/6
f 593/2/6 594/2/6 598/2/6
f 598/2/6 594/2/6 599/2/6
f 596/2/6 597/2/6 600/2/6
f 600/2/6 597/2/6 601/2/6
f 602/2/6 603/2/6 605/2/6
f 604/2/6 605/2/6 606/2/6
f 605/2/6 603/2/6 607/2/6
f 606/2/6 605/2/6 607/2/6
