# MagicaVoxel @ Ephtracy

# group
g start

# material
mtllib start.mtl
usemtl palette

# normals
vn -1 0 0
vn 1 0 0
vn 0 0 1
vn 0 0 -1
vn 0 -1 0
vn 0 1 0

# texcoords
vt 0.970703 0.5
vt 0.974609 0.5

# verts
v -16 1 -0.5
v -16 1 -1.5
v -16 2 0.5
v -16 2 -0.5
v -16 5 0.5
v -16 5 -0.5
v -16 6 -0.5
v -16 6 -1.5
v -15 0 -0.5
v -15 0 -1.5
v -15 1 0.5
v -15 1 -0.5
v -15 1 -1.5
v -15 2 0.5
v -15 2 -0.5
v -15 5 0.5
v -15 5 -0.5
v -15 6 0.5
v -15 6 -0.5
v -15 6 -1.5
v -15 7 -0.5
v -15 7 -1.5
v -14 0 0.5
v -14 0 -0.5
v -14 1 0.5
v -14 1 -0.5
v -14 6 0.5
v -14 6 -0.5
v -14 7 0.5
v -14 7 -0.5
v -13 1 1.5
v -13 1 0.5
v -13 2 1.5
v -13 2 0.5
v -13 4 1.5
v -13 4 0.5
v -13 5 1.5
v -13 5 0.5
v -12 3 1.5
v -12 3 0.5
v -12 4 1.5
v -12 4 0.5
v -12 5 1.5
v -12 5 0.5
v -12 6 1.5
v -12 6 0.5
v -10 2 1.5
v -10 2 0.5
v -10 3 1.5
v -10 3 0.5
v -8 5 1.5
v -8 5 0.5
v -8 6 1.5
v -8 6 0.5
v -6 1 1.5
v -6 1 0.5
v -6 5 1.5
v -6 5 0.5
v -2 1 1.5
v -2 1 0.5
v -2 5 1.5
v -2 5 0.5
v -1 5 1.5
v -1 5 0.5
v -1 6 1.5
v -1 6 0.5
v 1 1 1.5
v 1 1 0.5
v 1 3 1.5
v 1 3 0.5
v 1 4 1.5
v 1 4 0.5
v 1 5 1.5
v 1 5 0.5
v 3 1 1.5
v 3 1 0.5
v 3 6 1.5
v 3 6 0.5
v 6 1 1.5
v 6 1 0.5
v 6 3 1.5
v 6 3 0.5
v 6 4 1.5
v 6 4 0.5
v 6 5 1.5
v 6 5 0.5
v 8 5 1.5
v 8 5 0.5
v 8 6 1.5
v 8 6 0.5
v 10 1 1.5
v 10 1 0.5
v 10 5 1.5
v 10 5 0.5
v -12 4 1.5
v -12 4 0.5
v -12 5 1.5
v -12 5 0.5
v -10 1 1.5
v -10 1 0.5
v -10 2 1.5
v -10 2 0.5
v -10 3 1.5
v -10 3 0.5
v -10 4 1.5
v -10 4 0.5
v -9 2 1.5
v -9 2 0.5
v -9 3 1.5
v -9 3 0.5
v -9 5 1.5
v -9 5 0.5
v -9 6 1.5
v -9 6 0.5
v -5 1 1.5
v -5 1 0.5
v -5 5 1.5
v -5 5 0.5
v -3 5 1.5
v -3 5 0.5
v -3 6 1.5
v -3 6 0.5
v -1 1 1.5
v -1 1 0.5
v -1 3 1.5
v -1 3 0.5
v -1 4 1.5
v -1 4 0.5
v -1 5 1.5
v -1 5 0.5
v 1 5 1.5
v 1 5 0.5
v 1 6 1.5
v 1 6 0.5
v 2 1 1.5
v 2 1 0.5
v 2 5 1.5
v 2 5 0.5
v 4 1 1.5
v 4 1 0.5
v 4 3 1.5
v 4 3 0.5
v 4 4 1.5
v 4 4 0.5
v 4 5 1.5
v 4 5 0.5
v 6 3 1.5
v 6 3 0.5
v 6 4 1.5
v 6 4 0.5
v 6 5 1.5
v 6 5 0.5
v 6 6 1.5
v 6 6 0.5
v 7 1 1.5
v 7 1 0.5
v 7 3 1.5
v 7 3 0.5
v 7 4 1.5
v 7 4 0.5
v 7 5 1.5
v 7 5 0.5
v 11 1 1.5
v 11 1 0.5
v 11 5 1.5
v 11 5 0.5
v 13 5 1.5
v 13 5 0.5
v 13 6 1.5
v 13 6 0.5
v 14 0 0.5
v 14 0 -0.5
v 14 1 0.5
v 14 1 -0.5
v 15 0 -0.5
v 15 0 -1.5
v 15 1 0.5
v 15 1 -0.5
v 15 1 -1.5
v 15 2 0.5
v 15 2 -0.5
v 15 5 0.5
v 15 5 -0.5
v 15 6 -0.5
v 15 6 -1.5
v 15 7 0.5
v 15 7 -1.5
v 16 1 -0.5
v 16 1 -1.5
v 16 2 0.5
v 16 2 -0.5
v 16 5 0.5
v 16 5 -0.5
v 16 6 -0.5
v 16 6 -1.5
v -13 1 1.5
v -13 2 1.5
v -13 4 1.5
v -13 5 1.5
v -12 3 1.5
v -12 4 1.5
v -12 5 1.5
v -12 6 1.5
v -10 1 1.5
v -10 2 1.5
v -10 3 1.5
v -10 4 1.5
v -9 2 1.5
v -9 3 1.5
v -9 5 1.5
v -9 6 1.5
v -8 5 1.5
v -8 6 1.5
v -6 1 1.5
v -6 5 1.5
v -5 1 1.5
v -5 5 1.5
v -3 5 1.5
v -3 6 1.5
v -2 1 1.5
v -2 5 1.5
v -1 1 1.5
v -1 3 1.5
v -1 4 1.5
v -1 5 1.5
v -1 6 1.5
v 1 1 1.5
v 1 3 1.5
v 1 4 1.5
v 1 5 1.5
v 1 6 1.5
v 2 1 1.5
v 2 5 1.5
v 3 1 1.5
v 3 6 1.5
v 4 1 1.5
v 4 3 1.5
v 4 4 1.5
v 4 5 1.5
v 6 1 1.5
v 6 3 1.5
v 6 4 1.5
v 6 5 1.5
v 6 6 1.5
v 7 1 1.5
v 7 3 1.5
v 7 4 1.5
v 7 5 1.5
v 8 5 1.5
v 8 6 1.5
v 10 1 1.5
v 10 5 1.5
v 11 1 1.5
v 11 5 1.5
v 13 5 1.5
v 13 6 1.5
v -16 2 0.5
v -16 5 0.5
v -15 1 0.5
v -15 2 0.5
v -15 5 0.5
v -15 6 0.5
v -14 0 0.5
v -14 1 0.5
v -14 6 0.5
v -14 7 0.5
v -13 1 0.5
v -13 2 0.5
v -13 4 0.5
v -13 5 0.5
v -12 3 0.5
v -12 4 0.5
v -12 5 0.5
v -12 6 0.5
v -10 1 0.5
v -10 2 0.5
v -10 3 0.5
v -10 4 0.5
v -9 2 0.5
v -9 3 0.5
v -9 5 0.5
v -9 6 0.5
v -8 5 0.5
v -8 6 0.5
v -6 1 0.5
v -6 5 0.5
v -5 1 0.5
v -5 5 0.5
v -3 5 0.5
v -3 6 0.5
v -2 1 0.5
v -2 5 0.5
v -1 1 0.5
v -1 3 0.5
v -1 4 0.5
v -1 5 0.5
v -1 6 0.5
v 1 1 0.5
v 1 3 0.5
v 1 4 0.5
v 1 5 0.5
v 1 6 0.5
v 2 1 0.5
v 2 5 0.5
v 3 1 0.5
v 3 6 0.5
v 4 1 0.5
v 4 3 0.5
v 4 4 0.5
v 4 5 0.5
v 6 1 0.5
v 6 3 0.5
v 6 4 0.5
v 6 5 0.5
v 6 6 0.5
v 7 1 0.5
v 7 3 0.5
v 7 4 0.5
v 7 5 0.5
v 8 5 0.5
v 8 6 0.5
v 10 1 0.5
v 10 5 0.5
v 11 1 0.5
v 11 5 0.5
v 13 5 0.5
v 13 6 0.5
v 14 0 0.5
v 14 1 0.5
v 15 1 0.5
v 15 2 0.5
v 15 5 0.5
v 15 7 0.5
v 16 2 0.5
v 16 5 0.5
v -16 1 -0.5
v -16 2 -0.5
v -16 5 -0.5
v -16 6 -0.5
v -15 0 -0.5
v -15 1 -0.5
v -15 2 -0.5
v -15 5 -0.5
v -15 6 -0.5
v -15 7 -0.5
v -14 0 -0.5
v -14 1 -0.5
v -14 6 -0.5
v -14 7 -0.5
v 14 0 -0.5
v 14 1 -0.5
v 15 0 -0.5
v 15 1 -0.5
v 15 2 -0.5
v 15 5 -0.5
v 15 6 -0.5
v 16 1 -0.5
v 16 2 -0.5
v 16 5 -0.5
v 16 6 -0.5
v -16 1 -1.5
v -16 6 -1.5
v -15 0 -1.5
v -15 1 -1.5
v -15 6 -1.5
v -15 7 -1.5
v 15 0 -1.5
v 15 1 -1.5
v 15 6 -1.5
v 15 7 -1.5
v 16 1 -1.5
v 16 6 -1.5
v -14 0 0.5
v 14 0 0.5
v -15 0 -0.5
v -14 0 -0.5
v 14 0 -0.5
v 15 0 -0.5
v -15 0 -1.5
v 15 0 -1.5
v -13 1 1.5
v -10 1 1.5
v -6 1 1.5
v -5 1 1.5
v -2 1 1.5
v -1 1 1.5
v 1 1 1.5
v 2 1 1.5
v 3 1 1.5
v 4 1 1.5
v 6 1 1.5
v 7 1 1.5
v 10 1 1.5
v 11 1 1.5
v -15 1 0.5
v -14 1 0.5
v -13 1 0.5
v -10 1 0.5
v -6 1 0.5
v -5 1 0.5
v -2 1 0.5
v -1 1 0.5
v 1 1 0.5
v 2 1 0.5
v 3 1 0.5
v 4 1 0.5
v 6 1 0.5
v 7 1 0.5
v 10 1 0.5
v 11 1 0.5
v 14 1 0.5
v 15 1 0.5
v -16 1 -0.5
v -15 1 -0.5
v -14 1 -0.5
v 14 1 -0.5
v 15 1 -0.5
v 16 1 -0.5
v -16 1 -1.5
v -15 1 -1.5
v 15 1 -1.5
v 16 1 -1.5
v -10 2 1.5
v -9 2 1.5
v -16 2 0.5
v -15 2 0.5
v -10 2 0.5
v -9 2 0.5
v 15 2 0.5
v 16 2 0.5
v -16 2 -0.5
v -15 2 -0.5
v 15 2 -0.5
v 16 2 -0.5
v -12 3 1.5
v -10 3 1.5
v -1 3 1.5
v 1 3 1.5
v 4 3 1.5
v 6 3 1.5
v -12 3 0.5
v -10 3 0.5
v -1 3 0.5
v 1 3 0.5
v 4 3 0.5
v 6 3 0.5
v -13 4 1.5
v -12 4 1.5
v 6 4 1.5
v 7 4 1.5
v -13 4 0.5
v -12 4 0.5
v 6 4 0.5
v 7 4 0.5
v -12 5 1.5
v -9 5 1.5
v -8 5 1.5
v -6 5 1.5
v -5 5 1.5
v -3 5 1.5
v -1 5 1.5
v 1 5 1.5
v 4 5 1.5
v 6 5 1.5
v 8 5 1.5
v 10 5 1.5
v 11 5 1.5
v 13 5 1.5
v -12 5 0.5
v -9 5 0.5
v -8 5 0.5
v -6 5 0.5
v -5 5 0.5
v -3 5 0.5
v -1 5 0.5
v 1 5 0.5
v 4 5 0.5
v 6 5 0.5
v 8 5 0.5
v 10 5 0.5
v 11 5 0.5
v 13 5 0.5
v -13 2 1.5
v -10 2 1.5
v -13 2 0.5
v -10 2 0.5
v -10 3 1.5
v -9 3 1.5
v 6 3 1.5
v 7 3 1.5
v -10 3 0.5
v -9 3 0.5
v 6 3 0.5
v 7 3 0.5
v -12 4 1.5
v -10 4 1.5
v -1 4 1.5
v 1 4 1.5
v 4 4 1.5
v 6 4 1.5
v -12 4 0.5
v -10 4 0.5
v -1 4 0.5
v 1 4 0.5
v 4 4 0.5
v 6 4 0.5
v -13 5 1.5
v -12 5 1.5
v -2 5 1.5
v -1 5 1.5
v 1 5 1.5
v 2 5 1.5
v 6 5 1.5
v 7 5 1.5
v -16 5 0.5
v -15 5 0.5
v -13 5 0.5
v -12 5 0.5
v -2 5 0.5
v -1 5 0.5
v 1 5 0.5
v 2 5 0.5
v 6 5 0.5
v 7 5 0.5
v 15 5 0.5
v 16 5 0.5
v -16 5 -0.5
v -15 5 -0.5
v 15 5 -0.5
v 16 5 -0.5
v -12 6 1.5
v -9 6 1.5
v -8 6 1.5
v -3 6 1.5
v -1 6 1.5
v 1 6 1.5
v 3 6 1.5
v 6 6 1.5
v 8 6 1.5
v 13 6 1.5
v -15 6 0.5
v -14 6 0.5
v -12 6 0.5
v -9 6 0.5
v -8 6 0.5
v -3 6 0.5
v -1 6 0.5
v 1 6 0.5
v 3 6 0.5
v 6 6 0.5
v 8 6 0.5
v 13 6 0.5
v -16 6 -0.5
v -15 6 -0.5
v -14 6 -0.5
v 15 6 -0.5
v 16 6 -0.5
v -16 6 -1.5
v -15 6 -1.5
v 15 6 -1.5
v 16 6 -1.5
v -14 7 0.5
v 15 7 0.5
v -15 7 -0.5
v -14 7 -0.5
v -15 7 -1.5
v 15 7 -1.5

# faces
f 4/2/1 2/2/1 1/2/1
f 5/2/1 4/2/1 3/2/1
f 6/2/1 2/2/1 4/2/1
f 6/2/1 4/2/1 5/2/1
f 7/2/1 2/2/1 6/2/1
f 8/2/1 2/2/1 7/2/1
f 12/2/1 10/2/1 9/2/1
f 13/2/1 10/2/1 12/2/1
f 14/2/1 12/2/1 11/2/1
f 15/2/1 12/2/1 14/2/1
f 18/2/1 17/2/1 16/2/1
f 19/2/1 17/2/1 18/2/1
f 21/2/1 20/2/1 19/2/1
f 22/2/1 20/2/1 21/2/1
f 25/2/1 24/2/1 23/2/1
f 26/2/1 24/2/1 25/2/1
f 29/2/1 28/2/1 27/2/1
f 30/2/1 28/2/1 29/2/1
f 33/1/1 32/1/1 31/1/1
f 34/1/1 32/1/1 33/1/1
f 37/1/1 36/1/1 35/1/1
f 38/1/1 36/1/1 37/1/1
f 41/1/1 40/1/1 39/1/1
f 42/1/1 40/1/1 41/1/1
f 45/1/1 44/1/1 43/1/1
f 46/1/1 44/1/1 45/1/1
f 49/1/1 48/1/1 47/1/1
f 50/1/1 48/1/1 49/1/1
f 53/1/1 52/1/1 51/1/1
f 54/1/1 52/1/1 53/1/1
f 57/1/1 56/1/1 55/1/1
f 58/1/1 56/1/1 57/1/1
f 61/1/1 60/1/1 59/1/1
f 62/1/1 60/1/1 61/1/1
f 65/1/1 64/1/1 63/1/1
f 66/1/1 64/1/1 65/1/1
f 69/1/1 68/1/1 67/1/1
f 70/1/1 68/1/1 69/1/1
f 73/1/1 72/1/1 71/1/1
f 74/1/1 72/1/1 73/1/1
f 77/1/1 76/1/1 75/1/1
f 78/1/1 76/1/1 77/1/1
f 81/1/1 80/1/1 79/1/1
f 82/1/1 80/1/1 81/1/1
f 85/1/1 84/1/1 83/1/1
f 86/1/1 84/1/1 85/1/1
f 89/1/1 88/1/1 87/1/1
f 90/1/1 88/1/1 89/1/1
f 93/1/1 92/1/1 91/1/1
f 94/1/1 92/1/1 93/1/1
f 95/1/2 96/1/2 97/1/2
f 97/1/2 96/1/2 98/1/2
f 99/1/2 100/1/2 101/1/2
f 101/1/2 100/1/2 102/1/2
f 103/1/2 104/1/2 105/1/2
f 105/1/2 104/1/2 106/1/2
f 107/1/2 108/1/2 109/1/2
f 109/1/2 108/1/2 110/1/2
f 111/1/2 112/1/2 113/1/2
f 113/1/2 112/1/2 114/1/2
f 115/1/2 116/1/2 117/1/2
f 117/1/2 116/1/2 118/1/2
f 119/1/2 120/1/2 121/1/2
f 121/1/2 120/1/2 122/1/2
f 123/1/2 124/1/2 125/1/2
f 125/1/2 124/1/2 126/1/2
f 127/1/2 128/1/2 129/1/2
f 129/1/2 128/1/2 130/1/2
f 131/1/2 132/1/2 133/1/2
f 133/1/2 132/1/2 134/1/2
f 135/1/2 136/1/2 137/1/2
f 137/1/2 136/1/2 138/1/2
f 139/1/2 140/1/2 141/1/2
f 141/1/2 140/1/2 142/1/2
f 143/1/2 144/1/2 145/1/2
f 145/1/2 144/1/2 146/1/2
f 147/1/2 148/1/2 149/1/2
f 149/1/2 148/1/2 150/1/2
f 151/1/2 152/1/2 153/1/2
f 153/1/2 152/1/2 154/1/2
f 155/1/2 156/1/2 157/1/2
f 157/1/2 156/1/2 158/1/2
f 159/1/2 160/1/2 161/1/2
f 161/1/2 160/1/2 162/1/2
f 163/1/2 164/1/2 165/1/2
f 165/1/2 164/1/2 166/1/2
f 167/1/2 168/1/2 169/1/2
f 169/1/2 168/1/2 170/1/2
f 171/2/2 172/2/2 173/2/2
f 173/2/2 172/2/2 174/2/2
f 175/2/2 176/2/2 178/2/2
f 178/2/2 176/2/2 179/2/2
f 177/2/2 178/2/2 180/2/2
f 180/2/2 178/2/2 181/2/2
f 182/2/2 183/2/2 184/2/2
f 182/2/2 184/2/2 186/2/2
f 184/2/2 185/2/2 186/2/2
f 186/2/2 185/2/2 187/2/2
f 188/2/2 189/2/2 191/2/2
f 190/2/2 191/2/2 192/2/2
f 191/2/2 189/2/2 193/2/2
f 192/2/2 191/2/2 193/2/2
f 193/2/2 189/2/2 194/2/2
f 194/2/2 189/2/2 195/2/2
f 201/1/3 199/1/3 198/1/3
f 202/1/3 199/1/3 201/1/3
f 204/1/3 197/1/3 196/1/3
f 205/1/3 197/1/3 204/1/3
f 206/1/3 201/1/3 200/1/3
f 207/1/3 201/1/3 206/1/3
f 208/1/3 206/1/3 205/1/3
f 209/1/3 206/1/3 208/1/3
f 210/1/3 203/1/3 202/1/3
f 211/1/3 203/1/3 210/1/3
f 215/1/3 213/1/3 212/1/3
f 216/1/3 215/1/3 214/1/3
f 217/1/3 213/1/3 215/1/3
f 217/1/3 215/1/3 216/1/3
f 218/1/3 213/1/3 217/1/3
f 219/1/3 213/1/3 218/1/3
f 222/1/3 221/1/3 220/1/3
f 223/1/3 221/1/3 222/1/3
f 224/1/3 221/1/3 223/1/3
f 225/1/3 221/1/3 224/1/3
f 228/1/3 224/1/3 223/1/3
f 229/1/3 224/1/3 228/1/3
f 230/1/3 226/1/3 225/1/3
f 231/1/3 226/1/3 230/1/3
f 232/1/3 229/1/3 228/1/3
f 232/1/3 228/1/3 227/1/3
f 232/1/3 230/1/3 229/1/3
f 233/1/3 230/1/3 232/1/3
f 236/1/3 235/1/3 234/1/3
f 237/1/3 235/1/3 236/1/3
f 238/1/3 235/1/3 237/1/3
f 239/1/3 235/1/3 238/1/3
f 241/1/3 238/1/3 237/1/3
f 242/1/3 238/1/3 241/1/3
f 243/1/3 235/1/3 239/1/3
f 244/1/3 235/1/3 243/1/3
f 245/1/3 241/1/3 240/1/3
f 246/1/3 241/1/3 245/1/3
f 247/1/3 243/1/3 242/1/3
f 248/1/3 243/1/3 247/1/3
f 252/1/3 250/1/3 249/1/3
f 253/1/3 252/1/3 251/1/3
f 254/1/3 250/1/3 252/1/3
f 254/1/3 252/1/3 253/1/3
f 255/1/3 250/1/3 254/1/3
f 256/1/3 250/1/3 255/1/3
f 260/2/3 258/2/3 257/2/3
f 261/2/3 258/2/3 260/2/3
f 264/2/3 260/2/3 259/2/3
f 264/2/3 262/2/3 261/2/3
f 264/2/3 261/2/3 260/2/3
f 265/2/3 262/2/3 264/2/3
f 267/2/3 264/2/3 263/2/3
f 267/2/3 266/2/3 265/2/3
f 267/2/3 265/2/3 264/2/3
f 268/2/3 266/2/3 267/2/3
f 269/2/3 266/2/3 268/2/3
f 270/2/3 266/2/3 269/2/3
f 271/2/3 269/2/3 268/2/3
f 272/2/3 269/2/3 271/2/3
f 273/2/3 266/2/3 270/2/3
f 274/2/3 266/2/3 273/2/3
f 275/2/3 267/2/3 263/2/3
f 276/2/3 271/2/3 268/2/3
f 277/2/3 271/2/3 276/2/3
f 278/2/3 273/2/3 272/2/3
f 279/2/3 276/2/3 275/2/3
f 280/2/3 278/2/3 277/2/3
f 281/2/3 273/2/3 278/2/3
f 281/2/3 278/2/3 280/2/3
f 282/2/3 266/2/3 274/2/3
f 283/2/3 281/2/3 280/2/3
f 283/2/3 282/2/3 281/2/3
f 283/2/3 280/2/3 279/2/3
f 284/2/3 266/2/3 282/2/3
f 284/2/3 282/2/3 283/2/3
f 285/2/3 283/2/3 279/2/3
f 285/2/3 279/2/3 275/2/3
f 285/2/3 275/2/3 263/2/3
f 286/2/3 283/2/3 285/2/3
f 287/2/3 285/2/3 263/2/3
f 289/2/3 288/2/3 287/2/3
f 290/2/3 266/2/3 284/2/3
f 291/2/3 289/2/3 287/2/3
f 291/2/3 290/2/3 289/2/3
f 291/2/3 287/2/3 263/2/3
f 292/2/3 290/2/3 291/2/3
f 293/2/3 291/2/3 263/2/3
f 296/2/3 290/2/3 292/2/3
f 297/2/3 266/2/3 290/2/3
f 297/2/3 290/2/3 296/2/3
f 298/2/3 294/2/3 293/2/3
f 298/2/3 293/2/3 263/2/3
f 299/2/3 294/2/3 298/2/3
f 300/2/3 296/2/3 295/2/3
f 301/2/3 296/2/3 300/2/3
f 302/2/3 266/2/3 297/2/3
f 303/2/3 298/2/3 263/2/3
f 304/2/3 302/2/3 301/2/3
f 305/2/3 303/2/3 263/2/3
f 305/2/3 304/2/3 303/2/3
f 306/2/3 302/2/3 304/2/3
f 306/2/3 304/2/3 305/2/3
f 306/2/3 266/2/3 302/2/3
f 307/2/3 305/2/3 263/2/3
f 311/2/3 307/2/3 263/2/3
f 311/2/3 308/2/3 307/2/3
f 312/2/3 308/2/3 311/2/3
f 313/2/3 310/2/3 309/2/3
f 314/2/3 310/2/3 313/2/3
f 315/2/3 266/2/3 306/2/3
f 316/2/3 311/2/3 263/2/3
f 317/2/3 313/2/3 312/2/3
f 318/2/3 313/2/3 317/2/3
f 319/2/3 315/2/3 314/2/3
f 320/2/3 318/2/3 317/2/3
f 320/2/3 319/2/3 318/2/3
f 320/2/3 315/2/3 319/2/3
f 320/2/3 317/2/3 316/2/3
f 321/2/3 266/2/3 315/2/3
f 321/2/3 315/2/3 320/2/3
f 322/2/3 320/2/3 316/2/3
f 322/2/3 316/2/3 263/2/3
f 323/2/3 320/2/3 322/2/3
f 324/2/3 322/2/3 263/2/3
f 326/2/3 325/2/3 324/2/3
f 327/2/3 266/2/3 321/2/3
f 328/2/3 326/2/3 324/2/3
f 328/2/3 327/2/3 326/2/3
f 328/2/3 324/2/3 263/2/3
f 329/2/3 327/2/3 328/2/3
f 330/2/3 327/2/3 329/2/3
f 331/2/3 327/2/3 330/2/3
f 332/2/3 327/2/3 331/2/3
f 333/2/3 266/2/3 327/2/3
f 333/2/3 327/2/3 332/2/3
f 334/2/3 332/2/3 331/2/3
f 335/2/3 332/2/3 334/2/3
f 341/2/3 337/2/3 336/2/3
f 342/2/3 337/2/3 341/2/3
f 343/2/3 339/2/3 338/2/3
f 344/2/3 339/2/3 343/2/3
f 346/2/3 341/2/3 340/2/3
f 347/2/3 341/2/3 346/2/3
f 348/2/3 345/2/3 344/2/3
f 349/2/3 345/2/3 348/2/3
f 352/2/3 351/2/3 350/2/3
f 353/2/3 351/2/3 352/2/3
f 357/2/3 354/2/3 353/2/3
f 358/2/3 354/2/3 357/2/3
f 359/2/3 356/2/3 355/2/3
f 360/2/3 356/2/3 359/2/3
f 361/2/4 362/2/4 364/2/4
f 364/2/4 362/2/4 365/2/4
f 363/2/4 364/2/4 367/2/4
f 365/2/4 366/2/4 367/2/4
f 364/2/4 365/2/4 367/2/4
f 367/2/4 366/2/4 368/2/4
f 368/2/4 366/2/4 369/2/4
f 369/2/4 366/2/4 370/2/4
f 368/2/4 369/2/4 371/2/4
f 371/2/4 369/2/4 372/2/4
f 376/2/5 374/2/5 373/2/5
f 377/2/5 374/2/5 376/2/5
f 379/2/5 376/2/5 375/2/5
f 379/2/5 378/2/5 377/2/5
f 379/2/5 377/2/5 376/2/5
f 380/2/5 378/2/5 379/2/5
f 397/1/5 382/1/5 381/1/5
f 398/1/5 382/1/5 397/1/5
f 399/1/5 384/1/5 383/1/5
f 400/1/5 384/1/5 399/1/5
f 401/1/5 386/1/5 385/1/5
f 402/1/5 386/1/5 401/1/5
f 403/1/5 388/1/5 387/1/5
f 404/1/5 388/1/5 403/1/5
f 405/1/5 390/1/5 389/1/5
f 406/1/5 390/1/5 405/1/5
f 407/1/5 392/1/5 391/1/5
f 408/1/5 392/1/5 407/1/5
f 409/1/5 394/1/5 393/1/5
f 410/1/5 394/1/5 409/1/5
f 414/2/5 396/2/5 395/2/5
f 415/2/5 396/2/5 414/2/5
f 416/2/5 412/2/5 411/2/5
f 417/2/5 412/2/5 416/2/5
f 419/2/5 414/2/5 413/2/5
f 420/2/5 414/2/5 419/2/5
f 421/2/5 418/2/5 417/2/5
f 422/2/5 418/2/5 421/2/5
f 427/1/5 424/1/5 423/1/5
f 428/1/5 424/1/5 427/1/5
f 431/2/5 426/2/5 425/2/5
f 432/2/5 426/2/5 431/2/5
f 433/2/5 430/2/5 429/2/5
f 434/2/5 430/2/5 433/2/5
f 441/1/5 436/1/5 435/1/5
f 442/1/5 436/1/5 441/1/5
f 443/1/5 438/1/5 437/1/5
f 444/1/5 438/1/5 443/1/5
f 445/1/5 440/1/5 439/1/5
f 446/1/5 440/1/5 445/1/5
f 451/1/5 448/1/5 447/1/5
f 452/1/5 448/1/5 451/1/5
f 453/1/5 450/1/5 449/1/5
f 454/1/5 450/1/5 453/1/5
f 469/1/5 456/1/5 455/1/5
f 470/1/5 456/1/5 469/1/5
f 471/1/5 458/1/5 457/1/5
f 472/1/5 458/1/5 471/1/5
f 473/1/5 460/1/5 459/1/5
f 474/1/5 460/1/5 473/1/5
f 475/1/5 462/1/5 461/1/5
f 476/1/5 462/1/5 475/1/5
f 477/1/5 464/1/5 463/1/5
f 478/1/5 464/1/5 477/1/5
f 479/1/5 466/1/5 465/1/5
f 480/1/5 466/1/5 479/1/5
f 481/1/5 468/1/5 467/1/5
f 482/1/5 468/1/5 481/1/5
f 483/1/6 484/1/6 485/1/6
f 485/1/6 484/1/6 486/1/6
f 487/1/6 488/1/6 491/1/6
f 491/1/6 488/1/6 492/1/6
f 489/1/6 490/1/6 493/1/6
f 493/1/6 490/1/6 494/1/6
f 495/1/6 496/1/6 501/1/6
f 501/1/6 496/1/6 502/1/6
f 497/1/6 498/1/6 503/1/6
f 503/1/6 498/1/6 504/1/6
f 499/1/6 500/1/6 505/1/6
f 505/1/6 500/1/6 506/1/6
f 507/1/6 508/1/6 517/1/6
f 517/1/6 508/1/6 518/1/6
f 509/1/6 510/1/6 519/1/6
f 519/1/6 510/1/6 520/1/6
f 511/1/6 512/1/6 521/1/6
f 521/1/6 512/1/6 522/1/6
f 513/1/6 514/1/6 523/1/6
f 523/1/6 514/1/6 524/1/6
f 515/2/6 516/2/6 527/2/6
f 527/2/6 516/2/6 528/2/6
f 525/2/6 526/2/6 529/2/6
f 529/2/6 526/2/6 530/2/6
f 531/1/6 532/1/6 543/1/6
f 543/1/6 532/1/6 544/1/6
f 533/1/6 534/1/6 545/1/6
f 545/1/6 534/1/6 546/1/6
f 535/1/6 536/1/6 547/1/6
f 547/1/6 536/1/6 548/1/6
f 537/1/6 538/1/6 549/1/6
f 549/1/6 538/1/6 550/1/6
f 539/1/6 540/1/6 551/1/6
f 551/1/6 540/1/6 552/1/6
f 541/2/6 542/2/6 554/2/6
f 554/2/6 542/2/6 555/2/6
f 553/2/6 554/2/6 558/2/6
f 558/2/6 554/2/6 559/2/6
f 556/2/6 557/2/6 560/2/6
f 560/2/6 557/2/6 561/2/6
f 562/2/6 563/2/6 565/2/6
f 564/2/6 565/2/6 566/2/6
f 565/2/6 563/2/6 567/2/6
f 566/2/6 565/2/6 567/2/6
