# MagicaVoxel @ Ephtracy

# group
g heart

# material
mtllib heart.mtl
usemtl palette

# normals
vn -1 0 0
vn 1 0 0
vn 0 0 1
vn 0 0 -1
vn 0 -1 0
vn 0 1 0

# texcoords
vt 0.970703 0.5
vt 0.974609 0.5
vt 0.978516 0.5

# verts
v -7.5 7 -0
v -7.5 7 -1
v -7.5 11 -0
v -7.5 11 -1
v -6.5 6 -0
v -6.5 6 -1
v -6.5 7 1
v -6.5 7 -0
v -6.5 7 -1
v -6.5 11 1
v -6.5 11 -0
v -6.5 11 -1
v -6.5 12 -0
v -6.5 12 -1
v -5.5 5 -0
v -5.5 5 -1
v -5.5 6 1
v -5.5 6 -0
v -5.5 6 -1
v -5.5 7 1
v -5.5 7 -0
v -5.5 11 1
v -5.5 11 -0
v -5.5 12 1
v -5.5 12 -0
v -5.5 12 -1
v -5.5 13 -0
v -5.5 13 -1
v -4.5 4 -0
v -4.5 4 -1
v -4.5 5 1
v -4.5 5 -0
v -4.5 5 -1
v -4.5 6 1
v -4.5 6 -0
v -3.5 3 -0
v -3.5 3 -1
v -3.5 4 1
v -3.5 4 -0
v -3.5 4 -1
v -3.5 5 1
v -3.5 5 -0
v -2.5 2 -0
v -2.5 2 -1
v -2.5 3 1
v -2.5 3 -0
v -2.5 3 -1
v -2.5 4 1
v -2.5 4 -0
v -1.5 1 -0
v -1.5 1 -1
v -1.5 2 1
v -1.5 2 -0
v -1.5 2 -1
v -1.5 3 1
v -1.5 3 -0
v -0.5 0 -0
v -0.5 0 -1
v -0.5 1 1
v -0.5 1 -0
v -0.5 1 -1
v -0.5 2 1
v -0.5 2 -0
v 0.5 10 1
v 0.5 10 -0
v 0.5 11 1
v 0.5 11 -0
v 0.5 11 -1
v 0.5 12 -0
v 0.5 12 -1
v 1.5 11 1
v 1.5 11 -0
v 1.5 12 1
v 1.5 12 -0
v 1.5 12 -1
v 1.5 13 -0
v 1.5 13 -1
v -1.5 11 1
v -1.5 11 -0
v -1.5 12 1
v -1.5 12 -0
v -1.5 12 -1
v -1.5 13 -0
v -1.5 13 -1
v -0.5 10 1
v -0.5 10 -0
v -0.5 11 1
v -0.5 11 -0
v -0.5 11 -1
v -0.5 12 -0
v -0.5 12 -1
v 0.5 0 -0
v 0.5 0 -1
v 0.5 1 1
v 0.5 1 -0
v 0.5 1 -1
v 0.5 2 1
v 0.5 2 -0
v 1.5 1 -0
v 1.5 1 -1
v 1.5 2 1
v 1.5 2 -0
v 1.5 2 -1
v 1.5 3 1
v 1.5 3 -0
v 2.5 2 -0
v 2.5 2 -1
v 2.5 3 1
v 2.5 3 -0
v 2.5 3 -1
v 2.5 4 1
v 2.5 4 -0
v 3.5 3 -0
v 3.5 3 -1
v 3.5 4 1
v 3.5 4 -0
v 3.5 4 -1
v 3.5 5 1
v 3.5 5 -0
v 4.5 4 -0
v 4.5 4 -1
v 4.5 5 1
v 4.5 5 -0
v 4.5 5 -1
v 4.5 6 1
v 4.5 6 -0
v 5.5 5 -0
v 5.5 5 -1
v 5.5 6 1
v 5.5 6 -0
v 5.5 6 -1
v 5.5 7 1
v 5.5 7 -0
v 5.5 11 1
v 5.5 11 -0
v 5.5 12 1
v 5.5 12 -0
v 5.5 12 -1
v 5.5 13 -0
v 5.5 13 -1
v 6.5 6 -0
v 6.5 6 -1
v 6.5 7 1
v 6.5 7 -0
v 6.5 7 -1
v 6.5 11 1
v 6.5 11 -0
v 6.5 11 -1
v 6.5 12 -0
v 6.5 12 -1
v 7.5 7 -0
v 7.5 7 -1
v 7.5 11 -0
v 7.5 11 -1
v -6.5 7 1
v -6.5 11 1
v -5.5 6 1
v -5.5 7 1
v -5.5 8 1
v -5.5 10 1
v -5.5 11 1
v -5.5 12 1
v -4.5 5 1
v -4.5 6 1
v -4.5 8 1
v -4.5 9 1
v -4.5 10 1
v -4.5 11 1
v -3.5 4 1
v -3.5 5 1
v -3.5 9 1
v -3.5 10 1
v -2.5 3 1
v -2.5 4 1
v -2.5 10 1
v -2.5 11 1
v -1.5 2 1
v -1.5 3 1
v -1.5 11 1
v -1.5 12 1
v -0.5 1 1
v -0.5 2 1
v -0.5 10 1
v -0.5 11 1
v 0.5 1 1
v 0.5 2 1
v 0.5 10 1
v 0.5 11 1
v 1.5 2 1
v 1.5 3 1
v 1.5 11 1
v 1.5 12 1
v 2.5 3 1
v 2.5 4 1
v 3.5 4 1
v 3.5 5 1
v 4.5 5 1
v 4.5 6 1
v 5.5 6 1
v 5.5 7 1
v 5.5 11 1
v 5.5 12 1
v 6.5 7 1
v 6.5 11 1
v -7.5 7 -0
v -7.5 11 -0
v -6.5 6 -0
v -6.5 7 -0
v -6.5 11 -0
v -6.5 12 -0
v -5.5 5 -0
v -5.5 6 -0
v -5.5 7 -0
v -5.5 11 -0
v -5.5 12 -0
v -5.5 13 -0
v -4.5 4 -0
v -4.5 5 -0
v -4.5 6 -0
v -3.5 3 -0
v -3.5 4 -0
v -3.5 5 -0
v -2.5 2 -0
v -2.5 3 -0
v -2.5 4 -0
v -1.5 1 -0
v -1.5 2 -0
v -1.5 3 -0
v -1.5 11 -0
v -1.5 12 -0
v -1.5 13 -0
v -0.5 0 -0
v -0.5 1 -0
v -0.5 2 -0
v -0.5 10 -0
v -0.5 11 -0
v -0.5 12 -0
v 0.5 0 -0
v 0.5 1 -0
v 0.5 2 -0
v 0.5 10 -0
v 0.5 11 -0
v 0.5 12 -0
v 1.5 1 -0
v 1.5 2 -0
v 1.5 3 -0
v 1.5 11 -0
v 1.5 12 -0
v 1.5 13 -0
v 2.5 2 -0
v 2.5 3 -0
v 2.5 4 -0
v 3.5 3 -0
v 3.5 4 -0
v 3.5 5 -0
v 4.5 4 -0
v 4.5 5 -0
v 4.5 6 -0
v 5.5 5 -0
v 5.5 6 -0
v 5.5 7 -0
v 5.5 11 -0
v 5.5 12 -0
v 5.5 13 -0
v 6.5 6 -0
v 6.5 7 -0
v 6.5 11 -0
v 6.5 12 -0
v 7.5 7 -0
v 7.5 11 -0
v -7.5 7 -1
v -7.5 11 -1
v -6.5 6 -1
v -6.5 7 -1
v -6.5 11 -1
v -6.5 12 -1
v -5.5 5 -1
v -5.5 6 -1
v -5.5 7 -1
v -5.5 8 -1
v -5.5 10 -1
v -5.5 11 -1
v -5.5 12 -1
v -5.5 13 -1
v -4.5 4 -1
v -4.5 5 -1
v -4.5 6 -1
v -4.5 8 -1
v -4.5 9 -1
v -4.5 10 -1
v -4.5 11 -1
v -3.5 3 -1
v -3.5 4 -1
v -3.5 5 -1
v -3.5 9 -1
v -3.5 10 -1
v -2.5 2 -1
v -2.5 3 -1
v -2.5 4 -1
v -2.5 10 -1
v -2.5 11 -1
v -1.5 1 -1
v -1.5 2 -1
v -1.5 3 -1
v -1.5 11 -1
v -1.5 12 -1
v -1.5 13 -1
v -0.5 0 -1
v -0.5 1 -1
v -0.5 2 -1
v -0.5 10 -1
v -0.5 11 -1
v -0.5 12 -1
v 0.5 0 -1
v 0.5 1 -1
v 0.5 2 -1
v 0.5 10 -1
v 0.5 11 -1
v 0.5 12 -1
v 1.5 1 -1
v 1.5 2 -1
v 1.5 3 -1
v 1.5 11 -1
v 1.5 12 -1
v 1.5 13 -1
v 2.5 2 -1
v 2.5 3 -1
v 2.5 4 -1
v 3.5 3 -1
v 3.5 4 -1
v 3.5 5 -1
v 4.5 4 -1
v 4.5 5 -1
v 4.5 6 -1
v 5.5 5 -1
v 5.5 6 -1
v 5.5 7 -1
v 5.5 11 -1
v 5.5 12 -1
v 5.5 13 -1
v 6.5 6 -1
v 6.5 7 -1
v 6.5 11 -1
v 6.5 12 -1
v 7.5 7 -1
v 7.5 11 -1
v -0.5 0 -0
v 0.5 0 -0
v -0.5 0 -1
v 0.5 0 -1
v -0.5 1 1
v 0.5 1 1
v -1.5 1 -0
v -0.5 1 -0
v 0.5 1 -0
v 1.5 1 -0
v -1.5 1 -1
v -0.5 1 -1
v 0.5 1 -1
v 1.5 1 -1
v -1.5 2 1
v -0.5 2 1
v 0.5 2 1
v 1.5 2 1
v -2.5 2 -0
v -1.5 2 -0
v -0.5 2 -0
v 0.5 2 -0
v 1.5 2 -0
v 2.5 2 -0
v -2.5 2 -1
v -1.5 2 -1
v 1.5 2 -1
v 2.5 2 -1
v -2.5 3 1
v -1.5 3 1
v 1.5 3 1
v 2.5 3 1
v -3.5 3 -0
v -2.5 3 -0
v -1.5 3 -0
v 1.5 3 -0
v 2.5 3 -0
v 3.5 3 -0
v -3.5 3 -1
v -2.5 3 -1
v 2.5 3 -1
v 3.5 3 -1
v -3.5 4 1
v -2.5 4 1
v 2.5 4 1
v 3.5 4 1
v -4.5 4 -0
v -3.5 4 -0
v -2.5 4 -0
v 2.5 4 -0
v 3.5 4 -0
v 4.5 4 -0
v -4.5 4 -1
v -3.5 4 -1
v 3.5 4 -1
v 4.5 4 -1
v -4.5 5 1
v -3.5 5 1
v 3.5 5 1
v 4.5 5 1
v -5.5 5 -0
v -4.5 5 -0
v -3.5 5 -0
v 3.5 5 -0
v 4.5 5 -0
v 5.5 5 -0
v -5.5 5 -1
v -4.5 5 -1
v 4.5 5 -1
v 5.5 5 -1
v -5.5 6 1
v -4.5 6 1
v 4.5 6 1
v 5.5 6 1
v -6.5 6 -0
v -5.5 6 -0
v -4.5 6 -0
v 4.5 6 -0
v 5.5 6 -0
v 6.5 6 -0
v -6.5 6 -1
v -5.5 6 -1
v 5.5 6 -1
v 6.5 6 -1
v -6.5 7 1
v -5.5 7 1
v 5.5 7 1
v 6.5 7 1
v -7.5 7 -0
v -6.5 7 -0
v -5.5 7 -0
v 5.5 7 -0
v 6.5 7 -0
v 7.5 7 -0
v -7.5 7 -1
v -6.5 7 -1
v 6.5 7 -1
v 7.5 7 -1
v -0.5 10 1
v 0.5 10 1
v -0.5 10 -0
v 0.5 10 -0
v -6.5 11 1
v -5.5 11 1
v -1.5 11 1
v -0.5 11 1
v 0.5 11 1
v 1.5 11 1
v 5.5 11 1
v 6.5 11 1
v -7.5 11 -0
v -6.5 11 -0
v -5.5 11 -0
v -1.5 11 -0
v -0.5 11 -0
v 0.5 11 -0
v 1.5 11 -0
v 5.5 11 -0
v 6.5 11 -0
v 7.5 11 -0
v -7.5 11 -1
v -6.5 11 -1
v -0.5 11 -1
v 0.5 11 -1
v 6.5 11 -1
v 7.5 11 -1
v -5.5 12 1
v -1.5 12 1
v 1.5 12 1
v 5.5 12 1
v -6.5 12 -0
v -5.5 12 -0
v -1.5 12 -0
v -0.5 12 -0
v 0.5 12 -0
v 1.5 12 -0
v 5.5 12 -0
v 6.5 12 -0
v -6.5 12 -1
v -5.5 12 -1
v -1.5 12 -1
v -0.5 12 -1
v 0.5 12 -1
v 1.5 12 -1
v 5.5 12 -1
v 6.5 12 -1
v -5.5 13 -0
v -1.5 13 -0
v 1.5 13 -0
v 5.5 13 -0
v -5.5 13 -1
v -1.5 13 -1
v 1.5 13 -1
v 5.5 13 -1

# faces
f 3/2/1 2/2/1 1/2/1
f 4/2/1 2/2/1 3/2/1
f 8/2/1 6/2/1 5/2/1
f 9/2/1 6/2/1 8/2/1
f 10/3/1 8/3/1 7/3/1
f 11/3/1 8/3/1 10/3/1
f 13/2/1 12/2/1 11/2/1
f 14/2/1 12/2/1 13/2/1
f 18/2/1 16/2/1 15/2/1
f 19/2/1 16/2/1 18/2/1
f 20/3/1 18/3/1 17/3/1
f 21/3/1 18/3/1 20/3/1
f 24/3/1 23/3/1 22/3/1
f 25/3/1 23/3/1 24/3/1
f 27/2/1 26/2/1 25/2/1
f 28/2/1 26/2/1 27/2/1
f 32/2/1 30/2/1 29/2/1
f 33/2/1 30/2/1 32/2/1
f 34/3/1 32/3/1 31/3/1
f 35/3/1 32/3/1 34/3/1
f 39/2/1 37/2/1 36/2/1
f 40/2/1 37/2/1 39/2/1
f 41/3/1 39/3/1 38/3/1
f 42/3/1 39/3/1 41/3/1
f 46/2/1 44/2/1 43/2/1
f 47/2/1 44/2/1 46/2/1
f 48/3/1 46/3/1 45/3/1
f 49/3/1 46/3/1 48/3/1
f 53/2/1 51/2/1 50/2/1
f 54/2/1 51/2/1 53/2/1
f 55/3/1 53/3/1 52/3/1
f 56/3/1 53/3/1 55/3/1
f 60/2/1 58/2/1 57/2/1
f 61/2/1 58/2/1 60/2/1
f 62/3/1 60/3/1 59/3/1
f 63/3/1 60/3/1 62/3/1
f 66/3/1 65/3/1 64/3/1
f 67/3/1 65/3/1 66/3/1
f 69/2/1 68/2/1 67/2/1
f 70/2/1 68/2/1 69/2/1
f 73/3/1 72/3/1 71/3/1
f 74/3/1 72/3/1 73/3/1
f 76/2/1 75/2/1 74/2/1
f 77/2/1 75/2/1 76/2/1
f 78/3/2 79/3/2 80/3/2
f 80/3/2 79/3/2 81/3/2
f 81/2/2 82/2/2 83/2/2
f 83/2/2 82/2/2 84/2/2
f 85/3/2 86/3/2 87/3/2
f 87/3/2 86/3/2 88/3/2
f 88/2/2 89/2/2 90/2/2
f 90/2/2 89/2/2 91/2/2
f 92/2/2 93/2/2 95/2/2
f 95/2/2 93/2/2 96/2/2
f 94/3/2 95/3/2 97/3/2
f 97/3/2 95/3/2 98/3/2
f 99/2/2 100/2/2 102/2/2
f 102/2/2 100/2/2 103/2/2
f 101/3/2 102/3/2 104/3/2
f 104/3/2 102/3/2 105/3/2
f 106/2/2 107/2/2 109/2/2
f 109/2/2 107/2/2 110/2/2
f 108/3/2 109/3/2 111/3/2
f 111/3/2 109/3/2 112/3/2
f 113/2/2 114/2/2 116/2/2
f 116/2/2 114/2/2 117/2/2
f 115/3/2 116/3/2 118/3/2
f 118/3/2 116/3/2 119/3/2
f 120/2/2 121/2/2 123/2/2
f 123/2/2 121/2/2 124/2/2
f 122/3/2 123/3/2 125/3/2
f 125/3/2 123/3/2 126/3/2
f 127/2/2 128/2/2 130/2/2
f 130/2/2 128/2/2 131/2/2
f 129/3/2 130/3/2 132/3/2
f 132/3/2 130/3/2 133/3/2
f 134/3/2 135/3/2 136/3/2
f 136/3/2 135/3/2 137/3/2
f 137/2/2 138/2/2 139/2/2
f 139/2/2 138/2/2 140/2/2
f 141/2/2 142/2/2 144/2/2
f 144/2/2 142/2/2 145/2/2
f 143/3/2 144/3/2 146/3/2
f 146/3/2 144/3/2 147/3/2
f 147/2/2 148/2/2 149/2/2
f 149/2/2 148/2/2 150/2/2
f 151/2/2 152/2/2 153/2/2
f 153/2/2 152/2/2 154/2/2
f 158/3/3 156/3/3 155/3/3
f 159/3/3 156/3/3 158/3/3
f 160/3/3 156/3/3 159/3/3
f 161/3/3 156/3/3 160/3/3
f 164/3/3 158/3/3 157/3/3
f 164/3/3 159/3/3 158/3/3
f 165/1/3 160/1/3 159/1/3
f 165/3/3 159/3/3 164/3/3
f 166/1/3 160/1/3 165/1/3
f 167/3/3 162/3/3 161/3/3
f 167/1/3 160/1/3 166/1/3
f 167/3/3 161/3/3 160/3/3
f 168/3/3 162/3/3 167/3/3
f 170/3/3 166/3/3 165/3/3
f 170/3/3 165/3/3 164/3/3
f 170/3/3 164/3/3 163/3/3
f 171/1/3 168/1/3 167/1/3
f 171/1/3 167/1/3 166/1/3
f 171/3/3 166/3/3 170/3/3
f 172/1/3 168/1/3 171/1/3
f 174/3/3 170/3/3 169/3/3
f 174/3/3 171/3/3 170/3/3
f 174/3/3 172/3/3 171/3/3
f 175/1/3 168/1/3 172/1/3
f 175/3/3 172/3/3 174/3/3
f 176/3/3 162/3/3 168/3/3
f 176/1/3 168/1/3 175/1/3
f 178/3/3 175/3/3 174/3/3
f 178/3/3 174/3/3 173/3/3
f 178/3/3 176/3/3 175/3/3
f 179/3/3 162/3/3 176/3/3
f 179/3/3 176/3/3 178/3/3
f 180/3/3 162/3/3 179/3/3
f 182/3/3 178/3/3 177/3/3
f 182/3/3 179/3/3 178/3/3
f 183/3/3 179/3/3 182/3/3
f 184/3/3 179/3/3 183/3/3
f 185/3/3 182/3/3 181/3/3
f 185/3/3 183/3/3 182/3/3
f 186/3/3 183/3/3 185/3/3
f 187/3/3 183/3/3 186/3/3
f 189/3/3 188/3/3 187/3/3
f 189/3/3 187/3/3 186/3/3
f 190/3/3 188/3/3 189/3/3
f 191/3/3 188/3/3 190/3/3
f 193/3/3 191/3/3 190/3/3
f 193/3/3 192/3/3 191/3/3
f 194/3/3 192/3/3 193/3/3
f 195/3/3 192/3/3 194/3/3
f 196/3/3 192/3/3 195/3/3
f 197/3/3 192/3/3 196/3/3
f 198/3/3 192/3/3 197/3/3
f 199/3/3 192/3/3 198/3/3
f 200/3/3 192/3/3 199/3/3
f 201/3/3 192/3/3 200/3/3
f 202/3/3 192/3/3 201/3/3
f 203/3/3 201/3/3 200/3/3
f 204/3/3 201/3/3 203/3/3
f 208/2/3 206/2/3 205/2/3
f 209/2/3 206/2/3 208/2/3
f 212/2/3 208/2/3 207/2/3
f 213/2/3 208/2/3 212/2/3
f 214/2/3 210/2/3 209/2/3
f 215/2/3 210/2/3 214/2/3
f 218/2/3 212/2/3 211/2/3
f 219/2/3 212/2/3 218/2/3
f 221/2/3 218/2/3 217/2/3
f 222/2/3 218/2/3 221/2/3
f 224/2/3 221/2/3 220/2/3
f 225/2/3 221/2/3 224/2/3
f 227/2/3 224/2/3 223/2/3
f 228/2/3 224/2/3 227/2/3
f 230/2/3 216/2/3 215/2/3
f 231/2/3 216/2/3 230/2/3
f 233/2/3 227/2/3 226/2/3
f 234/2/3 227/2/3 233/2/3
f 236/2/3 230/2/3 229/2/3
f 237/2/3 230/2/3 236/2/3
f 238/2/3 233/2/3 232/2/3
f 239/2/3 233/2/3 238/2/3
f 241/2/3 236/2/3 235/2/3
f 242/2/3 236/2/3 241/2/3
f 244/2/3 240/2/3 239/2/3
f 245/2/3 240/2/3 244/2/3
f 247/2/3 243/2/3 242/2/3
f 248/2/3 243/2/3 247/2/3
f 250/2/3 246/2/3 245/2/3
f 251/2/3 246/2/3 250/2/3
f 253/2/3 252/2/3 251/2/3
f 254/2/3 252/2/3 253/2/3
f 256/2/3 255/2/3 254/2/3
f 257/2/3 255/2/3 256/2/3
f 259/2/3 258/2/3 257/2/3
f 260/2/3 258/2/3 259/2/3
f 263/2/3 249/2/3 248/2/3
f 264/2/3 249/2/3 263/2/3
f 265/2/3 261/2/3 260/2/3
f 266/2/3 261/2/3 265/2/3
f 267/2/3 263/2/3 262/2/3
f 268/2/3 263/2/3 267/2/3
f 269/2/3 267/2/3 266/2/3
f 270/2/3 267/2/3 269/2/3
f 271/2/4 272/2/4 274/2/4
f 274/2/4 272/2/4 275/2/4
f 273/2/4 274/2/4 278/2/4
f 274/3/4 275/3/4 279/3/4
f 278/2/4 274/2/4 279/2/4
f 279/3/4 275/3/4 280/3/4
f 280/3/4 275/3/4 281/3/4
f 275/2/4 276/2/4 282/2/4
f 281/3/4 275/3/4 282/3/4
f 282/2/4 276/2/4 283/2/4
f 277/2/4 278/2/4 286/2/4
f 278/3/4 279/3/4 287/3/4
f 279/3/4 280/3/4 287/3/4
f 286/2/4 278/2/4 287/2/4
f 280/1/4 281/1/4 288/1/4
f 287/3/4 280/3/4 288/3/4
f 288/1/4 281/1/4 289/1/4
f 281/3/4 282/3/4 290/3/4
f 289/1/4 281/1/4 290/1/4
f 282/3/4 283/3/4 290/3/4
f 290/3/4 283/3/4 291/3/4
f 285/2/4 286/2/4 293/2/4
f 286/3/4 287/3/4 294/3/4
f 288/3/4 289/3/4 294/3/4
f 293/2/4 286/2/4 294/2/4
f 287/3/4 288/3/4 294/3/4
f 290/1/4 291/1/4 295/1/4
f 294/3/4 289/3/4 295/3/4
f 289/1/4 290/1/4 295/1/4
f 295/1/4 291/1/4 296/1/4
f 292/2/4 293/2/4 298/2/4
f 293/3/4 294/3/4 299/3/4
f 294/3/4 295/3/4 299/3/4
f 298/2/4 293/2/4 299/2/4
f 295/3/4 296/3/4 299/3/4
f 296/1/4 291/1/4 300/1/4
f 299/3/4 296/3/4 300/3/4
f 291/3/4 283/3/4 301/3/4
f 300/1/4 291/1/4 301/1/4
f 297/2/4 298/2/4 303/2/4
f 298/3/4 299/3/4 304/3/4
f 299/3/4 300/3/4 304/3/4
f 303/2/4 298/2/4 304/2/4
f 300/3/4 301/3/4 304/3/4
f 301/3/4 283/3/4 305/3/4
f 304/3/4 301/3/4 305/3/4
f 283/2/4 284/2/4 306/2/4
f 305/3/4 283/3/4 306/3/4
f 306/2/4 284/2/4 307/2/4
f 302/2/4 303/2/4 309/2/4
f 304/3/4 305/3/4 310/3/4
f 303/3/4 304/3/4 310/3/4
f 309/2/4 303/2/4 310/2/4
f 310/3/4 305/3/4 311/3/4
f 305/2/4 306/2/4 312/2/4
f 311/3/4 305/3/4 312/3/4
f 312/2/4 306/2/4 313/2/4
f 308/2/4 309/2/4 314/2/4
f 310/3/4 311/3/4 315/3/4
f 314/2/4 309/2/4 315/2/4
f 309/3/4 310/3/4 315/3/4
f 315/3/4 311/3/4 316/3/4
f 311/2/4 312/2/4 317/2/4
f 316/3/4 311/3/4 317/3/4
f 317/2/4 312/2/4 318/2/4
f 315/2/4 316/2/4 320/2/4
f 317/3/4 318/3/4 321/3/4
f 320/2/4 316/2/4 321/2/4
f 316/3/4 317/3/4 321/3/4
f 321/3/4 318/3/4 322/3/4
f 318/2/4 319/2/4 323/2/4
f 322/3/4 318/3/4 323/3/4
f 323/2/4 319/2/4 324/2/4
f 321/2/4 322/2/4 326/2/4
f 323/3/4 324/3/4 327/3/4
f 326/2/4 322/2/4 327/2/4
f 322/3/4 323/3/4 327/3/4
f 327/3/4 324/3/4 328/3/4
f 327/2/4 328/2/4 329/2/4
f 328/3/4 324/3/4 330/3/4
f 329/2/4 328/2/4 330/2/4
f 330/3/4 324/3/4 331/3/4
f 330/2/4 331/2/4 332/2/4
f 331/3/4 324/3/4 333/3/4
f 332/2/4 331/2/4 333/2/4
f 333/3/4 324/3/4 334/3/4
f 333/2/4 334/2/4 335/2/4
f 334/3/4 324/3/4 336/3/4
f 335/2/4 334/2/4 336/2/4
f 336/3/4 324/3/4 337/3/4
f 337/3/4 324/3/4 338/3/4
f 324/2/4 325/2/4 339/2/4
f 338/3/4 324/3/4 339/3/4
f 339/2/4 325/2/4 340/2/4
f 336/2/4 337/2/4 341/2/4
f 337/3/4 338/3/4 342/3/4
f 341/2/4 337/2/4 342/2/4
f 338/2/4 339/2/4 343/2/4
f 342/3/4 338/3/4 343/3/4
f 343/2/4 339/2/4 344/2/4
f 342/2/4 343/2/4 345/2/4
f 345/2/4 343/2/4 346/2/4
f 349/2/5 348/2/5 347/2/5
f 350/2/5 348/2/5 349/2/5
f 354/3/5 352/3/5 351/3/5
f 355/3/5 352/3/5 354/3/5
f 357/2/5 354/2/5 353/2/5
f 358/2/5 354/2/5 357/2/5
f 359/2/5 356/2/5 355/2/5
f 360/2/5 356/2/5 359/2/5
f 366/3/5 362/3/5 361/3/5
f 367/3/5 362/3/5 366/3/5
f 368/3/5 364/3/5 363/3/5
f 369/3/5 364/3/5 368/3/5
f 371/2/5 366/2/5 365/2/5
f 372/2/5 366/2/5 371/2/5
f 373/2/5 370/2/5 369/2/5
f 374/2/5 370/2/5 373/2/5
f 380/3/5 376/3/5 375/3/5
f 381/3/5 376/3/5 380/3/5
f 382/3/5 378/3/5 377/3/5
f 383/3/5 378/3/5 382/3/5
f 385/2/5 380/2/5 379/2/5
f 386/2/5 380/2/5 385/2/5
f 387/2/5 384/2/5 383/2/5
f 388/2/5 384/2/5 387/2/5
f 394/3/5 390/3/5 389/3/5
f 395/3/5 390/3/5 394/3/5
f 396/3/5 392/3/5 391/3/5
f 397/3/5 392/3/5 396/3/5
f 399/2/5 394/2/5 393/2/5
f 400/2/5 394/2/5 399/2/5
f 401/2/5 398/2/5 397/2/5
f 402/2/5 398/2/5 401/2/5
f 408/3/5 404/3/5 403/3/5
f 409/3/5 404/3/5 408/3/5
f 410/3/5 406/3/5 405/3/5
f 411/3/5 406/3/5 410/3/5
f 413/2/5 408/2/5 407/2/5
f 414/2/5 408/2/5 413/2/5
f 415/2/5 412/2/5 411/2/5
f 416/2/5 412/2/5 415/2/5
f 422/3/5 418/3/5 417/3/5
f 423/3/5 418/3/5 422/3/5
f 424/3/5 420/3/5 419/3/5
f 425/3/5 420/3/5 424/3/5
f 427/2/5 422/2/5 421/2/5
f 428/2/5 422/2/5 427/2/5
f 429/2/5 426/2/5 425/2/5
f 430/2/5 426/2/5 429/2/5
f 436/3/5 432/3/5 431/3/5
f 437/3/5 432/3/5 436/3/5
f 438/3/5 434/3/5 433/3/5
f 439/3/5 434/3/5 438/3/5
f 441/2/5 436/2/5 435/2/5
f 442/2/5 436/2/5 441/2/5
f 443/2/5 440/2/5 439/2/5
f 444/2/5 440/2/5 443/2/5
f 445/3/6 446/3/6 447/3/6
f 447/3/6 446/3/6 448/3/6
f 449/3/6 450/3/6 458/3/6
f 458/3/6 450/3/6 459/3/6
f 451/3/6 452/3/6 460/3/6
f 460/3/6 452/3/6 461/3/6
f 453/3/6 454/3/6 462/3/6
f 462/3/6 454/3/6 463/3/6
f 455/3/6 456/3/6 464/3/6
f 464/3/6 456/3/6 465/3/6
f 457/2/6 458/2/6 467/2/6
f 467/2/6 458/2/6 468/2/6
f 461/2/6 462/2/6 469/2/6
f 469/2/6 462/2/6 470/2/6
f 465/2/6 466/2/6 471/2/6
f 471/2/6 466/2/6 472/2/6
f 473/3/6 474/3/6 478/3/6
f 478/3/6 474/3/6 479/3/6
f 475/3/6 476/3/6 482/3/6
f 482/3/6 476/3/6 483/3/6
f 477/2/6 478/2/6 485/2/6
f 485/2/6 478/2/6 486/2/6
f 479/2/6 480/2/6 487/2/6
f 487/2/6 480/2/6 488/2/6
f 481/2/6 482/2/6 489/2/6
f 489/2/6 482/2/6 490/2/6
f 483/2/6 484/2/6 491/2/6
f 491/2/6 484/2/6 492/2/6
f 493/2/6 494/2/6 497/2/6
f 497/2/6 494/2/6 498/2/6
f 495/2/6 496/2/6 499/2/6
f 499/2/6 496/2/6 500/2/6
