# MagicaVoxel @ Ephtracy

# group
g mario_walking_3

# material
mtllib mario_walking_3.mtl
usemtl palette

# normals
vn -1 0 0
vn 1 0 0
vn 0 0 1
vn 0 0 -1
vn 0 -1 0
vn 0 1 0

# texcoords
vt 0.939453 0.5
vt 0.943359 0.5
vt 0.970703 0.5
vt 0.974609 0.5
vt 0.978516 0.5
vt 0.982422 0.5
vt 0.986328 0.5
vt 0.990234 0.5
vt 0.994141 0.5

# verts
v -9 28 -2
v -9 28 -4
v -9 30 2
v -9 30 -0
v -9 30 -2
v -9 30 -4
v -9 30 -9
v -9 32 -0
v -9 32 -4
v -9 36 6
v -9 36 2
v -9 38 8
v -9 38 6
v -9 38 -9
v -9 40 8
v -9 40 6
v -9 46 6
v -9 46 -9
v -8 9 2
v -8 9 -1
v -8 11 2
v -8 11 1
v -8 11 -1
v -8 11 -2
v -8 15 1
v -8 15 -0
v -8 15 -2
v -8 15 -3
v -8 23 -0
v -8 23 -3
v -7 24 4
v -7 24 -7
v -7 28 -2
v -7 28 -4
v -7 30 2
v -7 30 -0
v -7 30 -2
v -7 30 -4
v -7 30 -7
v -7 34 6
v -7 34 4
v -7 36 6
v -7 36 4
v -7 36 2
v -7 38 10
v -7 38 8
v -7 40 10
v -7 40 8
v -7 46 6
v -7 46 -9
v -7 48 6
v -7 48 -9
v -5 0 3
v -5 0 -4
v -5 2 3
v -5 2 1
v -5 4 1
v -5 4 -4
v -5 9 1
v -5 9 -1
v -5 11 -1
v -5 11 -2
v -5 12 2
v -5 12 1
v -5 12 -4
v -5 12 -5
v -5 15 1
v -5 15 -0
v -5 15 -2
v -5 15 -3
v -5 20 2
v -5 20 -0
v -5 22 2
v -5 22 -0
v -5 23 -0
v -5 23 -3
v -5 24 2
v -5 24 -5
v -3 26 6
v -3 26 4
v -3 28 6
v -3 28 4
v -3 30 6
v -3 30 4
v -3 34 6
v -3 34 4
v -1 28 6
v -1 28 4
v -1 30 6
v -1 30 4
v -1 36 6
v -1 36 4
v -1 38 6
v -1 38 4
v 2 0 3
v 2 0 -4
v 2 2 3
v 2 2 1
v 2 4 1
v 2 4 -4
v 2 12 1
v 2 12 -4
v 2 34 6
v 2 34 4
v 2 36 6
v 2 36 4
v 6 9 -4
v 6 9 -5
v 6 11 -4
v 6 11 -5
v -5 9 2
v -5 9 1
v -5 11 2
v -5 11 1
v -4 36 6
v -4 36 4
v -4 38 6
v -4 38 4
v -1 0 3
v -1 0 -4
v -1 2 3
v -1 2 1
v -1 4 1
v -1 4 -4
v -1 12 1
v -1 12 -4
v -1 34 6
v -1 34 4
v -1 36 6
v -1 36 4
v 2 28 6
v 2 28 4
v 2 30 6
v 2 30 4
v 4 26 6
v 4 26 4
v 4 28 6
v 4 28 4
v 4 30 6
v 4 30 4
v 4 34 6
v 4 34 4
v 6 0 3
v 6 0 -4
v 6 2 3
v 6 2 1
v 6 4 1
v 6 4 -4
v 6 9 -2
v 6 9 -4
v 6 11 -1
v 6 11 -2
v 6 12 2
v 6 12 1
v 6 12 -4
v 6 12 -5
v 6 15 -0
v 6 15 -1
v 6 15 -3
v 6 15 -4
v 6 20 2
v 6 20 -0
v 6 22 2
v 6 22 -0
v 6 23 -0
v 6 23 -3
v 6 24 2
v 6 24 -5
v 8 24 4
v 8 24 -7
v 8 28 -2
v 8 28 -4
v 8 30 2
v 8 30 -0
v 8 30 -2
v 8 30 -4
v 8 30 -7
v 8 34 6
v 8 34 4
v 8 36 6
v 8 36 4
v 8 36 2
v 8 38 10
v 8 38 8
v 8 40 10
v 8 40 8
v 8 46 6
v 8 46 -9
v 8 48 6
v 8 48 -9
v 9 9 -2
v 9 9 -5
v 9 11 -1
v 9 11 -2
v 9 11 -4
v 9 11 -5
v 9 15 -0
v 9 15 -1
v 9 15 -3
v 9 15 -4
v 9 23 -0
v 9 23 -3
v 10 28 -2
v 10 28 -4
v 10 30 2
v 10 30 -0
v 10 30 -2
v 10 30 -4
v 10 30 -9
v 10 32 -0
v 10 32 -4
v 10 36 6
v 10 36 2
v 10 38 8
v 10 38 6
v 10 38 -9
v 10 40 8
v 10 40 6
v 10 46 6
v 10 46 -9
v -7 38 10
v -7 40 10
v 8 38 10
v 8 40 10
v -9 38 8
v -9 40 8
v -7 38 8
v -7 40 8
v 8 38 8
v 8 40 8
v 10 38 8
v 10 40 8
v -9 36 6
v -9 38 6
v -9 40 6
v -9 46 6
v -7 34 6
v -7 36 6
v -7 46 6
v -7 48 6
v -5 40 6
v -5 44 6
v -4 36 6
v -4 38 6
v -3 26 6
v -3 28 6
v -3 30 6
v -3 34 6
v -3 40 6
v -3 42 6
v -3 44 6
v -3 46 6
v -1 28 6
v -1 30 6
v -1 34 6
v -1 36 6
v -1 38 6
v -1 40 6
v -1 42 6
v -1 44 6
v 1 40 6
v 1 42 6
v 2 28 6
v 2 30 6
v 2 34 6
v 2 36 6
v 2 42 6
v 2 44 6
v 4 26 6
v 4 28 6
v 4 30 6
v 4 34 6
v 4 40 6
v 4 42 6
v 4 44 6
v 4 46 6
v 6 40 6
v 6 44 6
v 8 34 6
v 8 36 6
v 8 46 6
v 8 48 6
v 10 36 6
v 10 38 6
v 10 40 6
v 10 46 6
v -7 24 4
v -7 34 4
v -4 36 4
v -4 38 4
v -3 26 4
v -3 28 4
v -3 30 4
v -3 34 4
v -1 28 4
v -1 30 4
v -1 34 4
v -1 36 4
v -1 38 4
v 2 28 4
v 2 30 4
v 2 34 4
v 2 36 4
v 4 26 4
v 4 28 4
v 4 30 4
v 4 34 4
v 8 24 4
v 8 34 4
v -5 0 3
v -5 2 3
v -1 0 3
v -1 2 3
v 2 0 3
v 2 2 3
v 6 0 3
v 6 2 3
v -9 30 2
v -9 36 2
v -8 9 2
v -8 11 2
v -7 30 2
v -7 36 2
v -5 9 2
v -5 11 2
v -5 12 2
v -5 20 2
v -5 22 2
v -5 24 2
v -3 20 2
v -3 22 2
v -3 24 2
v 4 20 2
v 4 22 2
v 4 24 2
v 6 12 2
v 6 20 2
v 6 22 2
v 6 24 2
v 8 30 2
v 8 36 2
v 10 30 2
v 10 36 2
v -8 11 1
v -8 15 1
v -5 2 1
v -5 4 1
v -5 9 1
v -5 11 1
v -5 12 1
v -5 15 1
v -1 2 1
v -1 4 1
v -1 12 1
v 2 2 1
v 2 4 1
v 2 12 1
v 6 2 1
v 6 4 1
v 6 12 1
v -8 15 -0
v -8 23 -0
v -5 15 -0
v -5 20 -0
v -5 22 -0
v -5 23 -0
v 6 15 -0
v 6 20 -0
v 6 22 -0
v 6 23 -0
v 9 15 -0
v 9 23 -0
v 6 11 -1
v 6 15 -1
v 9 11 -1
v 9 15 -1
v -9 28 -2
v -9 30 -2
v -7 28 -2
v -7 30 -2
v 6 9 -2
v 6 11 -2
v 8 28 -2
v 8 30 -2
v 9 9 -2
v 9 11 -2
v 10 28 -2
v 10 30 -2
v -8 9 -1
v -8 11 -1
v -5 9 -1
v -5 11 -1
v -8 11 -2
v -8 15 -2
v -5 11 -2
v -5 15 -2
v -8 15 -3
v -8 23 -3
v -5 15 -3
v -5 23 -3
v 6 15 -3
v 6 23 -3
v 9 15 -3
v 9 23 -3
v -9 28 -4
v -9 30 -4
v -7 28 -4
v -7 30 -4
v -5 0 -4
v -5 4 -4
v -5 12 -4
v -1 0 -4
v -1 4 -4
v -1 12 -4
v 2 0 -4
v 2 4 -4
v 2 12 -4
v 6 0 -4
v 6 4 -4
v 6 9 -4
v 6 11 -4
v 6 12 -4
v 6 15 -4
v 8 28 -4
v 8 30 -4
v 9 11 -4
v 9 15 -4
v 10 28 -4
v 10 30 -4
v -5 12 -5
v -5 24 -5
v -3 20 -5
v -3 24 -5
v 4 20 -5
v 4 24 -5
v 6 9 -5
v 6 11 -5
v 6 12 -5
v 6 24 -5
v 9 9 -5
v 9 11 -5
v -7 24 -7
v -7 30 -7
v 8 24 -7
v 8 30 -7
v -9 30 -9
v -9 38 -9
v -9 46 -9
v -7 46 -9
v -7 48 -9
v 8 46 -9
v 8 48 -9
v 10 30 -9
v 10 38 -9
v 10 46 -9
v -5 0 3
v -1 0 3
v 2 0 3
v 6 0 3
v -5 0 -4
v -1 0 -4
v 2 0 -4
v 6 0 -4
v -8 9 2
v -5 9 2
v -5 9 1
v -8 9 -1
v -5 9 -1
v 6 9 -2
v 9 9 -2
v 6 9 -4
v 6 9 -5
v 9 9 -5
v -8 11 -1
v -5 11 -1
v 6 11 -1
v 9 11 -1
v -8 11 -2
v -5 11 -2
v 6 11 -2
v 9 11 -2
v -5 12 2
v 6 12 2
v -5 12 1
v -1 12 1
v 2 12 1
v 6 12 1
v -5 12 -4
v -1 12 -4
v 2 12 -4
v 6 12 -4
v -5 12 -5
v 6 12 -5
v 6 15 -0
v 9 15 -0
v 6 15 -1
v 9 15 -1
v -8 15 -2
v -5 15 -2
v -8 15 -3
v -5 15 -3
v -7 24 4
v 8 24 4
v -5 24 2
v -3 24 2
v 4 24 2
v 6 24 2
v -5 24 -5
v -3 24 -5
v 4 24 -5
v 6 24 -5
v -7 24 -7
v 8 24 -7
v -3 26 6
v 4 26 6
v -3 26 4
v 4 26 4
v -9 28 -2
v -7 28 -2
v 8 28 -2
v 10 28 -2
v -9 28 -4
v -7 28 -4
v 8 28 -4
v 10 28 -4
v -3 30 6
v -1 30 6
v 2 30 6
v 4 30 6
v -3 30 4
v -1 30 4
v 2 30 4
v 4 30 4
v -9 30 2
v -7 30 2
v 8 30 2
v 10 30 2
v -9 30 -0
v -7 30 -0
v 8 30 -0
v 10 30 -0
v -9 30 -2
v -7 30 -2
v 8 30 -2
v 10 30 -2
v -9 30 -4
v -7 30 -4
v 8 30 -4
v 10 30 -4
v -7 30 -7
v 8 30 -7
v -9 30 -9
v 10 30 -9
v -7 34 6
v -3 34 6
v 4 34 6
v 8 34 6
v -7 34 4
v -3 34 4
v 4 34 4
v 8 34 4
v -9 36 6
v -7 36 6
v -1 36 6
v 2 36 6
v 8 36 6
v 10 36 6
v -7 36 4
v -1 36 4
v 2 36 4
v 8 36 4
v -9 36 2
v -7 36 2
v 8 36 2
v 10 36 2
v -7 38 10
v 8 38 10
v -9 38 8
v -7 38 8
v 8 38 8
v 10 38 8
v -9 38 6
v -4 38 6
v -1 38 6
v 10 38 6
v -4 38 4
v -1 38 4
v -5 2 3
v -1 2 3
v 2 2 3
v 6 2 3
v -5 2 1
v -1 2 1
v 2 2 1
v 6 2 1
v -8 11 2
v -5 11 2
v -8 11 1
v -5 11 1
v 6 11 -4
v 9 11 -4
v 6 11 -5
v 9 11 -5
v -8 15 1
v -5 15 1
v -8 15 -0
v -5 15 -0
v 6 15 -3
v 9 15 -3
v 6 15 -4
v 9 15 -4
v -8 23 -0
v -5 23 -0
v 6 23 -0
v 9 23 -0
v -8 23 -3
v -5 23 -3
v 6 23 -3
v 9 23 -3
v -3 28 6
v -1 28 6
v 2 28 6
v 4 28 6
v -3 28 4
v -1 28 4
v 2 28 4
v 4 28 4
v -1 34 6
v 2 34 6
v -1 34 4
v 2 34 4
v -4 36 6
v -1 36 6
v -4 36 4
v -1 36 4
v -7 40 10
v 8 40 10
v -9 40 8
v -7 40 8
v 8 40 8
v 10 40 8
v -9 40 6
v -5 40 6
v -3 40 6
v -1 40 6
v 1 40 6
v 4 40 6
v 6 40 6
v 10 40 6
v -9 46 6
v -7 46 6
v 8 46 6
v 10 46 6
v -9 46 -9
v -7 46 -9
v 8 46 -9
v 10 46 -9
v -7 48 6
v 8 48 6
v -7 48 -9
v 8 48 -9

# faces
f 5/9/1 2/9/1 1/9/1
f 6/9/1 2/9/1 5/9/1
f 8/1/1 4/1/1 3/1/1
f 8/9/1 5/9/1 4/9/1
f 8/9/1 6/9/1 5/9/1
f 9/1/1 7/1/1 6/1/1
f 9/9/1 6/9/1 8/9/1
f 11/1/1 8/1/1 3/1/1
f 11/1/1 9/1/1 8/1/1
f 13/1/1 11/1/1 10/1/1
f 14/1/1 7/1/1 9/1/1
f 14/1/1 9/1/1 11/1/1
f 14/1/1 11/1/1 13/1/1
f 15/6/1 13/6/1 12/6/1
f 15/6/1 14/6/1 13/6/1
f 16/6/1 14/6/1 15/6/1
f 17/6/1 14/6/1 16/6/1
f 18/6/1 14/6/1 17/6/1
f 21/2/1 20/2/1 19/2/1
f 22/2/1 20/2/1 21/2/1
f 23/2/1 20/2/1 22/2/1
f 25/6/1 24/6/1 23/6/1
f 25/6/1 23/6/1 22/6/1
f 26/6/1 24/6/1 25/6/1
f 27/6/1 24/6/1 26/6/1
f 29/6/1 28/6/1 27/6/1
f 29/6/1 27/6/1 26/6/1
f 30/6/1 28/6/1 29/6/1
f 33/7/1 32/7/1 31/7/1
f 34/7/1 32/7/1 33/7/1
f 35/7/1 33/7/1 31/7/1
f 36/7/1 33/7/1 35/7/1
f 37/7/1 33/7/1 36/7/1
f 38/7/1 32/7/1 34/7/1
f 39/7/1 32/7/1 38/7/1
f 41/7/1 35/7/1 31/7/1
f 42/8/1 41/8/1 40/8/1
f 43/7/1 35/7/1 41/7/1
f 43/8/1 41/8/1 42/8/1
f 44/7/1 35/7/1 43/7/1
f 47/6/1 46/6/1 45/6/1
f 48/6/1 46/6/1 47/6/1
f 51/6/1 50/6/1 49/6/1
f 52/6/1 50/6/1 51/6/1
f 55/3/1 54/3/1 53/3/1
f 56/3/1 54/3/1 55/3/1
f 57/3/1 54/3/1 56/3/1
f 58/3/1 54/3/1 57/3/1
f 59/4/1 58/4/1 57/4/1
f 60/4/1 58/4/1 59/4/1
f 61/4/1 58/4/1 60/4/1
f 62/4/1 58/4/1 61/4/1
f 65/4/1 58/4/1 62/4/1
f 67/4/1 64/4/1 63/4/1
f 69/4/1 65/4/1 62/4/1
f 69/4/1 66/4/1 65/4/1
f 70/4/1 66/4/1 69/4/1
f 71/4/1 68/4/1 67/4/1
f 71/4/1 67/4/1 63/4/1
f 72/4/1 68/4/1 71/4/1
f 73/5/1 72/5/1 71/5/1
f 74/5/1 72/5/1 73/5/1
f 75/4/1 74/4/1 73/4/1
f 76/4/1 66/4/1 70/4/1
f 77/4/1 75/4/1 73/4/1
f 77/4/1 76/4/1 75/4/1
f 78/4/1 66/4/1 76/4/1
f 78/4/1 76/4/1 77/4/1
f 81/8/1 80/8/1 79/8/1
f 82/8/1 80/8/1 81/8/1
f 85/8/1 84/8/1 83/8/1
f 86/8/1 84/8/1 85/8/1
f 89/9/1 88/9/1 87/9/1
f 90/9/1 88/9/1 89/9/1
f 93/1/1 92/1/1 91/1/1
f 94/1/1 92/1/1 93/1/1
f 97/3/1 96/3/1 95/3/1
f 98/3/1 96/3/1 97/3/1
f 99/3/1 96/3/1 98/3/1
f 100/3/1 96/3/1 99/3/1
f 101/4/1 100/4/1 99/4/1
f 102/4/1 100/4/1 101/4/1
f 105/8/1 104/8/1 103/8/1
f 106/8/1 104/8/1 105/8/1
f 109/2/1 108/2/1 107/2/1
f 110/2/1 108/2/1 109/2/1
f 111/2/2 112/2/2 113/2/2
f 113/2/2 112/2/2 114/2/2
f 115/1/2 116/1/2 117/1/2
f 117/1/2 116/1/2 118/1/2
f 119/3/2 120/3/2 121/3/2
f 121/3/2 120/3/2 122/3/2
f 122/3/2 120/3/2 123/3/2
f 123/3/2 120/3/2 124/3/2
f 123/4/2 124/4/2 125/4/2
f 125/4/2 124/4/2 126/4/2
f 127/8/2 128/8/2 129/8/2
f 129/8/2 128/8/2 130/8/2
f 131/9/2 132/9/2 133/9/2
f 133/9/2 132/9/2 134/9/2
f 135/8/2 136/8/2 137/8/2
f 137/8/2 136/8/2 138/8/2
f 139/8/2 140/8/2 141/8/2
f 141/8/2 140/8/2 142/8/2
f 143/3/2 144/3/2 145/3/2
f 145/3/2 144/3/2 146/3/2
f 146/3/2 144/3/2 147/3/2
f 147/3/2 144/3/2 148/3/2
f 147/4/2 148/4/2 149/4/2
f 149/4/2 148/4/2 150/4/2
f 147/4/2 149/4/2 151/4/2
f 151/4/2 149/4/2 152/4/2
f 147/4/2 151/4/2 154/4/2
f 154/4/2 151/4/2 157/4/2
f 153/4/2 154/4/2 157/4/2
f 157/4/2 151/4/2 158/4/2
f 155/4/2 156/4/2 160/4/2
f 153/4/2 157/4/2 161/4/2
f 161/4/2 157/4/2 162/4/2
f 161/5/2 162/5/2 163/5/2
f 163/5/2 162/5/2 164/5/2
f 163/4/2 164/4/2 165/4/2
f 159/4/2 160/4/2 166/4/2
f 163/4/2 165/4/2 167/4/2
f 165/4/2 166/4/2 167/4/2
f 166/4/2 160/4/2 168/4/2
f 167/4/2 166/4/2 168/4/2
f 160/4/2 156/4/2 168/4/2
f 169/7/2 170/7/2 171/7/2
f 171/7/2 170/7/2 172/7/2
f 169/7/2 171/7/2 173/7/2
f 173/7/2 171/7/2 174/7/2
f 174/7/2 171/7/2 175/7/2
f 172/7/2 170/7/2 176/7/2
f 176/7/2 170/7/2 177/7/2
f 169/7/2 173/7/2 179/7/2
f 178/8/2 179/8/2 180/8/2
f 179/7/2 173/7/2 181/7/2
f 180/8/2 179/8/2 181/8/2
f 181/7/2 173/7/2 182/7/2
f 183/6/2 184/6/2 185/6/2
f 185/6/2 184/6/2 186/6/2
f 187/6/2 188/6/2 189/6/2
f 189/6/2 188/6/2 190/6/2
f 191/2/2 192/2/2 194/2/2
f 194/2/2 192/2/2 195/2/2
f 195/2/2 192/2/2 196/2/2
f 193/6/2 194/6/2 198/6/2
f 194/6/2 195/6/2 198/6/2
f 198/6/2 195/6/2 199/6/2
f 199/6/2 195/6/2 200/6/2
f 197/6/2 198/6/2 201/6/2
f 198/6/2 199/6/2 201/6/2
f 201/6/2 199/6/2 202/6/2
f 203/9/2 204/9/2 207/9/2
f 207/9/2 204/9/2 208/9/2
f 205/1/2 206/1/2 210/1/2
f 206/9/2 207/9/2 210/9/2
f 207/9/2 208/9/2 210/9/2
f 208/1/2 209/1/2 211/1/2
f 210/9/2 208/9/2 211/9/2
f 205/1/2 210/1/2 213/1/2
f 210/1/2 211/1/2 213/1/2
f 212/1/2 213/1/2 215/1/2
f 211/1/2 209/1/2 216/1/2
f 213/1/2 211/1/2 216/1/2
f 215/1/2 213/1/2 216/1/2
f 214/6/2 215/6/2 217/6/2
f 215/6/2 216/6/2 217/6/2
f 217/6/2 216/6/2 218/6/2
f 218/6/2 216/6/2 219/6/2
f 219/6/2 216/6/2 220/6/2
f 223/6/3 222/6/3 221/6/3
f 224/6/3 222/6/3 223/6/3
f 227/6/3 226/6/3 225/6/3
f 228/6/3 226/6/3 227/6/3
f 231/6/3 230/6/3 229/6/3
f 232/6/3 230/6/3 231/6/3
f 238/1/3 234/1/3 233/1/3
f 239/6/3 236/6/3 235/6/3
f 241/6/3 239/6/3 235/6/3
f 241/6/3 240/6/3 239/6/3
f 242/6/3 240/6/3 241/6/3
f 243/8/3 238/8/3 237/8/3
f 243/1/3 234/1/3 238/1/3
f 244/1/3 234/1/3 243/1/3
f 248/8/3 243/8/3 237/8/3
f 249/2/3 242/2/3 241/2/3
f 250/2/3 242/2/3 249/2/3
f 251/6/3 240/6/3 242/6/3
f 251/2/3 242/2/3 250/2/3
f 252/6/3 240/6/3 251/6/3
f 253/8/3 246/8/3 245/8/3
f 254/8/3 248/8/3 247/8/3
f 255/8/3 243/8/3 248/8/3
f 255/8/3 248/8/3 254/8/3
f 256/8/3 243/8/3 255/8/3
f 258/6/3 250/6/3 249/6/3
f 259/2/3 251/2/3 250/2/3
f 259/6/3 250/6/3 258/6/3
f 259/2/3 252/2/3 251/2/3
f 260/2/3 252/2/3 259/2/3
f 261/2/3 259/2/3 258/2/3
f 262/6/3 260/6/3 259/6/3
f 262/2/3 259/2/3 261/2/3
f 263/8/3 253/8/3 245/8/3
f 263/9/3 254/9/3 253/9/3
f 263/9/3 255/9/3 254/9/3
f 264/9/3 255/9/3 263/9/3
f 265/9/3 255/9/3 264/9/3
f 266/1/3 257/1/3 256/1/3
f 267/6/3 260/6/3 262/6/3
f 267/6/3 262/6/3 261/6/3
f 268/2/3 252/2/3 260/2/3
f 268/6/3 260/6/3 267/6/3
f 269/8/3 263/8/3 245/8/3
f 270/8/3 263/8/3 269/8/3
f 271/8/3 265/8/3 264/8/3
f 271/8/3 266/8/3 265/8/3
f 272/8/3 266/8/3 271/8/3
f 273/6/3 267/6/3 261/6/3
f 274/2/3 268/2/3 267/2/3
f 274/6/3 267/6/3 273/6/3
f 275/2/3 252/2/3 268/2/3
f 275/2/3 268/2/3 274/2/3
f 276/6/3 240/6/3 252/6/3
f 276/2/3 252/2/3 275/2/3
f 277/2/3 275/2/3 274/2/3
f 277/2/3 274/2/3 273/2/3
f 278/6/3 276/6/3 275/6/3
f 278/2/3 275/2/3 277/2/3
f 279/8/3 266/8/3 272/8/3
f 280/1/3 257/1/3 266/1/3
f 280/8/3 266/8/3 279/8/3
f 281/6/3 240/6/3 276/6/3
f 281/6/3 276/6/3 278/6/3
f 281/6/3 278/6/3 277/6/3
f 282/6/3 240/6/3 281/6/3
f 283/1/3 257/1/3 280/1/3
f 284/1/3 257/1/3 283/1/3
f 285/6/3 281/6/3 277/6/3
f 286/6/3 281/6/3 285/6/3
f 291/7/3 288/7/3 287/7/3
f 292/7/3 288/7/3 291/7/3
f 293/7/3 288/7/3 292/7/3
f 294/7/3 288/7/3 293/7/3
f 295/7/3 293/7/3 292/7/3
f 296/7/3 293/7/3 295/7/3
f 298/7/3 290/7/3 289/7/3
f 299/7/3 290/7/3 298/7/3
f 302/7/3 298/7/3 297/7/3
f 303/7/3 298/7/3 302/7/3
f 304/7/3 291/7/3 287/7/3
f 305/7/3 301/7/3 300/7/3
f 306/7/3 301/7/3 305/7/3
f 308/7/3 304/7/3 287/7/3
f 308/7/3 307/7/3 306/7/3
f 308/7/3 306/7/3 305/7/3
f 308/7/3 305/7/3 304/7/3
f 309/7/3 307/7/3 308/7/3
f 312/3/3 311/3/3 310/3/3
f 313/3/3 311/3/3 312/3/3
f 316/3/3 315/3/3 314/3/3
f 317/3/3 315/3/3 316/3/3
f 322/1/3 319/1/3 318/1/3
f 323/1/3 319/1/3 322/1/3
f 324/2/3 321/2/3 320/2/3
f 325/2/3 321/2/3 324/2/3
f 330/4/3 327/4/3 326/4/3
f 330/5/3 328/5/3 327/5/3
f 331/4/3 329/4/3 328/4/3
f 331/5/3 328/5/3 330/5/3
f 332/4/3 329/4/3 331/4/3
f 333/4/3 330/4/3 326/4/3
f 333/6/3 331/6/3 330/6/3
f 333/6/3 332/6/3 331/6/3
f 334/6/3 332/6/3 333/6/3
f 335/6/3 332/6/3 334/6/3
f 336/4/3 333/4/3 326/4/3
f 337/5/3 334/5/3 333/5/3
f 337/4/3 333/4/3 336/4/3
f 338/4/3 335/4/3 334/4/3
f 338/5/3 334/5/3 337/5/3
f 339/4/3 335/4/3 338/4/3
f 342/1/3 341/1/3 340/1/3
f 343/1/3 341/1/3 342/1/3
f 349/6/3 345/6/3 344/6/3
f 350/6/3 345/6/3 349/6/3
f 351/6/3 345/6/3 350/6/3
f 352/3/3 347/3/3 346/3/3
f 353/4/3 348/4/3 347/4/3
f 353/3/3 347/3/3 352/3/3
f 353/4/3 349/4/3 348/4/3
f 353/4/3 350/4/3 349/4/3
f 354/4/3 350/4/3 353/4/3
f 358/3/3 356/3/3 355/3/3
f 359/4/3 357/4/3 356/4/3
f 359/3/3 356/3/3 358/3/3
f 360/4/3 357/4/3 359/4/3
f 363/6/3 362/6/3 361/6/3
f 364/6/3 362/6/3 363/6/3
f 365/6/3 362/6/3 364/6/3
f 366/6/3 362/6/3 365/6/3
f 371/6/3 368/6/3 367/6/3
f 371/6/3 370/6/3 369/6/3
f 371/6/3 369/6/3 368/6/3
f 372/6/3 370/6/3 371/6/3
f 375/6/3 374/6/3 373/6/3
f 376/6/3 374/6/3 375/6/3
f 379/9/3 378/9/3 377/9/3
f 380/9/3 378/9/3 379/9/3
f 385/2/3 382/2/3 381/2/3
f 386/2/3 382/2/3 385/2/3
f 387/9/3 384/9/3 383/9/3
f 388/9/3 384/9/3 387/9/3
f 389/2/4 390/2/4 391/2/4
f 391/2/4 390/2/4 392/2/4
f 393/6/4 394/6/4 395/6/4
f 395/6/4 394/6/4 396/6/4
f 397/6/4 398/6/4 399/6/4
f 399/6/4 398/6/4 400/6/4
f 401/6/4 402/6/4 403/6/4
f 403/6/4 402/6/4 404/6/4
f 405/9/4 406/9/4 407/9/4
f 407/9/4 406/9/4 408/9/4
f 409/3/4 410/3/4 412/3/4
f 410/4/4 411/4/4 413/4/4
f 412/3/4 410/3/4 413/3/4
f 413/4/4 411/4/4 414/4/4
f 415/3/4 416/3/4 418/3/4
f 416/4/4 417/4/4 419/4/4
f 418/3/4 416/3/4 419/3/4
f 419/4/4 417/4/4 420/4/4
f 420/4/4 417/4/4 421/4/4
f 421/4/4 417/4/4 422/4/4
f 421/6/4 422/6/4 426/6/4
f 422/6/4 423/6/4 426/6/4
f 426/6/4 423/6/4 427/6/4
f 424/9/4 425/9/4 428/9/4
f 428/9/4 425/9/4 429/9/4
f 430/4/4 431/4/4 432/4/4
f 432/4/4 431/4/4 433/4/4
f 430/4/4 432/4/4 434/4/4
f 432/6/4 433/6/4 434/6/4
f 434/6/4 433/6/4 435/6/4
f 430/4/4 434/4/4 438/4/4
f 434/4/4 435/4/4 438/4/4
f 438/4/4 435/4/4 439/4/4
f 436/2/4 437/2/4 440/2/4
f 440/2/4 437/2/4 441/2/4
f 442/7/4 443/7/4 444/7/4
f 444/7/4 443/7/4 445/7/4
f 447/6/4 448/6/4 449/6/4
f 447/6/4 449/6/4 451/6/4
f 449/6/4 450/6/4 451/6/4
f 451/6/4 450/6/4 452/6/4
f 446/1/4 447/1/4 453/1/4
f 447/6/4 451/6/4 454/6/4
f 453/1/4 447/1/4 454/1/4
f 454/6/4 451/6/4 455/6/4
f 460/3/5 457/3/5 456/3/5
f 461/3/5 457/3/5 460/3/5
f 462/3/5 459/3/5 458/3/5
f 463/3/5 459/3/5 462/3/5
f 466/2/5 465/2/5 464/2/5
f 467/2/5 466/2/5 464/2/5
f 468/2/5 466/2/5 467/2/5
f 471/2/5 470/2/5 469/2/5
f 472/2/5 470/2/5 471/2/5
f 473/2/5 470/2/5 472/2/5
f 478/6/5 475/6/5 474/6/5
f 479/6/5 475/6/5 478/6/5
f 480/6/5 477/6/5 476/6/5
f 481/6/5 477/6/5 480/6/5
f 484/4/5 483/4/5 482/4/5
f 485/4/5 483/4/5 484/4/5
f 486/4/5 483/4/5 485/4/5
f 487/4/5 483/4/5 486/4/5
f 489/4/5 486/4/5 485/4/5
f 490/4/5 486/4/5 489/4/5
f 492/4/5 489/4/5 488/4/5
f 492/4/5 491/4/5 490/4/5
f 492/4/5 490/4/5 489/4/5
f 493/4/5 491/4/5 492/4/5
f 496/6/5 495/6/5 494/6/5
f 497/6/5 495/6/5 496/6/5
f 500/6/5 499/6/5 498/6/5
f 501/6/5 499/6/5 500/6/5
f 504/7/5 503/7/5 502/7/5
f 505/7/5 503/7/5 504/7/5
f 506/7/5 503/7/5 505/7/5
f 507/7/5 503/7/5 506/7/5
f 508/7/5 504/7/5 502/7/5
f 511/7/5 503/7/5 507/7/5
f 512/7/5 510/7/5 509/7/5
f 512/7/5 511/7/5 510/7/5
f 512/7/5 508/7/5 502/7/5
f 512/7/5 509/7/5 508/7/5
f 513/7/5 503/7/5 511/7/5
f 513/7/5 511/7/5 512/7/5
f 516/8/5 515/8/5 514/8/5
f 517/8/5 515/8/5 516/8/5
f 522/9/5 519/9/5 518/9/5
f 523/9/5 519/9/5 522/9/5
f 524/9/5 521/9/5 520/9/5
f 525/9/5 521/9/5 524/9/5
f 530/8/5 527/8/5 526/8/5
f 531/8/5 527/8/5 530/8/5
f 532/8/5 529/8/5 528/8/5
f 533/8/5 529/8/5 532/8/5
f 538/1/5 535/1/5 534/1/5
f 539/1/5 535/1/5 538/1/5
f 540/1/5 537/1/5 536/1/5
f 541/1/5 537/1/5 540/1/5
f 542/9/5 539/9/5 538/9/5
f 543/9/5 539/9/5 542/9/5
f 544/9/5 541/9/5 540/9/5
f 545/9/5 541/9/5 544/9/5
f 550/1/5 547/1/5 546/1/5
f 551/1/5 549/1/5 548/1/5
f 552/1/5 550/1/5 546/1/5
f 552/1/5 551/1/5 550/1/5
f 553/1/5 549/1/5 551/1/5
f 553/1/5 551/1/5 552/1/5
f 558/8/5 555/8/5 554/8/5
f 559/8/5 555/8/5 558/8/5
f 560/8/5 557/8/5 556/8/5
f 561/8/5 557/8/5 560/8/5
f 568/1/5 563/1/5 562/1/5
f 569/1/5 565/1/5 564/1/5
f 570/1/5 565/1/5 569/1/5
f 571/1/5 567/1/5 566/1/5
f 572/1/5 568/1/5 562/1/5
f 573/1/5 568/1/5 572/1/5
f 574/1/5 567/1/5 571/1/5
f 575/1/5 567/1/5 574/1/5
f 579/6/5 577/6/5 576/6/5
f 580/6/5 577/6/5 579/6/5
f 582/6/5 579/6/5 578/6/5
f 582/6/5 581/6/5 580/6/5
f 582/6/5 580/6/5 579/6/5
f 583/6/5 581/6/5 582/6/5
f 584/6/5 581/6/5 583/6/5
f 585/6/5 581/6/5 584/6/5
f 586/6/5 584/6/5 583/6/5
f 587/6/5 584/6/5 586/6/5
f 588/3/6 589/3/6 592/3/6
f 592/3/6 589/3/6 593/3/6
f 590/3/6 591/3/6 594/3/6
f 594/3/6 591/3/6 595/3/6
f 596/2/6 597/2/6 598/2/6
f 598/2/6 597/2/6 599/2/6
f 600/2/6 601/2/6 602/2/6
f 602/2/6 601/2/6 603/2/6
f 604/6/6 605/6/6 606/6/6
f 606/6/6 605/6/6 607/6/6
f 608/6/6 609/6/6 610/6/6
f 610/6/6 609/6/6 611/6/6
f 612/6/6 613/6/6 616/6/6
f 616/6/6 613/6/6 617/6/6
f 614/6/6 615/6/6 618/6/6
f 618/6/6 615/6/6 619/6/6
f 620/8/6 621/8/6 624/8/6
f 624/8/6 621/8/6 625/8/6
f 622/8/6 623/8/6 626/8/6
f 626/8/6 623/8/6 627/8/6
f 628/9/6 629/9/6 630/9/6
f 630/9/6 629/9/6 631/9/6
f 632/8/6 633/8/6 634/8/6
f 634/8/6 633/8/6 635/8/6
f 636/6/6 637/6/6 639/6/6
f 639/6/6 637/6/6 640/6/6
f 638/6/6 639/6/6 642/6/6
f 640/6/6 641/6/6 642/6/6
f 639/6/6 640/6/6 642/6/6
f 642/6/6 641/6/6 643/6/6
f 643/6/6 641/6/6 644/6/6
f 644/6/6 641/6/6 645/6/6
f 645/6/6 641/6/6 646/6/6
f 646/6/6 641/6/6 647/6/6
f 647/6/6 641/6/6 648/6/6
f 648/6/6 641/6/6 649/6/6
f 650/6/6 651/6/6 654/6/6
f 654/6/6 651/6/6 655/6/6
f 652/6/6 653/6/6 656/6/6
f 656/6/6 653/6/6 657/6/6
f 658/6/6 659/6/6 660/6/6
f 660/6/6 659/6/6 661/6/6
