# MagicaVoxel @ Ephtracy

# group
g loading_4

# material
mtllib loading_4.mtl
usemtl palette

# normals
vn -1 0 0
vn 1 0 0
vn 0 0 1
vn 0 0 -1
vn 0 -1 0
vn 0 1 0

# texcoords
vt 0.970703 0.5
vt 0.974609 0.5
vt 0.978516 0.5
vt 0.982422 0.5
vt 0.986328 0.5
vt 0.990234 0.5

# verts
v -34 1 -0.5
v -34 1 -1.5
v -34 2 0.5
v -34 2 -0.5
v -34 5 0.5
v -34 5 -0.5
v -34 6 -0.5
v -34 6 -1.5
v -33 0 -0.5
v -33 0 -1.5
v -33 1 0.5
v -33 1 -0.5
v -33 1 -1.5
v -33 2 0.5
v -33 2 -0.5
v -33 5 0.5
v -33 5 -0.5
v -33 6 0.5
v -33 6 -0.5
v -33 6 -1.5
v -33 7 -0.5
v -33 7 -1.5
v -32 0 0.5
v -32 0 -0.5
v -32 1 0.5
v -32 1 -0.5
v -32 6 0.5
v -32 6 -0.5
v -32 7 0.5
v -32 7 -0.5
v -31 1 1.5
v -31 1 0.5
v -31 6 1.5
v -31 6 0.5
v -27 2 1.5
v -27 2 0.5
v -27 5 1.5
v -27 5 0.5
v -26 1 1.5
v -26 1 0.5
v -26 2 1.5
v -26 2 0.5
v -26 5 1.5
v -26 5 0.5
v -26 6 1.5
v -26 6 0.5
v -24 2 1.5
v -24 2 0.5
v -24 5 1.5
v -24 5 0.5
v -22 1 1.5
v -22 1 0.5
v -22 5 1.5
v -22 5 0.5
v -21 5 1.5
v -21 5 0.5
v -21 6 1.5
v -21 6 0.5
v -19 1 1.5
v -19 1 0.5
v -19 3 1.5
v -19 3 0.5
v -19 4 1.5
v -19 4 0.5
v -19 5 1.5
v -19 5 0.5
v -17 1 1.5
v -17 1 0.5
v -17 6 1.5
v -17 6 0.5
v -14 2 1.5
v -14 2 0.5
v -14 5 1.5
v -14 5 0.5
v -12 1 1.5
v -12 1 0.5
v -12 6 1.5
v -12 6 0.5
v -10 1 1.5
v -10 1 0.5
v -10 6 1.5
v -10 6 0.5
v -8 3 1.5
v -8 3 0.5
v -8 4 1.5
v -8 4 0.5
v -7 1 1.5
v -7 1 0.5
v -7 3 1.5
v -7 3 0.5
v -7 4 1.5
v -7 4 0.5
v -7 6 1.5
v -7 6 0.5
v -5 2 1.5
v -5 2 0.5
v -5 5 1.5
v -5 5 0.5
v -4 1 1.5
v -4 1 0.5
v -4 2 1.5
v -4 2 0.5
v -4 5 1.5
v -4 5 0.5
v -4 6 1.5
v -4 6 0.5
v -3 3 1.5
v -3 3 0.5
v -3 4 1.5
v -3 4 0.5
v -2 2 1.5
v -2 2 0.5
v -2 3 1.5
v -2 3 0.5
v 1 1 1.5
v 1 1 0.5
v 1 6 1.5
v 1 6 0.5
v 29 2 1.5
v 29 2 0.5
v 29 5 1.5
v 29 5 0.5
v -30 2 1.5
v -30 2 0.5
v -30 6 1.5
v -30 6 0.5
v -28 1 1.5
v -28 1 0.5
v -28 2 1.5
v -28 2 0.5
v -26 2 1.5
v -26 2 0.5
v -26 5 1.5
v -26 5 0.5
v -24 1 1.5
v -24 1 0.5
v -24 2 1.5
v -24 2 0.5
v -24 5 1.5
v -24 5 0.5
v -24 6 1.5
v -24 6 0.5
v -23 2 1.5
v -23 2 0.5
v -23 5 1.5
v -23 5 0.5
v -21 1 1.5
v -21 1 0.5
v -21 3 1.5
v -21 3 0.5
v -21 4 1.5
v -21 4 0.5
v -21 5 1.5
v -21 5 0.5
v -19 5 1.5
v -19 5 0.5
v -19 6 1.5
v -19 6 0.5
v -18 1 1.5
v -18 1 0.5
v -18 5 1.5
v -18 5 0.5
v -16 2 1.5
v -16 2 0.5
v -16 5 1.5
v -16 5 0.5
v -14 1 1.5
v -14 1 0.5
v -14 2 1.5
v -14 2 0.5
v -14 5 1.5
v -14 5 0.5
v -14 6 1.5
v -14 6 0.5
v -13 2 1.5
v -13 2 0.5
v -13 5 1.5
v -13 5 0.5
v -11 1 1.5
v -11 1 0.5
v -11 6 1.5
v -11 6 0.5
v -9 1 1.5
v -9 1 0.5
v -9 4 1.5
v -9 4 0.5
v -9 5 1.5
v -9 5 0.5
v -9 6 1.5
v -9 6 0.5
v -8 4 1.5
v -8 4 0.5
v -8 5 1.5
v -8 5 0.5
v -6 1 1.5
v -6 1 0.5
v -6 6 1.5
v -6 6 0.5
v -4 2 1.5
v -4 2 0.5
v -4 5 1.5
v -4 5 0.5
v -1 1 1.5
v -1 1 0.5
v -1 4 1.5
v -1 4 0.5
v -1 5 1.5
v -1 5 0.5
v -1 6 1.5
v -1 6 0.5
v 13 2 1.5
v 13 2 0.5
v 13 5 1.5
v 13 5 0.5
v 30 1 1.5
v 30 1 0.5
v 30 2 1.5
v 30 2 0.5
v 30 5 1.5
v 30 5 0.5
v 30 6 1.5
v 30 6 0.5
v 31 2 1.5
v 31 2 0.5
v 31 5 1.5
v 31 5 0.5
v 32 0 0.5
v 32 0 -0.5
v 32 1 0.5
v 32 1 -0.5
v 32 6 0.5
v 32 6 -0.5
v 32 7 0.5
v 32 7 -0.5
v 33 0 -0.5
v 33 0 -1.5
v 33 1 0.5
v 33 1 -0.5
v 33 1 -1.5
v 33 2 0.5
v 33 2 -0.5
v 33 5 0.5
v 33 5 -0.5
v 33 6 0.5
v 33 6 -0.5
v 33 6 -1.5
v 33 7 -0.5
v 33 7 -1.5
v 34 1 -0.5
v 34 1 -1.5
v 34 2 0.5
v 34 2 -0.5
v 34 5 0.5
v 34 5 -0.5
v 34 6 -0.5
v 34 6 -1.5
v -31 1 1.5
v -31 6 1.5
v -30 2 1.5
v -30 6 1.5
v -28 1 1.5
v -28 2 1.5
v -27 2 1.5
v -27 5 1.5
v -26 1 1.5
v -26 2 1.5
v -26 5 1.5
v -26 6 1.5
v -24 1 1.5
v -24 2 1.5
v -24 5 1.5
v -24 6 1.5
v -23 2 1.5
v -23 5 1.5
v -22 1 1.5
v -22 5 1.5
v -21 1 1.5
v -21 3 1.5
v -21 4 1.5
v -21 5 1.5
v -21 6 1.5
v -19 1 1.5
v -19 3 1.5
v -19 4 1.5
v -19 5 1.5
v -19 6 1.5
v -18 1 1.5
v -18 5 1.5
v -17 1 1.5
v -17 6 1.5
v -16 2 1.5
v -16 5 1.5
v -14 1 1.5
v -14 2 1.5
v -14 5 1.5
v -14 6 1.5
v -13 2 1.5
v -13 5 1.5
v -12 1 1.5
v -12 6 1.5
v -11 1 1.5
v -11 6 1.5
v -10 1 1.5
v -10 6 1.5
v -9 1 1.5
v -9 4 1.5
v -9 5 1.5
v -9 6 1.5
v -8 3 1.5
v -8 4 1.5
v -8 5 1.5
v -7 1 1.5
v -7 3 1.5
v -7 4 1.5
v -7 6 1.5
v -6 1 1.5
v -6 6 1.5
v -5 2 1.5
v -5 5 1.5
v -4 1 1.5
v -4 2 1.5
v -4 5 1.5
v -4 6 1.5
v -3 3 1.5
v -3 4 1.5
v -2 2 1.5
v -2 3 1.5
v -1 1 1.5
v -1 4 1.5
v -1 5 1.5
v -1 6 1.5
v 1 1 1.5
v 1 6 1.5
v 2 2 1.5
v 2 5 1.5
v 3 2 1.5
v 3 5 1.5
v 4 2 1.5
v 4 5 1.5
v 5 2 1.5
v 5 5 1.5
v 6 2 1.5
v 6 5 1.5
v 7 2 1.5
v 7 5 1.5
v 8 2 1.5
v 8 5 1.5
v 9 2 1.5
v 9 5 1.5
v 10 2 1.5
v 10 5 1.5
v 11 2 1.5
v 11 5 1.5
v 12 2 1.5
v 12 5 1.5
v 13 2 1.5
v 13 5 1.5
v 29 2 1.5
v 29 5 1.5
v 30 1 1.5
v 30 2 1.5
v 30 5 1.5
v 30 6 1.5
v 31 2 1.5
v 31 5 1.5
v -34 2 0.5
v -34 5 0.5
v -33 1 0.5
v -33 2 0.5
v -33 5 0.5
v -33 6 0.5
v -32 0 0.5
v -32 1 0.5
v -32 6 0.5
v -32 7 0.5
v -31 1 0.5
v -31 6 0.5
v -30 2 0.5
v -30 6 0.5
v -28 1 0.5
v -28 2 0.5
v -27 2 0.5
v -27 5 0.5
v -26 1 0.5
v -26 2 0.5
v -26 5 0.5
v -26 6 0.5
v -24 1 0.5
v -24 2 0.5
v -24 5 0.5
v -24 6 0.5
v -23 2 0.5
v -23 5 0.5
v -22 1 0.5
v -22 5 0.5
v -21 1 0.5
v -21 3 0.5
v -21 4 0.5
v -21 5 0.5
v -21 6 0.5
v -19 1 0.5
v -19 3 0.5
v -19 4 0.5
v -19 5 0.5
v -19 6 0.5
v -18 1 0.5
v -18 5 0.5
v -17 1 0.5
v -17 6 0.5
v -16 2 0.5
v -16 5 0.5
v -14 1 0.5
v -14 2 0.5
v -14 5 0.5
v -14 6 0.5
v -13 2 0.5
v -13 5 0.5
v -12 1 0.5
v -12 6 0.5
v -11 1 0.5
v -11 6 0.5
v -10 1 0.5
v -10 6 0.5
v -9 1 0.5
v -9 4 0.5
v -9 5 0.5
v -9 6 0.5
v -8 3 0.5
v -8 4 0.5
v -8 5 0.5
v -7 1 0.5
v -7 3 0.5
v -7 4 0.5
v -7 6 0.5
v -6 1 0.5
v -6 6 0.5
v -5 2 0.5
v -5 5 0.5
v -4 1 0.5
v -4 2 0.5
v -4 5 0.5
v -4 6 0.5
v -3 3 0.5
v -3 4 0.5
v -2 2 0.5
v -2 3 0.5
v -1 1 0.5
v -1 4 0.5
v -1 5 0.5
v -1 6 0.5
v 1 1 0.5
v 1 6 0.5
v 13 2 0.5
v 13 5 0.5
v 29 2 0.5
v 29 5 0.5
v 30 1 0.5
v 30 2 0.5
v 30 5 0.5
v 30 6 0.5
v 31 2 0.5
v 31 5 0.5
v 32 0 0.5
v 32 1 0.5
v 32 6 0.5
v 32 7 0.5
v 33 1 0.5
v 33 2 0.5
v 33 5 0.5
v 33 6 0.5
v 34 2 0.5
v 34 5 0.5
v -34 1 -0.5
v -34 2 -0.5
v -34 5 -0.5
v -34 6 -0.5
v -33 0 -0.5
v -33 1 -0.5
v -33 2 -0.5
v -33 5 -0.5
v -33 6 -0.5
v -33 7 -0.5
v -32 0 -0.5
v -32 1 -0.5
v -32 6 -0.5
v -32 7 -0.5
v 32 0 -0.5
v 32 1 -0.5
v 32 6 -0.5
v 32 7 -0.5
v 33 0 -0.5
v 33 1 -0.5
v 33 2 -0.5
v 33 5 -0.5
v 33 6 -0.5
v 33 7 -0.5
v 34 1 -0.5
v 34 2 -0.5
v 34 5 -0.5
v 34 6 -0.5
v -34 1 -1.5
v -34 6 -1.5
v -33 0 -1.5
v -33 1 -1.5
v -33 6 -1.5
v -33 7 -1.5
v 33 0 -1.5
v 33 1 -1.5
v 33 6 -1.5
v 33 7 -1.5
v 34 1 -1.5
v 34 6 -1.5
v -32 0 0.5
v 32 0 0.5
v -33 0 -0.5
v -32 0 -0.5
v 32 0 -0.5
v 33 0 -0.5
v -33 0 -1.5
v 33 0 -1.5
v -31 1 1.5
v -28 1 1.5
v -26 1 1.5
v -24 1 1.5
v -22 1 1.5
v -21 1 1.5
v -19 1 1.5
v -18 1 1.5
v -17 1 1.5
v -14 1 1.5
v -12 1 1.5
v -11 1 1.5
v -10 1 1.5
v -9 1 1.5
v -7 1 1.5
v -6 1 1.5
v -4 1 1.5
v -1 1 1.5
v 1 1 1.5
v 30 1 1.5
v -33 1 0.5
v -32 1 0.5
v -31 1 0.5
v -28 1 0.5
v -26 1 0.5
v -24 1 0.5
v -22 1 0.5
v -21 1 0.5
v -19 1 0.5
v -18 1 0.5
v -17 1 0.5
v -14 1 0.5
v -12 1 0.5
v -11 1 0.5
v -10 1 0.5
v -9 1 0.5
v -7 1 0.5
v -6 1 0.5
v -4 1 0.5
v -1 1 0.5
v 1 1 0.5
v 30 1 0.5
v 32 1 0.5
v 33 1 0.5
v -34 1 -0.5
v -33 1 -0.5
v -32 1 -0.5
v 32 1 -0.5
v 33 1 -0.5
v 34 1 -0.5
v -34 1 -1.5
v -33 1 -1.5
v 33 1 -1.5
v 34 1 -1.5
v -27 2 1.5
v -26 2 1.5
v -24 2 1.5
v -23 2 1.5
v -14 2 1.5
v -13 2 1.5
v -5 2 1.5
v -4 2 1.5
v 30 2 1.5
v 31 2 1.5
v -34 2 0.5
v -33 2 0.5
v -27 2 0.5
v -26 2 0.5
v -24 2 0.5
v -23 2 0.5
v -14 2 0.5
v -13 2 0.5
v -5 2 0.5
v -4 2 0.5
v 30 2 0.5
v 31 2 0.5
v 33 2 0.5
v 34 2 0.5
v -34 2 -0.5
v -33 2 -0.5
v 33 2 -0.5
v 34 2 -0.5
v -21 3 1.5
v -19 3 1.5
v -8 3 1.5
v -7 3 1.5
v -3 3 1.5
v -2 3 1.5
v -21 3 0.5
v -19 3 0.5
v -8 3 0.5
v -7 3 0.5
v -3 3 0.5
v -2 3 0.5
v -9 4 1.5
v -8 4 1.5
v -9 4 0.5
v -8 4 0.5
v -26 5 1.5
v -24 5 1.5
v -21 5 1.5
v -19 5 1.5
v -16 5 1.5
v -14 5 1.5
v -4 5 1.5
v -1 5 1.5
v 13 5 1.5
v 29 5 1.5
v -26 5 0.5
v -24 5 0.5
v -21 5 0.5
v -19 5 0.5
v -16 5 0.5
v -14 5 0.5
v -4 5 0.5
v -1 5 0.5
v 13 5 0.5
v 29 5 0.5
v -30 2 1.5
v -28 2 1.5
v -26 2 1.5
v -24 2 1.5
v -16 2 1.5
v -14 2 1.5
v -4 2 1.5
v -2 2 1.5
v 13 2 1.5
v 29 2 1.5
v -30 2 0.5
v -28 2 0.5
v -26 2 0.5
v -24 2 0.5
v -16 2 0.5
v -14 2 0.5
v -4 2 0.5
v -2 2 0.5
v 13 2 0.5
v 29 2 0.5
v -21 4 1.5
v -19 4 1.5
v -8 4 1.5
v -7 4 1.5
v -3 4 1.5
v -1 4 1.5
v -21 4 0.5
v -19 4 0.5
v -8 4 0.5
v -7 4 0.5
v -3 4 0.5
v -1 4 0.5
v -27 5 1.5
v -26 5 1.5
v -24 5 1.5
v -23 5 1.5
v -22 5 1.5
v -21 5 1.5
v -19 5 1.5
v -18 5 1.5
v -14 5 1.5
v -13 5 1.5
v -9 5 1.5
v -8 5 1.5
v -5 5 1.5
v -4 5 1.5
v 30 5 1.5
v 31 5 1.5
v -34 5 0.5
v -33 5 0.5
v -27 5 0.5
v -26 5 0.5
v -24 5 0.5
v -23 5 0.5
v -22 5 0.5
v -21 5 0.5
v -19 5 0.5
v -18 5 0.5
v -14 5 0.5
v -13 5 0.5
v -9 5 0.5
v -8 5 0.5
v -5 5 0.5
v -4 5 0.5
v 30 5 0.5
v 31 5 0.5
v 33 5 0.5
v 34 5 0.5
v -34 5 -0.5
v -33 5 -0.5
v 33 5 -0.5
v 34 5 -0.5
v -31 6 1.5
v -30 6 1.5
v -26 6 1.5
v -24 6 1.5
v -21 6 1.5
v -19 6 1.5
v -17 6 1.5
v -14 6 1.5
v -12 6 1.5
v -11 6 1.5
v -10 6 1.5
v -9 6 1.5
v -7 6 1.5
v -6 6 1.5
v -4 6 1.5
v -1 6 1.5
v 1 6 1.5
v 30 6 1.5
v -33 6 0.5
v -32 6 0.5
v -31 6 0.5
v -30 6 0.5
v -26 6 0.5
v -24 6 0.5
v -21 6 0.5
v -19 6 0.5
v -17 6 0.5
v -14 6 0.5
v -12 6 0.5
v -11 6 0.5
v -10 6 0.5
v -9 6 0.5
v -7 6 0.5
v -6 6 0.5
v -4 6 0.5
v -1 6 0.5
v 1 6 0.5
v 30 6 0.5
v 32 6 0.5
v 33 6 0.5
v -34 6 -0.5
v -33 6 -0.5
v -32 6 -0.5
v 32 6 -0.5
v 33 6 -0.5
v 34 6 -0.5
v -34 6 -1.5
v -33 6 -1.5
v 33 6 -1.5
v 34 6 -1.5
v -32 7 0.5
v 32 7 0.5
v -33 7 -0.5
v -32 7 -0.5
v 32 7 -0.5
v 33 7 -0.5
v -33 7 -1.5
v 33 7 -1.5

# faces
f 4/2/1 2/2/1 1/2/1
f 5/2/1 4/2/1 3/2/1
f 6/2/1 2/2/1 4/2/1
f 6/2/1 4/2/1 5/2/1
f 7/2/1 2/2/1 6/2/1
f 8/2/1 2/2/1 7/2/1
f 12/2/1 10/2/1 9/2/1
f 13/2/1 10/2/1 12/2/1
f 14/2/1 12/2/1 11/2/1
f 15/2/1 12/2/1 14/2/1
f 18/2/1 17/2/1 16/2/1
f 19/2/1 17/2/1 18/2/1
f 21/2/1 20/2/1 19/2/1
f 22/2/1 20/2/1 21/2/1
f 25/2/1 24/2/1 23/2/1
f 26/2/1 24/2/1 25/2/1
f 29/2/1 28/2/1 27/2/1
f 30/2/1 28/2/1 29/2/1
f 33/1/1 32/1/1 31/1/1
f 34/1/1 32/1/1 33/1/1
f 37/1/1 36/1/1 35/1/1
f 38/1/1 36/1/1 37/1/1
f 41/1/1 40/1/1 39/1/1
f 42/1/1 40/1/1 41/1/1
f 45/1/1 44/1/1 43/1/1
f 46/1/1 44/1/1 45/1/1
f 49/1/1 48/1/1 47/1/1
f 50/1/1 48/1/1 49/1/1
f 53/1/1 52/1/1 51/1/1
f 54/1/1 52/1/1 53/1/1
f 57/1/1 56/1/1 55/1/1
f 58/1/1 56/1/1 57/1/1
f 61/1/1 60/1/1 59/1/1
f 62/1/1 60/1/1 61/1/1
f 65/1/1 64/1/1 63/1/1
f 66/1/1 64/1/1 65/1/1
f 69/1/1 68/1/1 67/1/1
f 70/1/1 68/1/1 69/1/1
f 73/1/1 72/1/1 71/1/1
f 74/1/1 72/1/1 73/1/1
f 77/1/1 76/1/1 75/1/1
f 78/1/1 76/1/1 77/1/1
f 81/1/1 80/1/1 79/1/1
f 82/1/1 80/1/1 81/1/1
f 85/1/1 84/1/1 83/1/1
f 86/1/1 84/1/1 85/1/1
f 89/1/1 88/1/1 87/1/1
f 90/1/1 88/1/1 89/1/1
f 93/1/1 92/1/1 91/1/1
f 94/1/1 92/1/1 93/1/1
f 97/1/1 96/1/1 95/1/1
f 98/1/1 96/1/1 97/1/1
f 101/1/1 100/1/1 99/1/1
f 102/1/1 100/1/1 101/1/1
f 105/1/1 104/1/1 103/1/1
f 106/1/1 104/1/1 105/1/1
f 109/1/1 108/1/1 107/1/1
f 110/1/1 108/1/1 109/1/1
f 113/1/1 112/1/1 111/1/1
f 114/1/1 112/1/1 113/1/1
f 117/3/1 116/3/1 115/3/1
f 118/3/1 116/3/1 117/3/1
f 121/3/1 120/3/1 119/3/1
f 122/3/1 120/3/1 121/3/1
f 123/1/2 124/1/2 125/1/2
f 125/1/2 124/1/2 126/1/2
f 127/1/2 128/1/2 129/1/2
f 129/1/2 128/1/2 130/1/2
f 131/1/2 132/1/2 133/1/2
f 133/1/2 132/1/2 134/1/2
f 135/1/2 136/1/2 137/1/2
f 137/1/2 136/1/2 138/1/2
f 139/1/2 140/1/2 141/1/2
f 141/1/2 140/1/2 142/1/2
f 143/1/2 144/1/2 145/1/2
f 145/1/2 144/1/2 146/1/2
f 147/1/2 148/1/2 149/1/2
f 149/1/2 148/1/2 150/1/2
f 151/1/2 152/1/2 153/1/2
f 153/1/2 152/1/2 154/1/2
f 155/1/2 156/1/2 157/1/2
f 157/1/2 156/1/2 158/1/2
f 159/1/2 160/1/2 161/1/2
f 161/1/2 160/1/2 162/1/2
f 163/1/2 164/1/2 165/1/2
f 165/1/2 164/1/2 166/1/2
f 167/1/2 168/1/2 169/1/2
f 169/1/2 168/1/2 170/1/2
f 171/1/2 172/1/2 173/1/2
f 173/1/2 172/1/2 174/1/2
f 175/1/2 176/1/2 177/1/2
f 177/1/2 176/1/2 178/1/2
f 179/1/2 180/1/2 181/1/2
f 181/1/2 180/1/2 182/1/2
f 183/1/2 184/1/2 185/1/2
f 185/1/2 184/1/2 186/1/2
f 187/1/2 188/1/2 189/1/2
f 189/1/2 188/1/2 190/1/2
f 191/1/2 192/1/2 193/1/2
f 193/1/2 192/1/2 194/1/2
f 195/1/2 196/1/2 197/1/2
f 197/1/2 196/1/2 198/1/2
f 199/1/2 200/1/2 201/1/2
f 201/1/2 200/1/2 202/1/2
f 203/1/2 204/1/2 205/1/2
f 205/1/2 204/1/2 206/1/2
f 207/1/2 208/1/2 209/1/2
f 209/1/2 208/1/2 210/1/2
f 211/5/2 212/5/2 213/5/2
f 213/5/2 212/5/2 214/5/2
f 215/3/2 216/3/2 217/3/2
f 217/3/2 216/3/2 218/3/2
f 219/3/2 220/3/2 221/3/2
f 221/3/2 220/3/2 222/3/2
f 223/3/2 224/3/2 225/3/2
f 225/3/2 224/3/2 226/3/2
f 227/2/2 228/2/2 229/2/2
f 229/2/2 228/2/2 230/2/2
f 231/2/2 232/2/2 233/2/2
f 233/2/2 232/2/2 234/2/2
f 235/2/2 236/2/2 238/2/2
f 238/2/2 236/2/2 239/2/2
f 237/2/2 238/2/2 240/2/2
f 240/2/2 238/2/2 241/2/2
f 242/2/2 243/2/2 244/2/2
f 244/2/2 243/2/2 245/2/2
f 245/2/2 246/2/2 247/2/2
f 247/2/2 246/2/2 248/2/2
f 249/2/2 250/2/2 252/2/2
f 251/2/2 252/2/2 253/2/2
f 252/2/2 250/2/2 254/2/2
f 253/2/2 252/2/2 254/2/2
f 254/2/2 250/2/2 255/2/2
f 255/2/2 250/2/2 256/2/2
f 259/1/3 258/1/3 257/1/3
f 260/1/3 258/1/3 259/1/3
f 261/1/3 259/1/3 257/1/3
f 262/1/3 259/1/3 261/1/3
f 266/1/3 264/1/3 263/1/3
f 267/1/3 264/1/3 266/1/3
f 269/1/3 266/1/3 265/1/3
f 270/1/3 266/1/3 269/1/3
f 271/1/3 268/1/3 267/1/3
f 272/1/3 268/1/3 271/1/3
f 273/1/3 271/1/3 270/1/3
f 274/1/3 271/1/3 273/1/3
f 277/1/3 276/1/3 275/1/3
f 278/1/3 276/1/3 277/1/3
f 279/1/3 276/1/3 278/1/3
f 280/1/3 276/1/3 279/1/3
f 283/1/3 279/1/3 278/1/3
f 284/1/3 279/1/3 283/1/3
f 285/1/3 281/1/3 280/1/3
f 286/1/3 281/1/3 285/1/3
f 287/1/3 284/1/3 283/1/3
f 287/1/3 283/1/3 282/1/3
f 287/1/3 285/1/3 284/1/3
f 288/1/3 285/1/3 287/1/3
f 291/1/3 290/1/3 289/1/3
f 292/1/3 290/1/3 291/1/3
f 293/1/3 291/1/3 289/1/3
f 294/1/3 291/1/3 293/1/3
f 295/1/3 290/1/3 292/1/3
f 296/1/3 290/1/3 295/1/3
f 297/1/3 295/1/3 294/1/3
f 298/1/3 295/1/3 297/1/3
f 301/1/3 300/1/3 299/1/3
f 302/1/3 300/1/3 301/1/3
f 305/1/3 304/1/3 303/1/3
f 306/1/3 304/1/3 305/1/3
f 307/1/3 304/1/3 306/1/3
f 308/1/3 304/1/3 307/1/3
f 310/1/3 307/1/3 306/1/3
f 311/1/3 307/1/3 310/1/3
f 313/1/3 310/1/3 309/1/3
f 314/1/3 310/1/3 313/1/3
f 316/1/3 314/1/3 313/1/3
f 316/1/3 315/1/3 314/1/3
f 316/1/3 313/1/3 312/1/3
f 317/1/3 315/1/3 316/1/3
f 321/1/3 319/1/3 318/1/3
f 322/1/3 319/1/3 321/1/3
f 326/1/3 321/1/3 320/1/3
f 327/1/3 325/1/3 324/1/3
f 328/1/3 326/1/3 320/1/3
f 328/1/3 327/1/3 326/1/3
f 329/1/3 325/1/3 327/1/3
f 329/1/3 327/1/3 328/1/3
f 330/1/3 323/1/3 322/1/3
f 331/1/3 323/1/3 330/1/3
f 334/3/3 333/3/3 332/3/3
f 335/3/3 333/3/3 334/3/3
f 336/3/3 334/3/3 332/3/3
f 336/5/3 335/5/3 334/5/3
f 337/3/3 333/3/3 335/3/3
f 337/5/3 335/5/3 336/5/3
f 338/3/3 336/3/3 332/3/3
f 338/6/3 337/6/3 336/6/3
f 339/3/3 333/3/3 337/3/3
f 339/6/3 337/6/3 338/6/3
f 340/3/3 338/3/3 332/3/3
f 340/5/3 339/5/3 338/5/3
f 341/3/3 333/3/3 339/3/3
f 341/5/3 339/5/3 340/5/3
f 342/3/3 340/3/3 332/3/3
f 342/6/3 341/6/3 340/6/3
f 343/3/3 333/3/3 341/3/3
f 343/6/3 341/6/3 342/6/3
f 344/3/3 342/3/3 332/3/3
f 344/5/3 343/5/3 342/5/3
f 345/3/3 333/3/3 343/3/3
f 345/5/3 343/5/3 344/5/3
f 346/3/3 344/3/3 332/3/3
f 346/6/3 345/6/3 344/6/3
f 347/3/3 333/3/3 345/3/3
f 347/6/3 345/6/3 346/6/3
f 348/3/3 346/3/3 332/3/3
f 348/5/3 347/5/3 346/5/3
f 349/3/3 333/3/3 347/3/3
f 349/5/3 347/5/3 348/5/3
f 350/3/3 348/3/3 332/3/3
f 350/6/3 349/6/3 348/6/3
f 351/3/3 333/3/3 349/3/3
f 351/6/3 349/6/3 350/6/3
f 352/3/3 350/3/3 332/3/3
f 352/5/3 351/5/3 350/5/3
f 353/3/3 333/3/3 351/3/3
f 353/5/3 351/5/3 352/5/3
f 354/3/3 352/3/3 332/3/3
f 354/6/3 353/6/3 352/6/3
f 355/3/3 333/3/3 353/3/3
f 355/6/3 353/6/3 354/6/3
f 356/3/3 354/3/3 332/3/3
f 356/5/3 355/5/3 354/5/3
f 357/3/3 333/3/3 355/3/3
f 357/5/3 355/5/3 356/5/3
f 358/3/3 356/3/3 332/3/3
f 359/3/3 333/3/3 357/3/3
f 360/3/3 358/3/3 332/3/3
f 360/3/3 359/3/3 358/3/3
f 361/3/3 359/3/3 360/3/3
f 362/3/3 333/3/3 359/3/3
f 362/3/3 359/3/3 361/3/3
f 363/3/3 333/3/3 362/3/3
f 364/3/3 362/3/3 361/3/3
f 365/3/3 362/3/3 364/3/3
f 369/2/3 367/2/3 366/2/3
f 370/2/3 367/2/3 369/2/3
f 373/2/3 369/2/3 368/2/3
f 373/2/3 371/2/3 370/2/3
f 373/2/3 370/2/3 369/2/3
f 374/2/3 371/2/3 373/2/3
f 376/2/3 373/2/3 372/2/3
f 376/2/3 375/2/3 374/2/3
f 376/2/3 374/2/3 373/2/3
f 377/2/3 375/2/3 376/2/3
f 379/2/3 375/2/3 377/2/3
f 380/2/3 376/2/3 372/2/3
f 381/2/3 379/2/3 378/2/3
f 382/2/3 379/2/3 381/2/3
f 382/2/3 381/2/3 380/2/3
f 383/2/3 379/2/3 382/2/3
f 384/2/3 380/2/3 372/2/3
f 384/2/3 382/2/3 380/2/3
f 385/2/3 382/2/3 384/2/3
f 386/2/3 379/2/3 383/2/3
f 387/2/3 375/2/3 379/2/3
f 387/2/3 379/2/3 386/2/3
f 388/2/3 384/2/3 372/2/3
f 389/2/3 386/2/3 385/2/3
f 390/2/3 386/2/3 389/2/3
f 391/2/3 375/2/3 387/2/3
f 392/2/3 389/2/3 388/2/3
f 393/2/3 391/2/3 390/2/3
f 394/2/3 392/2/3 388/2/3
f 394/2/3 393/2/3 392/2/3
f 394/2/3 388/2/3 372/2/3
f 395/2/3 391/2/3 393/2/3
f 395/2/3 393/2/3 394/2/3
f 396/2/3 394/2/3 372/2/3
f 399/2/3 391/2/3 395/2/3
f 400/2/3 375/2/3 391/2/3
f 400/2/3 391/2/3 399/2/3
f 401/2/3 397/2/3 396/2/3
f 401/2/3 396/2/3 372/2/3
f 402/2/3 397/2/3 401/2/3
f 403/2/3 399/2/3 398/2/3
f 404/2/3 399/2/3 403/2/3
f 405/2/3 375/2/3 400/2/3
f 406/2/3 401/2/3 372/2/3
f 407/2/3 405/2/3 404/2/3
f 408/2/3 406/2/3 372/2/3
f 408/2/3 407/2/3 406/2/3
f 409/2/3 405/2/3 407/2/3
f 409/2/3 407/2/3 408/2/3
f 409/2/3 375/2/3 405/2/3
f 412/2/3 408/2/3 372/2/3
f 413/2/3 411/2/3 410/2/3
f 414/2/3 411/2/3 413/2/3
f 415/2/3 375/2/3 409/2/3
f 416/2/3 413/2/3 412/2/3
f 417/2/3 415/2/3 414/2/3
f 418/2/3 412/2/3 372/2/3
f 418/2/3 417/2/3 416/2/3
f 418/2/3 416/2/3 412/2/3
f 419/2/3 415/2/3 417/2/3
f 419/2/3 417/2/3 418/2/3
f 419/2/3 375/2/3 415/2/3
f 420/2/3 418/2/3 372/2/3
f 421/2/3 375/2/3 419/2/3
f 422/2/3 420/2/3 372/2/3
f 422/2/3 421/2/3 420/2/3
f 423/2/3 375/2/3 421/2/3
f 423/2/3 421/2/3 422/2/3
f 424/2/3 422/2/3 372/2/3
f 427/2/3 375/2/3 423/2/3
f 428/2/3 425/2/3 424/2/3
f 429/2/3 425/2/3 428/2/3
f 430/2/3 427/2/3 426/2/3
f 431/2/3 424/2/3 372/2/3
f 431/2/3 428/2/3 424/2/3
f 432/2/3 428/2/3 431/2/3
f 433/2/3 430/2/3 429/2/3
f 434/2/3 427/2/3 430/2/3
f 434/2/3 430/2/3 433/2/3
f 434/2/3 375/2/3 427/2/3
f 435/2/3 431/2/3 372/2/3
f 436/2/3 375/2/3 434/2/3
f 437/2/3 436/2/3 435/2/3
f 438/2/3 436/2/3 437/2/3
f 439/2/3 435/2/3 372/2/3
f 439/2/3 437/2/3 435/2/3
f 440/2/3 437/2/3 439/2/3
f 441/2/3 436/2/3 438/2/3
f 442/2/3 375/2/3 436/2/3
f 442/2/3 436/2/3 441/2/3
f 443/2/3 441/2/3 440/2/3
f 444/2/3 441/2/3 443/2/3
f 445/2/3 443/2/3 440/2/3
f 446/2/3 443/2/3 445/2/3
f 447/2/3 439/2/3 372/2/3
f 448/2/3 441/2/3 444/2/3
f 449/2/3 441/2/3 448/2/3
f 450/2/3 375/2/3 442/2/3
f 451/2/3 449/2/3 448/2/3
f 451/2/3 450/2/3 449/2/3
f 451/2/3 447/2/3 372/2/3
f 451/2/3 448/2/3 447/2/3
f 452/2/3 375/2/3 450/2/3
f 452/2/3 450/2/3 451/2/3
f 455/4/3 454/4/3 453/4/3
f 456/4/3 454/4/3 455/4/3
f 457/2/3 451/2/3 372/2/3
f 460/2/3 375/2/3 452/2/3
f 461/2/3 458/2/3 457/2/3
f 462/2/3 460/2/3 459/2/3
f 463/2/3 461/2/3 457/2/3
f 463/2/3 462/2/3 461/2/3
f 463/2/3 457/2/3 372/2/3
f 464/2/3 462/2/3 463/2/3
f 465/2/3 460/2/3 462/2/3
f 465/2/3 462/2/3 464/2/3
f 465/2/3 375/2/3 460/2/3
f 466/2/3 375/2/3 465/2/3
f 467/2/3 465/2/3 464/2/3
f 468/2/3 465/2/3 467/2/3
f 469/2/3 465/2/3 468/2/3
f 470/2/3 465/2/3 469/2/3
f 471/2/3 469/2/3 468/2/3
f 472/2/3 469/2/3 471/2/3
f 478/2/3 474/2/3 473/2/3
f 479/2/3 474/2/3 478/2/3
f 480/2/3 476/2/3 475/2/3
f 481/2/3 476/2/3 480/2/3
f 483/2/3 478/2/3 477/2/3
f 484/2/3 478/2/3 483/2/3
f 485/2/3 482/2/3 481/2/3
f 486/2/3 482/2/3 485/2/3
f 491/2/3 488/2/3 487/2/3
f 492/2/3 488/2/3 491/2/3
f 495/2/3 490/2/3 489/2/3
f 496/2/3 490/2/3 495/2/3
f 497/2/3 493/2/3 492/2/3
f 498/2/3 493/2/3 497/2/3
f 499/2/3 495/2/3 494/2/3
f 500/2/3 495/2/3 499/2/3
f 501/2/4 502/2/4 504/2/4
f 504/2/4 502/2/4 505/2/4
f 503/2/4 504/2/4 507/2/4
f 505/2/4 506/2/4 507/2/4
f 504/2/4 505/2/4 507/2/4
f 507/2/4 506/2/4 508/2/4
f 508/2/4 506/2/4 509/2/4
f 509/2/4 506/2/4 510/2/4
f 508/2/4 509/2/4 511/2/4
f 511/2/4 509/2/4 512/2/4
f 516/2/5 514/2/5 513/2/5
f 517/2/5 514/2/5 516/2/5
f 519/2/5 516/2/5 515/2/5
f 519/2/5 518/2/5 517/2/5
f 519/2/5 517/2/5 516/2/5
f 520/2/5 518/2/5 519/2/5
f 543/1/5 522/1/5 521/1/5
f 544/1/5 522/1/5 543/1/5
f 545/1/5 524/1/5 523/1/5
f 546/1/5 524/1/5 545/1/5
f 547/1/5 526/1/5 525/1/5
f 548/1/5 526/1/5 547/1/5
f 549/1/5 528/1/5 527/1/5
f 550/1/5 528/1/5 549/1/5
f 551/1/5 530/1/5 529/1/5
f 552/1/5 530/1/5 551/1/5
f 553/1/5 532/1/5 531/1/5
f 554/1/5 532/1/5 553/1/5
f 555/1/5 534/1/5 533/1/5
f 556/1/5 534/1/5 555/1/5
f 557/1/5 536/1/5 535/1/5
f 558/1/5 536/1/5 557/1/5
f 559/1/5 538/1/5 537/1/5
f 560/1/5 538/1/5 559/1/5
f 561/3/5 540/3/5 539/3/5
f 562/3/5 540/3/5 561/3/5
f 566/2/5 542/2/5 541/2/5
f 567/2/5 542/2/5 566/2/5
f 568/2/5 564/2/5 563/2/5
f 569/2/5 564/2/5 568/2/5
f 571/2/5 566/2/5 565/2/5
f 572/2/5 566/2/5 571/2/5
f 573/2/5 570/2/5 569/2/5
f 574/2/5 570/2/5 573/2/5
f 587/1/5 576/1/5 575/1/5
f 588/1/5 576/1/5 587/1/5
f 589/1/5 578/1/5 577/1/5
f 590/1/5 578/1/5 589/1/5
f 591/1/5 580/1/5 579/1/5
f 592/1/5 580/1/5 591/1/5
f 593/1/5 582/1/5 581/1/5
f 594/1/5 582/1/5 593/1/5
f 595/3/5 584/3/5 583/3/5
f 596/3/5 584/3/5 595/3/5
f 599/2/5 586/2/5 585/2/5
f 600/2/5 586/2/5 599/2/5
f 601/2/5 598/2/5 597/2/5
f 602/2/5 598/2/5 601/2/5
f 609/1/5 604/1/5 603/1/5
f 610/1/5 604/1/5 609/1/5
f 611/1/5 606/1/5 605/1/5
f 612/1/5 606/1/5 611/1/5
f 613/1/5 608/1/5 607/1/5
f 614/1/5 608/1/5 613/1/5
f 617/1/5 616/1/5 615/1/5
f 618/1/5 616/1/5 617/1/5
f 629/1/5 620/1/5 619/1/5
f 630/1/5 620/1/5 629/1/5
f 631/1/5 622/1/5 621/1/5
f 632/1/5 622/1/5 631/1/5
f 633/1/5 624/1/5 623/1/5
f 634/1/5 624/1/5 633/1/5
f 635/1/5 626/1/5 625/1/5
f 636/1/5 626/1/5 635/1/5
f 637/3/5 628/3/5 627/3/5
f 638/3/5 628/3/5 637/3/5
f 639/1/6 640/1/6 649/1/6
f 649/1/6 640/1/6 650/1/6
f 641/1/6 642/1/6 651/1/6
f 651/1/6 642/1/6 652/1/6
f 643/1/6 644/1/6 653/1/6
f 653/1/6 644/1/6 654/1/6
f 645/1/6 646/1/6 655/1/6
f 655/1/6 646/1/6 656/1/6
f 647/3/6 648/3/6 657/3/6
f 657/3/6 648/3/6 658/3/6
f 659/1/6 660/1/6 665/1/6
f 665/1/6 660/1/6 666/1/6
f 661/1/6 662/1/6 667/1/6
f 667/1/6 662/1/6 668/1/6
f 663/1/6 664/1/6 669/1/6
f 669/1/6 664/1/6 670/1/6
f 671/1/6 672/1/6 689/1/6
f 689/1/6 672/1/6 690/1/6
f 673/1/6 674/1/6 691/1/6
f 691/1/6 674/1/6 692/1/6
f 675/1/6 676/1/6 693/1/6
f 693/1/6 676/1/6 694/1/6
f 677/1/6 678/1/6 695/1/6
f 695/1/6 678/1/6 696/1/6
f 679/1/6 680/1/6 697/1/6
f 697/1/6 680/1/6 698/1/6
f 681/1/6 682/1/6 699/1/6
f 699/1/6 682/1/6 700/1/6
f 683/1/6 684/1/6 701/1/6
f 701/1/6 684/1/6 702/1/6
f 685/3/6 686/3/6 703/3/6
f 703/3/6 686/3/6 704/3/6
f 687/2/6 688/2/6 707/2/6
f 707/2/6 688/2/6 708/2/6
f 705/2/6 706/2/6 709/2/6
f 709/2/6 706/2/6 710/2/6
f 711/1/6 712/1/6 731/1/6
f 731/1/6 712/1/6 732/1/6
f 713/1/6 714/1/6 733/1/6
f 733/1/6 714/1/6 734/1/6
f 715/1/6 716/1/6 735/1/6
f 735/1/6 716/1/6 736/1/6
f 717/1/6 718/1/6 737/1/6
f 737/1/6 718/1/6 738/1/6
f 719/1/6 720/1/6 739/1/6
f 739/1/6 720/1/6 740/1/6
f 721/1/6 722/1/6 741/1/6
f 741/1/6 722/1/6 742/1/6
f 723/1/6 724/1/6 743/1/6
f 743/1/6 724/1/6 744/1/6
f 725/1/6 726/1/6 745/1/6
f 745/1/6 726/1/6 746/1/6
f 727/3/6 728/3/6 747/3/6
f 747/3/6 728/3/6 748/3/6
f 729/2/6 730/2/6 752/2/6
f 752/2/6 730/2/6 753/2/6
f 749/2/6 750/2/6 754/2/6
f 754/2/6 750/2/6 755/2/6
f 751/2/6 752/2/6 757/2/6
f 757/2/6 752/2/6 758/2/6
f 755/2/6 756/2/6 759/2/6
f 759/2/6 756/2/6 760/2/6
f 761/2/6 762/2/6 764/2/6
f 764/2/6 762/2/6 765/2/6
f 763/2/6 764/2/6 767/2/6
f 765/2/6 766/2/6 767/2/6
f 764/2/6 765/2/6 767/2/6
f 767/2/6 766/2/6 768/2/6
